<svg xmlns="http://www.w3.org/2000/svg" xmlns:xlink="http://www.w3.org/1999/xlink" width="2500" zoomAndPan="magnify" viewBox="0 0 1874.88 1874.999927" height="2500" preserveAspectRatio="xMidYMid meet" version="1.0"><defs><clipPath id="81df23a155"><path d="M 682.738281 80.46875 L 1193 80.46875 L 1193 1795 L 682.738281 1795 Z M 682.738281 80.46875 " clip-rule="nonzero"/></clipPath><clipPath id="f4b41afb56"><path d="M 1100.101562 365.378906 L 1100.101562 365.511719 L 1038.703125 483.808594 L 1002.585938 483.808594 L 942.796875 367.375 L 942.796875 352.085938 L 1002.585938 235.921875 L 1038.703125 235.921875 L 1100.101562 354.21875 Z M 874.964844 1649.964844 L 840.054688 1706.90625 L 804.746094 1649.695312 L 770.628906 1594.464844 L 804.746094 1539.101562 L 804.746094 1538.835938 L 840.054688 1481.355469 L 874.964844 1538.433594 L 909.082031 1594.332031 Z M 1133.546875 109.550781 L 1133.546875 185.609375 L 934.097656 185.609375 L 934.097656 223.988281 L 880.984375 223.988281 L 880.984375 80.46875 L 802.066406 80.46875 L 802.066406 1399.054688 L 682.738281 1593.125 L 682.738281 1595.390625 L 804.746094 1794.140625 L 804.746094 1794.542969 L 875.113281 1794.542969 L 997.105469 1595.390625 L 997.105469 1593.125 L 880.984375 1403.597656 L 880.984375 495.472656 L 934.097656 495.472656 L 934.097656 534.105469 L 1133.546875 534.105469 L 1133.546875 605.398438 L 1192.144531 605.398438 L 1192.144531 109.550781 Z M 1133.546875 109.550781 " clip-rule="nonzero"/></clipPath><clipPath id="35de286afe"><path d="M 0.738281 0.46875 L 510.242188 0.46875 L 510.242188 1714.664062 L 0.738281 1714.664062 Z M 0.738281 0.46875 " clip-rule="nonzero"/></clipPath><clipPath id="f6e63a2cd6"><path d="M 418.101562 285.378906 L 418.101562 285.511719 L 356.703125 403.808594 L 320.585938 403.808594 L 260.796875 287.375 L 260.796875 272.085938 L 320.585938 155.921875 L 356.703125 155.921875 L 418.101562 274.21875 Z M 192.964844 1569.964844 L 158.054688 1626.90625 L 122.746094 1569.695312 L 88.628906 1514.464844 L 122.746094 1459.101562 L 122.746094 1458.835938 L 158.054688 1401.355469 L 192.964844 1458.433594 L 227.082031 1514.332031 Z M 451.546875 29.550781 L 451.546875 105.609375 L 252.097656 105.609375 L 252.097656 143.988281 L 198.984375 143.988281 L 198.984375 0.46875 L 120.066406 0.46875 L 120.066406 1319.054688 L 0.738281 1513.125 L 0.738281 1515.390625 L 122.746094 1714.140625 L 122.746094 1714.542969 L 193.113281 1714.542969 L 315.105469 1515.390625 L 315.105469 1513.125 L 198.984375 1323.597656 L 198.984375 415.472656 L 252.097656 415.472656 L 252.097656 454.105469 L 451.546875 454.105469 L 451.546875 525.398438 L 510.144531 525.398438 L 510.144531 29.550781 Z M 451.546875 29.550781 " clip-rule="nonzero"/></clipPath><clipPath id="04d52b08cd"><rect x="0" width="511" y="0" height="1715"/></clipPath></defs><g clip-path="url(#81df23a155)"><g clip-path="url(#f4b41afb56)"><g transform="matrix(1, 0, 0, 1, 682, 80)"><g clip-path="url(#04d52b08cd)"><g clip-path="url(#35de286afe)"><g clip-path="url(#f6e63a2cd6)"><path fill="#e5d4c2" d="M 0.738281 0.46875 L 510.046875 0.46875 L 510.046875 1714.53125 L 0.738281 1714.53125 Z M 0.738281 0.46875 " fill-opacity="1" fill-rule="nonzero"/></g></g></g></g></g></g></svg>