<?xml version="1.0" encoding="UTF-8"?>
<svg id="Layer_1" xmlns="http://www.w3.org/2000/svg" version="1.1" viewBox="0 0 2500 2500">
  <defs>
    <style>
      .st0 {
        fill: #231f20;
      }
    </style>
  </defs>
  <g>
    <polygon class="st0" points="1113.99 1474.14 1139.09 1474.14 1139.09 1346.77 1176.35 1346.77 1176.35 1323.75 1076.73 1323.75 1076.73 1346.77 1113.99 1346.77 1113.99 1474.14"/>
    <polygon class="st0" points="1223.4 1407.54 1269.69 1407.54 1269.69 1474.14 1294.79 1474.14 1294.79 1323.75 1269.69 1323.75 1269.69 1384.52 1223.4 1384.52 1223.4 1323.75 1198.3 1323.75 1198.3 1474.14 1223.4 1474.14 1223.4 1407.54"/>
    <polygon class="st0" points="1407.03 1451.12 1351.88 1451.12 1351.88 1407.33 1401.83 1407.33 1401.83 1384.93 1351.88 1384.93 1351.88 1346.77 1405.58 1346.77 1405.58 1323.75 1326.77 1323.75 1326.77 1474.14 1407.03 1474.14 1407.03 1451.12"/>
    <path class="st0" d="M906.18,1608.88c4.17-6.53,6.29-14.43,6.29-23.46,0-13.19-3.88-23.8-11.53-31.52-7.65-7.72-19.55-11.63-35.37-11.63h-47.52v150.4h25.11v-129.04h19.5c8.49,0,14.66,1.8,18.33,5.33,3.67,3.54,5.54,9.07,5.54,16.45,0,7.8-1.79,13.51-5.33,16.97-3.54,3.47-9.71,5.3-18.33,5.44h-3.27l-.99,1.48,28.56,83.17.06.19h26.81l-25.01-70.24c7.26-2.53,13.03-7.08,17.15-13.55Z"/>
    <path class="st0" d="M1172.35,1572.66c-.25,5.6-.38,12.87-.38,21.71v98.3h22.61v-150.4h-32.12l-27.74,96.56c-1.24,4.09-2.27,8.56-3.07,13.34-.8-4.76-1.83-9.31-3.07-13.54l-27.53-96.35h-33.57v150.4h22.19v-98.51c0-9.55-.14-17.13-.42-22.59,1.63,6.87,3.55,14.4,5.71,22.45l27.06,98.44.06.2h17.9l27.11-99.06c2.38-8.43,4.14-15.46,5.26-20.96Z"/>
    <path class="st0" d="M1251.67,1632.53h22.41c14.44,0,25.88-4.02,34.01-11.94,8.13-7.92,12.26-19.05,12.26-33.08s-4.12-25.36-12.26-33.29c-8.13-7.92-19.65-11.94-34.22-11.94h-47.31v150.4h25.11v-60.15ZM1251.67,1564.05h19.71c7.52,0,13.3,1.97,17.19,5.85,3.88,3.88,5.85,9.66,5.85,17.18s-1.97,13.55-5.85,17.5c-3.88,3.95-9.59,5.95-16.97,5.95h-19.91v-46.49Z"/>
    <path class="st0" d="M1537.44,1629.13c0,10.78.25,19.42.75,25.75-1.97-7.03-4.49-13.76-7.51-20.04l-43.29-92.41-.07-.16h-26.88v150.4h23.23v-92.47c0-7.77-.15-14.09-.44-18.87,2.09,7.06,4.09,12.47,5.95,16.07l44.41,95.27h26.88v-150.4h-23.03v86.85Z"/>
    <polygon class="st0" points="1582.33 1542.28 1582.33 1565.3 1619.58 1565.3 1619.58 1692.68 1644.69 1692.68 1644.69 1565.3 1681.94 1565.3 1681.94 1542.28 1582.33 1542.28"/>
    <path class="st0" d="M1099.55,1858.05c-1.78,21.93-10.37,33.05-25.53,33.05-8.87,0-15.69-4.33-20.26-12.86-4.61-8.58-6.94-22.72-6.94-42.02s2.3-33.67,6.84-42.33c4.51-8.6,11.36-12.97,20.36-12.97,15.02,0,23.54,10.98,25.33,32.63l.02.25h25.11l-.02-.29c-1.39-18.3-6.56-32.22-15.37-41.38-8.83-9.17-20.83-13.82-35.68-13.82-17.43,0-30.69,6.57-39.41,19.53-8.7,12.92-13.11,32.56-13.11,58.38s4.43,45.21,13.16,58.06c8.75,12.89,22.06,19.42,39.56,19.42,14.85,0,26.86-4.72,35.68-14.03,8.81-9.3,13.98-23.29,15.37-41.58l.02-.29h-25.11l-.02.25Z"/>
    <polygon class="st0" points="1175.62 1760.81 1150.51 1760.81 1150.51 1911.21 1225.78 1911.21 1225.78 1888.18 1175.62 1888.18 1175.62 1760.81"/>
    <path class="st0" d="M1316.97,1871.81c0,5.85-2,10.51-5.94,13.84-3.95,3.34-9.64,5.04-16.89,5.04s-12.73-1.73-16.68-5.14c-3.94-3.4-5.94-8.02-5.94-13.74v-111h-25.11v111.83c0,12.51,4.27,22.6,12.69,29.97,8.4,7.36,20.19,11.1,35.04,11.1s26.84-3.73,35.25-11.1c8.42-7.37,12.69-17.46,12.69-29.97v-111.83h-25.11v111Z"/>
    <path class="st0" d="M1442.93,1831.87c6.67-1.45,12.14-5,16.27-10.58,4.39-5.91,6.61-13.29,6.61-21.91,0-11.12-3.77-20.43-11.22-27.67-7.45-7.23-18.82-10.9-33.8-10.9h-47.1v150.4h49.18c15.27,0,26.82-3.95,34.33-11.74,7.51-7.79,11.32-18.28,11.32-31.2,0-10-2.33-18.25-6.92-24.51-4.37-5.96-10.64-9.95-18.66-11.89ZM1398.79,1843.15h20.95c7.79,0,13.6,2.14,17.28,6.36,3.68,4.23,5.55,10.19,5.55,17.72,0,14.87-7.89,22.41-23.45,22.41h-20.33v-46.49ZM1417.66,1822.83h-18.87v-40.66h18.46c15.01,0,22.62,6.7,22.62,19.91s-7.47,20.75-22.2,20.75Z"/>
    <g>
      <path class="st0" d="M1004.76,1542.3h-33.3l-39.8,150.04-.09.34h25.33l23.98-95.52c2.9-12.42,5.34-23.4,7.24-32.68l7.42,32.69,24.35,95.31.05.21h25.96l-41.09-150.18-.06-.2Z"/>
      <polygon class="st0" points="986.93 1673.53 988.61 1673.53 1001.42 1656.1 1001.42 1654.42 988.61 1636.98 986.93 1636.98 974.11 1654.42 974.11 1656.1 986.93 1673.53"/>
    </g>
    <g>
      <path class="st0" d="M1397.7,1542.3h-33.3l-39.8,150.04-.09.34h25.33l23.98-95.52c2.9-12.42,5.34-23.4,7.24-32.68l7.42,32.69,24.35,95.31.05.21h25.96l-41.09-150.18-.06-.2Z"/>
      <polygon class="st0" points="1379.86 1673.53 1381.55 1673.53 1394.36 1656.1 1394.36 1654.42 1381.55 1636.98 1379.86 1636.98 1367.05 1654.42 1367.05 1656.1 1379.86 1673.53"/>
    </g>
  </g>
  <g>
    <path class="st0" d="M1388.93,799.94c5.42,0,8.68,3.8,8.68,9.76,0,14.64-15.72,28.2-15.72,63.44,13.01-36.87,38.5-54.22,38.5-74.29,0-9.76-6.51-16.27-17.35-16.27-12.47,0-21.15,9.22-23.32,23.32,3.25-4.34,6.51-5.96,9.22-5.96Z"/>
    <path class="st0" d="M1177.45,769.03c1.63,10.84,8.68,17.35,21.69,17.35,11.39,0,23.32-3.8,43.92-10.3-.54,10.3-11.39,16.27-23.32,16.27l-3.8-5.42-2.17,4.34-5.42-1.63,3.8,11.93c3.8,2.71,7.59,4.88,15.18,4.88,16.81,0,27.65-10.3,29.28-23.32,3.8,4.34,4.88,11.93,2.17,18.44,10.3-3.8,18.44-13.01,16.81-24.4,3.8.54,4.34,6.51,4.34,9.76,0,16.27-13.56,23.86-47.18,26.03-34.7,2.17-53.14,19.52-53.14,49.89,0,18.98,7.59,37.96,19.52,49.34,1.08-14.1,5.42-24.94,11.93-30.37,11.39,18.44,31.45,28.2,52.06,28.2,16.81,0,33.08-6.51,47.72-6.51s27.11,6.51,35.79,18.44c4.34-18.44,1.63-37.41-6.51-51.51,5.96,0,11.93,4.34,17.35,12.47,5.42-15.18,8.13-27.65,8.13-44.46,0-32.53-9.76-63.98-23.86-79.71,5.96,2.17,11.93,7.05,14.1,11.39,1.63-21.69-7.59-37.41-22.23-39.04,3.8-4.34,6.51-10.3,5.96-17.89-9.22,2.71-16.27,2.71-23.32,1.08,4.34-5.42,5.42-12.47,2.17-17.35,0,0-8.13,6.51-27.11,6.51-37.96,0-55.85,5.42-63.98,21.69-10.3,0-25.49,5.96-38.5,14.64,1.08,17.89,7.59,26.57,18.44,28.2l4.88,4.34,1.63-5.96c5.42-2.17,8.68-4.34,16.27-4.34,7.05,0,10.84,2.17,12.47,7.05-7.05,2.17-26.57,7.05-41.75,7.05-9.76,0-18.44-2.17-23.32-7.05ZM1221.38,860.67l-8.68-17.35,8.68-7.05,8.68,7.05-8.68,17.35ZM1243.07,888.87l-10.3-16.27,7.59-9.76,10.3,8.68-7.59,17.35ZM1256.62,855.25l-13.56-14.1,5.96-9.76,10.84,4.88-3.25,18.98ZM1305.42,847.66v-14.64h14.64l7.05,22.77-21.69-8.13ZM1323.86,774.45l10.3,20.06-22.23-5.96-1.08-12.47,13.01-1.63ZM1296.75,799.94l11.93-1.08,8.13,20.06-20.06-7.05v-11.93ZM1271.26,867.18l3.25-13.56,13.01,3.8,3.25,25.49-19.52-15.73ZM1291.33,842.78l-19.52-10.3,2.17-13.01h11.93l5.42,23.32ZM1258.79,722.94l21.15,5.42-21.15,11.39-14.64-7.59,14.64-9.22Z"/>
    <path class="st0" d="M1447.49,885.61c-17.89,0-34.16,11.39-39.58,27.65,11.39-52.6,80.79-78.63,80.79-137.73,0-29.28-17.89-50.43-45.01-50.43-21.69,0-40.67,14.64-46.09,36.87,9.22-4.34,18.98-7.59,27.11-7.59,14.1,0,22.77,9.22,22.77,24.94,0,41.21-63.98,72.12-63.98,138.27,0,54.77,42.84,72.66,42.84,107.36,0,16.27-9.22,27.65-23.32,27.65-28.2,0-36.87-47.72-40.13-63.98-3.25-16.81-15.18-72.66-53.68-72.66-14.64,0-28.2,7.59-46.63,7.59s-35.25-7.59-49.89-19.52v8.13l-.54,28.74c-11.93-7.05-29.82-24.94-36.33-38.5-6.51,7.05-18.44,21.15-41.21,21.15-24.94,0-32.53-17.35-46.63-17.35-10.3,0-17.35,9.22-17.35,21.15v4.88c3.25-4.34,7.59-6.51,12.47-6.51,3.8,0,7.05,1.08,10.3,3.25-11.93,0-20.06,7.59-20.06,19.52,0,9.76,4.34,17.35,9.76,22.23,1.63-10.3,7.05-17.89,16.27-18.44-3.25,2.17-5.96,9.22-5.96,14.64,0,11.93,9.22,19.52,23.86,21.69-.54-3.25-1.08-5.42-1.08-8.13,0-9.76,6.51-18.44,17.89-18.44,18.44,0,30.37-1.08,40.13-3.8-3.25,2.71-4.88,7.59-4.88,12.47,0,2.71,1.08,6.51,2.17,8.13,4.34-5.42,9.76-8.13,17.35-8.13,14.64,0,21.69,10.84,47.18,10.84-.54-1.08-.54-2.71-.54-4.34,0-7.05,5.42-13.01,17.35-13.01,13.01,0,20.61,7.59,20.61,16.81,0,10.84-10.84,17.35-29.28,17.35h-47.72c-25.49,0-43.92,12.47-46.63,28.74,4.34-2.17,11.93-3.25,19.52-3.25-8.68,5.42-13.01,14.64-13.01,24.4,0,5.96,1.63,15.18,5.96,19.52,2.17-5.42,7.05-9.22,14.1-9.22,9.22,0,15.18,6.51,15.18,17.35,0,11.39-5.96,17.89-15.72,17.89-20.06,0-39.04-27.11-65.61-27.11-22.23,0-30.91,21.15-30.91,21.15,5.42-.54,10.84-.54,14.1,0-10.84,3.8-20.6,14.64-20.6,26.57,0,2.17.54,6.51,2.17,10.84,4.34-10.3,13.01-15.18,21.69-15.18-5.42,2.71-8.68,10.3-8.68,17.35,0,10.3,5.96,20.61,22.23,27.11-1.63-2.71-1.63-7.59-1.63-11.39,0-13.56,7.59-22.23,18.98-22.23,9.76,0,16.81,8.68,16.81,20.61h98.15c-6.51-10.84-10.84-23.86-10.84-37.41,0-31.99,22.77-56.39,53.68-56.39-16.81,10.3-26.57,35.79-26.57,60.19,0,22.77,8.68,43.38,21.15,53.14,0-9.76,5.96-17.35,16.81-17.35,9.22,0,17.35,7.59,17.35,17.89,0,10.84-8.13,18.98-16.81,18.98-9.22,0-18.44-7.59-29.82-7.59-13.01,0-24.4,9.76-24.4,25.49,0,5.42,1.08,12.47,4.34,17.89,1.08-9.76,5.96-16.81,12.47-16.81-3.25,4.88-4.88,11.39-4.88,16.81,0,9.76,4.88,19.52,14.1,25.49-1.08-10.84,2.71-20.06,10.3-26.57-1.63,18.98,10.84,30.91,28.74,34.7-2.17-4.88-2.71-9.76-2.71-13.56,0-14.64,8.13-24.4,21.69-24.4,4.34,0,9.22,1.08,10.84,4.34,21.15-22.77,41.75-54.77,55.31-84.59l-2.71-1.63c-3.25.54-8.13,2.17-13.56,2.17-17.89,0-28.74-11.93-28.74-32.53,0-12.47,3.8-31.45,10.84-42.84,13.01,13.56,27.11,20.61,42.84,20.61,28.2,0,47.72-21.15,47.72-52.6,0-43.38-36.33-59.1-36.33-88.39,0-14.64,9.22-23.86,22.77-23.86s18.98,9.22,18.98,19.52c0,5.96-2.71,13.56-5.96,20.61,18.98-5.96,30.91-19.52,30.91-36.87s-13.56-30.37-32.53-30.37Z"/>
    <path class="st0" d="M1091.24,746.8c-11.39,7.59-14.64,19.52-13.01,30.91,5.96-5.96,11.39-8.68,17.89-8.68-4.88,3.25-7.59,11.39-7.59,17.89,0,5.42,2.17,11.39,5.42,14.1,1.54-6.48,4.67-11.38,8.68-14.39v49.64l-18.44,30.91,18.98,33.62h12.47l20.06-33.62-18.44-31.99v-51.52c10.23,2.65,15.73,15.02,15.73,34.16,0,31.99,14.1,56.94,37.96,71.03-8.68-26.57-2.71-50.43,10.3-67.78-20.61-21.15-37.96-57.48-41.21-93.27-5.13-2.33-14.68-3.86-22.77-4.24v-57.03h10.3v8.13h36.87v13.56h11.39v-96.52h-11.39v14.64h-36.87v8.13h-10.3v-28.2h-15.73v138.41c-17.41,3.78-26.83,15.97-25.49,30.77,3.8-5.42,8.68-8.68,15.18-8.68ZM1128.11,639.43l11.93-22.77h7.59l11.93,22.77v2.17l-11.93,22.77h-7.59l-11.93-22.77v-2.17ZM1120.52,867.18l-10.84,19.52-11.93-19.52,11.93-18.44,10.84,18.44Z"/>
  </g>
</svg>
