<?xml version="1.0" encoding="UTF-8"?>
<svg id="Layer_1" xmlns="http://www.w3.org/2000/svg" version="1.1" viewBox="0 0 2500 2500">
  <defs>
    <style>
      .st0 {
        fill: #231f20;
      }
    </style>
  </defs>
  <g>
    <polygon class="st0" points="404.2 1569.21 439.56 1569.21 439.56 1690.1 463.39 1690.1 463.39 1569.21 498.74 1569.21 498.74 1547.35 404.2 1547.35 404.2 1569.21"/>
    <polygon class="st0" points="587.33 1605.03 543.41 1605.03 543.41 1547.35 519.58 1547.35 519.58 1690.1 543.41 1690.1 543.41 1626.89 587.33 1626.89 587.33 1690.1 611.16 1690.1 611.16 1547.35 587.33 1547.35 587.33 1605.03"/>
    <polygon class="st0" points="665.35 1626.69 712.76 1626.69 712.76 1605.43 665.35 1605.43 665.35 1569.21 716.31 1569.21 716.31 1547.35 641.52 1547.35 641.52 1690.1 717.7 1690.1 717.7 1668.25 665.35 1668.25 665.35 1626.69"/>
    <path class="st0" d="M882.8,1610.57c3.96-6.2,5.97-13.69,5.97-22.27,0-12.52-3.68-22.59-10.94-29.91-7.26-7.33-18.55-11.04-33.57-11.04h-45.1v142.75h23.83v-122.48h18.51c8.06,0,13.91,1.7,17.4,5.06,3.49,3.36,5.25,8.61,5.25,15.62,0,7.4-1.7,12.82-5.06,16.11-3.36,3.3-9.22,5.03-17.4,5.16h-3.1l-.94,1.41,27.11,78.94.06.18h25.44l-23.74-66.67c6.89-2.4,12.37-6.72,16.28-12.86Z"/>
    <path class="st0" d="M1099.72,1639c-1.18,3.88-2.15,8.13-2.91,12.66-.76-4.53-1.73-8.84-2.91-12.85l-26.13-91.45h-31.86v142.75h21.06v-93.5c0-9.06-.14-16.25-.4-21.44,1.55,6.51,3.37,13.66,5.42,21.31l25.68,93.44.05.19h16.99l25.73-94.02c2.26-8,3.93-14.67,4.99-19.89-.24,5.31-.36,12.22-.36,20.61v93.3h21.46v-142.75h-30.48l-26.33,91.65Z"/>
    <path class="st0" d="M1231.79,1547.35h-44.9v142.75h23.83v-57.09h21.27c13.7,0,24.56-3.81,32.28-11.33,7.72-7.52,11.63-18.08,11.63-31.4s-3.91-24.07-11.63-31.6c-7.72-7.52-18.65-11.33-32.48-11.33ZM1210.71,1568.02h18.7c7.14,0,12.63,1.87,16.31,5.55,3.69,3.69,5.55,9.17,5.55,16.31s-1.87,12.86-5.56,16.61c-3.68,3.75-9.1,5.65-16.11,5.65h-18.9v-44.12Z"/>
    <path class="st0" d="M1481.95,1629.79c0,10.23.24,18.43.71,24.44-1.87-6.67-4.26-13.06-7.13-19.02l-41.09-87.71-.07-.15h-25.51v142.75h22.05v-87.77c0-7.37-.14-13.37-.42-17.91,1.98,6.71,3.88,11.83,5.65,15.25l42.15,90.43h25.51v-142.75h-21.85v82.44Z"/>
    <polygon class="st0" points="1524.56 1569.21 1559.92 1569.21 1559.92 1690.1 1583.75 1690.1 1583.75 1569.21 1619.11 1569.21 1619.11 1547.35 1524.56 1547.35 1524.56 1569.21"/>
    <path class="st0" d="M1745.6,1639.64c-1.69,20.81-9.85,31.37-24.24,31.37-8.42,0-14.89-4.11-19.23-12.21-4.37-8.15-6.59-21.57-6.59-39.88s2.18-31.96,6.49-40.18c4.28-8.17,10.78-12.31,19.33-12.31,14.26,0,22.35,10.42,24.04,30.97l.02.24h23.83l-.02-.28c-1.32-17.36-6.23-30.58-14.59-39.27-8.38-8.7-19.77-13.12-33.87-13.12-16.54,0-29.13,6.24-37.4,18.54-8.25,12.27-12.44,30.91-12.44,55.41s4.2,42.91,12.49,55.11c8.31,12.23,20.94,18.44,37.55,18.44,14.1,0,25.49-4.48,33.87-13.32,8.36-8.82,13.27-22.1,14.59-39.47l.02-.28h-23.83l-.02.24Z"/>
    <polygon class="st0" points="1817.81 1547.35 1793.98 1547.35 1793.98 1690.1 1865.41 1690.1 1865.41 1668.25 1817.81 1668.25 1817.81 1547.35"/>
    <path class="st0" d="M1951.97,1652.7c0,5.56-1.9,9.98-5.64,13.14-3.75,3.17-9.15,4.78-16.03,4.78s-12.08-1.64-15.83-4.88c-3.74-3.22-5.64-7.61-5.64-13.04v-105.35h-23.83v106.14c0,11.88,4.05,21.45,12.04,28.44,7.98,6.99,19.17,10.53,33.26,10.53s25.48-3.54,33.46-10.53c7.99-7,12.04-16.57,12.04-28.44v-106.14h-23.83v105.35Z"/>
    <path class="st0" d="M2089.24,1626.08c-4.15-5.65-10.1-9.45-17.71-11.29,6.33-1.37,11.52-4.75,15.44-10.04,4.16-5.61,6.27-12.61,6.27-20.8,0-10.56-3.58-19.39-10.65-26.26-7.07-6.87-17.86-10.35-32.08-10.35h-44.71v142.75h46.68c14.49,0,25.46-3.75,32.58-11.14,7.13-7.39,10.74-17.35,10.74-29.61,0-9.49-2.21-17.32-6.57-23.27ZM2029.63,1625.5h19.89c7.39,0,12.91,2.03,16.4,6.03,3.5,4.02,5.27,9.67,5.27,16.82,0,14.12-7.49,21.27-22.26,21.27h-19.3v-44.12ZM2047.54,1606.22h-17.91v-38.59h17.52c14.25,0,21.47,6.36,21.47,18.9s-7.09,19.69-21.07,19.69Z"/>
    <g>
      <path class="st0" d="M976.37,1547.35h-31.61l-37.78,142.42-.09.33h24.05l22.77-90.68c2.76-11.79,5.07-22.22,6.87-31.02l7.04,31.03,23.11,90.47.05.2h24.64l-39.01-142.56-.05-.19Z"/>
      <polygon class="st0" points="959.44 1671.93 961.04 1671.93 973.2 1655.38 973.2 1653.78 961.04 1637.23 959.44 1637.23 947.28 1653.78 947.28 1655.38 959.44 1671.93"/>
    </g>
    <g>
      <path class="st0" d="M1349.32,1547.35h-31.61l-37.78,142.42-.09.33h24.05l22.77-90.68c2.76-11.79,5.07-22.22,6.87-31.02l7.04,31.03,23.11,90.47.05.2h24.64l-39.01-142.56-.05-.19Z"/>
      <polygon class="st0" points="1332.39 1671.93 1333.99 1671.93 1346.15 1655.38 1346.15 1653.78 1333.99 1637.23 1332.39 1637.23 1320.23 1653.78 1320.23 1655.38 1332.39 1671.93"/>
    </g>
  </g>
  <g>
    <path class="st0" d="M1388.93,1021.17c5.42,0,8.68,3.8,8.68,9.76,0,14.64-15.72,28.2-15.72,63.44,13.01-36.87,38.5-54.22,38.5-74.29,0-9.76-6.51-16.27-17.35-16.27-12.47,0-21.15,9.22-23.32,23.32,3.25-4.34,6.51-5.96,9.22-5.96Z"/>
    <path class="st0" d="M1177.45,990.27c1.63,10.84,8.68,17.35,21.69,17.35,11.39,0,23.32-3.8,43.92-10.3-.54,10.3-11.39,16.27-23.32,16.27l-3.8-5.42-2.17,4.34-5.42-1.63,3.8,11.93c3.8,2.71,7.59,4.88,15.18,4.88,16.81,0,27.65-10.3,29.28-23.32,3.8,4.34,4.88,11.93,2.17,18.44,10.3-3.8,18.44-13.01,16.81-24.4,3.8.54,4.34,6.51,4.34,9.76,0,16.27-13.56,23.86-47.18,26.03-34.7,2.17-53.14,19.52-53.14,49.89,0,18.98,7.59,37.96,19.52,49.34,1.08-14.1,5.42-24.94,11.93-30.37,11.39,18.44,31.45,28.2,52.06,28.2,16.81,0,33.08-6.51,47.72-6.51s27.11,6.51,35.79,18.44c4.34-18.44,1.63-37.41-6.51-51.51,5.96,0,11.93,4.34,17.35,12.47,5.42-15.18,8.13-27.65,8.13-44.46,0-32.53-9.76-63.98-23.86-79.71,5.96,2.17,11.93,7.05,14.1,11.39,1.63-21.69-7.59-37.41-22.23-39.04,3.8-4.34,6.51-10.3,5.96-17.89-9.22,2.71-16.27,2.71-23.32,1.08,4.34-5.42,5.42-12.47,2.17-17.35,0,0-8.13,6.51-27.11,6.51-37.96,0-55.85,5.42-63.98,21.69-10.3,0-25.49,5.96-38.5,14.64,1.08,17.89,7.59,26.57,18.44,28.2l4.88,4.34,1.63-5.96c5.42-2.17,8.68-4.34,16.27-4.34,7.05,0,10.84,2.17,12.47,7.05-7.05,2.17-26.57,7.05-41.75,7.05-9.76,0-18.44-2.17-23.32-7.05ZM1221.38,1081.9l-8.68-17.35,8.68-7.05,8.68,7.05-8.68,17.35ZM1243.07,1110.1l-10.3-16.27,7.59-9.76,10.3,8.68-7.59,17.35ZM1256.62,1076.48l-13.56-14.1,5.96-9.76,10.84,4.88-3.25,18.98ZM1305.42,1068.89v-14.64h14.64l7.05,22.77-21.69-8.13ZM1323.86,995.69l10.3,20.06-22.23-5.96-1.08-12.47,13.01-1.63ZM1296.75,1021.17l11.93-1.08,8.13,20.06-20.06-7.05v-11.93ZM1271.26,1088.41l3.25-13.56,13.01,3.8,3.25,25.49-19.52-15.73ZM1291.33,1064.01l-19.52-10.3,2.17-13.01h11.93l5.42,23.32ZM1258.79,944.17l21.15,5.42-21.15,11.39-14.64-7.59,14.64-9.22Z"/>
    <path class="st0" d="M1447.49,1106.85c-17.89,0-34.16,11.39-39.58,27.65,11.39-52.6,80.79-78.63,80.79-137.73,0-29.28-17.89-50.43-45.01-50.43-21.69,0-40.67,14.64-46.09,36.87,9.22-4.34,18.98-7.59,27.11-7.59,14.1,0,22.77,9.22,22.77,24.94,0,41.21-63.98,72.12-63.98,138.27,0,54.77,42.84,72.66,42.84,107.36,0,16.27-9.22,27.65-23.32,27.65-28.2,0-36.87-47.72-40.13-63.98-3.25-16.81-15.18-72.66-53.68-72.66-14.64,0-28.2,7.59-46.63,7.59s-35.25-7.59-49.89-19.52v8.13l-.54,28.74c-11.93-7.05-29.82-24.94-36.33-38.5-6.51,7.05-18.44,21.15-41.21,21.15-24.94,0-32.53-17.35-46.63-17.35-10.3,0-17.35,9.22-17.35,21.15v4.88c3.25-4.34,7.59-6.51,12.47-6.51,3.8,0,7.05,1.08,10.3,3.25-11.93,0-20.06,7.59-20.06,19.52,0,9.76,4.34,17.35,9.76,22.23,1.63-10.3,7.05-17.89,16.27-18.44-3.25,2.17-5.96,9.22-5.96,14.64,0,11.93,9.22,19.52,23.86,21.69-.54-3.25-1.08-5.42-1.08-8.13,0-9.76,6.51-18.44,17.89-18.44,18.44,0,30.37-1.08,40.13-3.8-3.25,2.71-4.88,7.59-4.88,12.47,0,2.71,1.08,6.51,2.17,8.13,4.34-5.42,9.76-8.13,17.35-8.13,14.64,0,21.69,10.84,47.18,10.84-.54-1.08-.54-2.71-.54-4.34,0-7.05,5.42-13.01,17.35-13.01,13.01,0,20.61,7.59,20.61,16.81,0,10.84-10.84,17.35-29.28,17.35h-47.72c-25.49,0-43.92,12.47-46.63,28.74,4.34-2.17,11.93-3.25,19.52-3.25-8.68,5.42-13.01,14.64-13.01,24.4,0,5.96,1.63,15.18,5.96,19.52,2.17-5.42,7.05-9.22,14.1-9.22,9.22,0,15.18,6.51,15.18,17.35,0,11.39-5.96,17.89-15.72,17.89-20.06,0-39.04-27.11-65.61-27.11-22.23,0-30.91,21.15-30.91,21.15,5.42-.54,10.84-.54,14.1,0-10.84,3.8-20.6,14.64-20.6,26.57,0,2.17.54,6.51,2.17,10.84,4.34-10.3,13.01-15.18,21.69-15.18-5.42,2.71-8.68,10.3-8.68,17.35,0,10.3,5.96,20.61,22.23,27.11-1.63-2.71-1.63-7.59-1.63-11.39,0-13.56,7.59-22.23,18.98-22.23,9.76,0,16.81,8.68,16.81,20.61h98.15c-6.51-10.84-10.84-23.86-10.84-37.41,0-31.99,22.77-56.39,53.68-56.39-16.81,10.3-26.57,35.79-26.57,60.19,0,22.77,8.68,43.38,21.15,53.14,0-9.76,5.96-17.35,16.81-17.35,9.22,0,17.35,7.59,17.35,17.89,0,10.84-8.13,18.98-16.81,18.98-9.22,0-18.44-7.59-29.82-7.59-13.01,0-24.4,9.76-24.4,25.49,0,5.42,1.08,12.47,4.34,17.89,1.08-9.76,5.96-16.81,12.47-16.81-3.25,4.88-4.88,11.39-4.88,16.81,0,9.76,4.88,19.52,14.1,25.49-1.08-10.84,2.71-20.06,10.3-26.57-1.63,18.98,10.84,30.91,28.74,34.7-2.17-4.88-2.71-9.76-2.71-13.56,0-14.64,8.13-24.4,21.69-24.4,4.34,0,9.22,1.08,10.84,4.34,21.15-22.77,41.75-54.77,55.31-84.59l-2.71-1.63c-3.25.54-8.13,2.17-13.56,2.17-17.89,0-28.74-11.93-28.74-32.53,0-12.47,3.8-31.45,10.84-42.84,13.01,13.56,27.11,20.61,42.84,20.61,28.2,0,47.72-21.15,47.72-52.6,0-43.38-36.33-59.1-36.33-88.39,0-14.64,9.22-23.86,22.77-23.86s18.98,9.22,18.98,19.52c0,5.96-2.71,13.56-5.96,20.61,18.98-5.96,30.91-19.52,30.91-36.87s-13.56-30.37-32.53-30.37Z"/>
    <path class="st0" d="M1091.24,968.03c-11.39,7.59-14.64,19.52-13.01,30.91,5.96-5.96,11.39-8.68,17.89-8.68-4.88,3.25-7.59,11.39-7.59,17.89,0,5.42,2.17,11.39,5.42,14.1,1.54-6.48,4.67-11.38,8.68-14.39v49.64l-18.44,30.91,18.98,33.62h12.47l20.06-33.62-18.44-31.99v-51.52c10.23,2.65,15.73,15.02,15.73,34.16,0,31.99,14.1,56.94,37.96,71.03-8.68-26.57-2.71-50.43,10.3-67.78-20.61-21.15-37.96-57.48-41.21-93.27-5.13-2.33-14.68-3.86-22.77-4.24v-57.03h10.3v8.13h36.87v13.56h11.39v-96.52h-11.39v14.64h-36.87v8.13h-10.3v-28.2h-15.73v138.41c-17.41,3.78-26.83,15.97-25.49,30.77,3.8-5.42,8.68-8.68,15.18-8.68ZM1128.11,860.67l11.93-22.77h7.59l11.93,22.77v2.17l-11.93,22.77h-7.59l-11.93-22.77v-2.17ZM1120.52,1088.41l-10.84,19.52-11.93-19.52,11.93-18.44,10.84,18.44Z"/>
  </g>
</svg>
