<?xml version="1.0" encoding="UTF-8"?>
<svg id="Layer_1" xmlns="http://www.w3.org/2000/svg" version="1.1" viewBox="0 0 2500 2500">
  <defs>
    <style>
      .st0 {
        fill: #231f20;
      }
    </style>
  </defs>
  <path class="st0" d="M1244.27,1095.43l-1.49,17.5c26.94-2.83,86.44-4.37,102.72,21.4,11.06,17.5-3.8,47.58-17.84,60.16-33.31,29.95-87.52,35.6-130.27,39.3-1.97.2-12.69.67-11.8,4.17,53.53,48.18,104.01,99.26,166.84,136,5.29,3.1,24.83,10.5,26.05,15.14.61,1.48-.27,2.76-.54,4.11-1.9,8.95-7.74,8.14-16.08,6.93-18.86-2.69-42.54-18.5-58.08-29.27-46.74-32.37-85.76-74.29-128.91-110.63l-58.01,143.8c-9.77,8.01-17.44-17.63-12.76-25.1l52.99-135.33c-10.92-12.31-34.26-12.31-39.9-28.2-2.17-6.12-3.39-9.22,3.12-11.91,14.45-6.12,35.82,11.17,52.78,4.44l26.8-60.36c1.49-4.44-6.52-.54-8.89,0-6.45,1.55-30.74,8.21-34.67,11.31-3.59,2.83,3.32,23.75-21.24,17.5-7.12-1.82-16.96-16.42-15.33-23.15,2.85-11.71,43.83-23.62,55.16-26.98,8.82-2.62,31.75-5.65,37.45-8.95,8.28-4.71,7.8-33.65,32.02-21.8l-.14-.07ZM1326.51,1146.91c-30.53-13.73-65.61-12.79-98.04-6.46l-30.4,68.23c30.67.2,63.91-6.73,91.52-19.99,15.88-7.67,39.49-21.53,36.84-41.79h.07Z"/>
  <path class="st0" d="M824.91,1411.64c-13.98-14.47-3.66-44.35,3.26-64.53.75-2.22,1.49-4.37,2.17-6.39,20.15-60.56,51.36-119.17,81.55-175.84,4.89-9.08,9.84-18.51,14.72-27.72l3.87-7.33-145.13,14.8c-2.31-.81-6.78-5.65-9.3-12.05-1.56-4.1-1.56-6.86-.81-7.81.47-.47,4.27-3.23,27.55-5.99,14.66-1.75,32.09-2.89,44.85-3.77,7.94-.54,14.18-.94,17.78-1.35,22.93-2.56,47.83-6.33,74.23-10.3,48.65-7.2,98.85-14.74,139.83-15.01,1.97,0,4,.47,6.18,1.01,1.56.34,3.12.74,4.75.94.54,7.4-2.31,10.77-11.06,14.47-19.34,8.14-43.96,11.24-67.78,14.2-18.39,2.29-37.38,4.71-53.67,9.42l-1.76.54-.88,1.55c-32.43,57.33-69.68,126.11-99.67,200.8-1.09,2.62-2.99,8.28-5.7,16.08-5.29,15.48-18.66,54.37-24.97,64.2v.07Z"/>
  <path class="st0" d="M1557.12,1406.32c-14.99,0-27.14-5.25-36.09-15.54-25.17-29-18.93-73.15,19.13-134.92,12.55-20.32,37.59-54.1,67.03-82.64,33.58-32.5,64.12-49.66,88.13-49.66,2.1,0,4.21.13,6.24.4,10.31,1.35,17.1,5.65,20.7,13.19,3.73,7.81,3.93,19.04.61,32.57-2.72,11.04-7.8,23.28-13.71,32.57-9.97,15.88-50.27,56.66-66.9,65.95-2.11,1.14-4.21,1.75-6.18,1.75-3.73,0-7.26-2.15-9.5-5.79-2.37-3.84-2.78-8.41-1.15-12.11,6.85-6.73,14.25-13.12,22.05-19.85,25.38-21.94,51.63-44.55,58.08-79.41l.88-4.84-4.95-.4c-1.15-.07-2.38-.13-3.6-.13-17.5,0-32.9,9.89-47.22,19.99-43.9,31.09-100.14,102.82-117.92,150.53-8.55,23.01-8.96,41.92-.95,53.23,3.59,5.11,10.72,11.17,24.36,11.17,7.13,0,15.4-1.62,24.7-4.91,18.32-6.39,38.81-21.13,56.99-34.12,15.81-11.31,30.8-22.07,40.91-24.9,2.58-.74,5.29-1.08,8.62-1.08-.68,9.22-7.73,18.24-15.4,26.65-9.7,10.7-28.16,26.98-50.75,40.44-16.62,9.96-41.25,21.8-64.12,21.8v.07Z"/>
  <path class="st0" d="M1002.53,1362.71c-7.33,1.95-15.54,4.58-19,11.31-5.16,10.03,5.43,22.75,16.69,22.54,11.26-.2,20.69-9.62,24.56-20.19,1.63-4.58,2.44-9.96-.27-14.06-2.71-4.11-9.91-4.98-12.14-.61l-9.84,1.01Z"/>
  <path class="st0" d="M1451.01,1368.43c-7.4-1.88-15.81-3.56-22.12.61-9.43,6.19-6.51,22.47,3.39,27.79,9.91,5.38,22.8,1.68,31.35-5.65,3.73-3.16,7.06-7.54,6.72-12.38-.34-4.85-6.18-9.15-10.25-6.46l-9.09-3.9Z"/>
</svg>
