<?xml version="1.0" encoding="UTF-8"?>
<svg id="Layer_1" xmlns="http://www.w3.org/2000/svg" version="1.1" viewBox="0 0 2500 2500">
  <defs>
    <style>
      .st0 {
        fill: #231f20;
      }
    </style>
  </defs>
  <polygon class="st0" points="1131.91 1118.01 1154.83 1118.01 1154.83 1001.73 1188.84 1001.73 1188.84 980.71 1097.9 980.71 1097.9 1001.73 1131.91 1001.73 1131.91 1118.01"/>
  <polygon class="st0" points="1231.8 1057.21 1274.05 1057.21 1274.05 1118.01 1296.97 1118.01 1296.97 980.71 1274.05 980.71 1274.05 1036.19 1231.8 1036.19 1231.8 980.71 1208.88 980.71 1208.88 1118.01 1231.8 1118.01 1231.8 1057.21"/>
  <polygon class="st0" points="1399.44 1096.99 1349.09 1096.99 1349.09 1057.02 1394.69 1057.02 1394.69 1036.57 1349.09 1036.57 1349.09 1001.73 1398.11 1001.73 1398.11 980.71 1326.17 980.71 1326.17 1118.01 1399.44 1118.01 1399.44 1096.99"/>
  <path class="st0" d="M942.21,1241.02c3.81-5.97,5.74-13.17,5.74-21.42,0-12.04-3.54-21.72-10.52-28.77-6.98-7.05-17.85-10.62-32.29-10.62h-43.38v137.3h22.92v-117.8h17.8c7.75,0,13.38,1.64,16.74,4.87,3.35,3.23,5.05,8.28,5.05,15.02,0,7.12-1.64,12.33-4.87,15.5-3.23,3.17-8.87,4.84-16.73,4.96h-2.98l-.9,1.35,26.07,75.93.06.17h24.47l-22.83-64.13c6.63-2.31,11.89-6.47,15.66-12.37Z"/>
  <path class="st0" d="M1032.26,1180.39l-.05-.18h-30.4l-36.34,136.99-.08.31h23.13l21.9-87.21c2.65-11.34,4.87-21.37,6.61-29.84l6.77,29.85,22.23,87.02.05.19h23.7l-37.52-137.12Z"/>
  <path class="st0" d="M1185.2,1207.95c-.23,5.11-.35,11.75-.35,19.82v89.74h20.64v-137.3h-29.32l-25.32,88.15c-1.13,3.73-2.07,7.82-2.8,12.17-.73-4.35-1.67-8.5-2.8-12.36l-25.13-87.96h-30.65v137.3h20.26v-89.93c0-8.72-.13-15.63-.39-20.62,1.49,6.27,3.24,13.15,5.22,20.5l24.7,89.87.05.18h16.34l24.75-90.43c2.17-7.7,3.78-14.11,4.8-19.13Z"/>
  <path class="st0" d="M1257.6,1262.6h20.46c13.18,0,23.63-3.67,31.05-10.9,7.43-7.23,11.19-17.39,11.19-30.2s-3.76-23.15-11.19-30.39c-7.42-7.23-17.93-10.9-31.24-10.9h-43.19v137.3h22.92v-54.91ZM1257.6,1200.09h17.99c6.87,0,12.15,1.8,15.69,5.34,3.54,3.54,5.34,8.82,5.34,15.69s-1.8,12.37-5.34,15.97c-3.54,3.61-8.76,5.44-15.5,5.44h-18.18v-42.44Z"/>
  <path class="st0" d="M1375.74,1200.46l6.77,29.85,22.23,87.02.05.19h23.7l-37.52-137.12-.05-.18h-30.4l-36.34,136.99-.08.31h23.13l21.9-87.21c2.65-11.34,4.87-21.37,6.61-29.84Z"/>
  <path class="st0" d="M1518.48,1259.5c0,9.84.23,17.73.68,23.51-1.8-6.42-4.1-12.56-6.86-18.3l-39.52-84.36-.07-.14h-24.54v137.3h21.21v-84.42c0-7.09-.13-12.87-.4-17.22,1.91,6.45,3.73,11.38,5.44,14.67l40.54,86.97h24.54v-137.3h-21.02v79.29Z"/>
  <polygon class="st0" points="1559.46 1180.21 1559.46 1201.23 1593.48 1201.23 1593.48 1317.51 1616.4 1317.51 1616.4 1201.23 1650.41 1201.23 1650.41 1180.21 1559.46 1180.21"/>
  <path class="st0" d="M1118.73,1468.48c-1.63,20.02-9.47,30.17-23.31,30.17-8.1,0-14.32-3.95-18.49-11.74-4.2-7.84-6.34-20.74-6.34-38.36s2.1-30.74,6.24-38.64c4.11-7.85,10.37-11.84,18.59-11.84,13.71,0,21.49,10.02,23.12,29.79l.02.23h22.92l-.02-.27c-1.27-16.7-5.99-29.41-14.03-37.78-8.06-8.37-19.02-12.62-32.58-12.62-15.91,0-28.02,6-35.98,17.83-7.94,11.8-11.96,29.73-11.96,53.29s4.04,41.27,12.01,53.01c7.99,11.77,20.14,17.73,36.12,17.73,13.56,0,24.52-4.31,32.58-12.81,8.04-8.49,12.77-21.26,14.03-37.96l.02-.27h-22.92l-.02.23Z"/>
  <polygon class="st0" points="1188.18 1379.71 1165.26 1379.71 1165.26 1517.01 1233.97 1517.01 1233.97 1495.99 1188.18 1495.99 1188.18 1379.71"/>
  <path class="st0" d="M1317.22,1481.04c0,5.34-1.82,9.59-5.42,12.63-3.61,3.05-8.8,4.6-15.42,4.6s-11.62-1.58-15.23-4.69c-3.6-3.1-5.42-7.32-5.42-12.54v-101.33h-22.92v102.09c0,11.42,3.9,20.63,11.58,27.36,7.67,6.72,18.43,10.13,31.99,10.13s24.51-3.41,32.18-10.13c7.68-6.73,11.58-15.94,11.58-27.36v-102.09h-22.92v101.33Z"/>
  <path class="st0" d="M1432.21,1444.58c6.09-1.32,11.08-4.57,14.85-9.65,4-5.4,6.03-12.13,6.03-20,0-10.15-3.45-18.65-10.24-25.26-6.8-6.6-17.18-9.95-30.86-9.95h-43v137.3h44.9c13.94,0,24.48-3.61,31.34-10.72,6.85-7.11,10.33-16.69,10.33-28.48,0-9.13-2.13-16.66-6.32-22.38-3.99-5.44-9.72-9.09-17.04-10.85ZM1391.91,1454.88h19.13c7.11,0,12.42,1.95,15.77,5.8,3.36,3.86,5.07,9.3,5.07,16.18,0,13.58-7.2,20.46-21.41,20.46h-18.56v-42.44ZM1409.14,1436.33h-17.23v-37.12h16.85c13.7,0,20.65,6.12,20.65,18.18s-6.82,18.94-20.27,18.94Z"/>
  <polygon class="st0" points="1016.32 1300.03 1017.85 1300.03 1029.55 1284.11 1029.55 1282.58 1017.85 1266.66 1016.32 1266.66 1004.62 1282.58 1004.62 1284.11 1016.32 1300.03"/>
  <polygon class="st0" points="1375.03 1300.03 1376.57 1300.03 1388.27 1284.11 1388.27 1282.58 1376.57 1266.66 1375.03 1266.66 1363.33 1282.58 1363.33 1284.11 1375.03 1300.03"/>
</svg>
