<?xml version="1.0" encoding="UTF-8"?>
<svg id="Layer_1" xmlns="http://www.w3.org/2000/svg" version="1.1" viewBox="0 0 2500 2500">
  <defs>
    <style>
      .st0 {
        fill: #231f20;
      }
    </style>
  </defs>
  <path class="st0" d="M1381.63,694.28v51.06h-133.87v25.75h-35.65v-96.33h-52.97v885.03l-80.09,130.27v1.52l81.89,133.39v.27h47.23l81.89-133.66v-1.52l-77.94-127.21v-609.53h35.65v25.93h133.87v47.85h39.33v-332.82h-39.33ZM1208.07,1728.2l-23.43,38.22-23.7-38.4-22.9-37.07,22.9-37.16v-.18l23.7-38.58,23.43,38.31,22.9,37.52-22.9,37.34ZM1359.18,865.99v.09l-41.21,79.4h-24.24l-40.13-78.15v-10.25l40.13-77.97h24.24l41.21,79.4v7.49Z"/>
</svg>
