<?xml version="1.0" encoding="UTF-8"?>
<svg id="Layer_1" xmlns="http://www.w3.org/2000/svg" version="1.1" viewBox="280 960 1850 480">
  <defs>
    <style>
      .st0 {
        fill: #052E20;
      }
    </style>
  </defs>
  <path class="st0" d="M1617.18,1165.13c.8,3.45.2,6.64-.85,9.99-2.19,6.99-16.68,25.12-21.51,33.71-5.18,9.24-9.12,19.23-14.19,28.51,20.97.8,42.23.4,62.85,4.09.55,3.3.1,8.64-3.44,10.14-3.19,1.35-16.48,2.65-20.72,2.9-8.62.55-17.63-.25-26.3,0-6.18.15-12,1.55-18.83.25-3.04,11.89-8.22,24.72-2.74,36.66,16.24-1.6,22.46-24.62,39.3-22.32-.45,17.53-30.78,54.33-48.46,37.4-14.24-13.68-8.22-36.75-5.28-53.68-.25-.9-4.13-1.8-4.98-1.8-1.89.05-20.82,18.83-24.7,22.02-8.67,7.14-32.77,26.52-43.93,21.72-1-.4-3.73-3.45-4.63-4.54-12.35-14.88-1-28.26,3.29-43.45l-17.08,12.48c-8.52,7.59-36.26,37.6-45.37,38.8-12.3,1.7-13.55-16.93-15.64-17.08-18.28,14.33-47.36,36.9-57.13,1.3-14.05,8.54-40.79,21.67-55.03,8.49-3.19-2.95-5.48-11.24-8.42-10.99-1.59.15-15.99,9.39-19.22,11.09-22.81,11.84-47.41,26.17-73.96,24.52l-1.54,1.1c-18.23,35.26-26.1,74.81-42.18,110.71-20.87-2.85-7.22-33.66-2.79-46.49,9.61-27.61,23.36-53.98,33.77-81.3-7.97,6.69-24.45,23.47-35.36,16.38-1.25-.8-9.91-8.19-10.61-9.14-6.03-8.29,1.05-30.01,1.35-40.2-17.48,14.18-43.13,43.8-48.56,2l-2.59-.65c-4.13,7.49-22.46,23.97-30.93,23.77-10.31-.25-15.89-17.83-15.69-26.42-15.19,16.43-46.32,46.09-57.13,9.19-17.53,6.09-50.55,23.52-64.1,3.1-10.46-15.83.5-26.17,13.55-34.71,14.05-9.19,46.37-20.22,62.75-16.78,2.09.45,9.81,4.69,10.56,6.59,2.09,5.04.5,20.17-2.04,25.07-2.54,4.89-10.01,8.14-4.13,15.53,18.73-2.6,36.01-38.15,51.35-40.6,24.11-3.85,2.94,26.12,6.28,37.9,11.06-.25,34.51-46.59,52.29-31.31,3.54,7.99-5.58,21.47-3.73,29.96,14.05-7.49,27.24-29.91,42.08-34.11,37.15-10.54,4.73,42.35,3.49,54.83-.3,2.8.9,6.34,2.99,8.24,16.04-9.89,27.84-24.87,39.24-39.6,4.98-6.44,16.59-26.57,22.46-28.76,11.75-4.44,15.54,3.1,9.81,13.08,5.93-1.95,10.61-5.64,16.78-7.49,28.39-8.59,37.6,6.04,28.49,32.56,25.05-13.23,48.66-26.07,76.5-32.51,7.67-1.75,25.4-6.19,32.37-5.74,11.85.7,6.13,15.63,3.14,22.97-2.74,6.79-16.88,21.07-15.39,27.52.25,1.05,2.09,3.15,3.04,3.2,11.35-5.24,22.01-12.54,31.47-20.77,7.52-6.49,23.71-26.57,30.53-29.91,4.33-2.15,9.01-2.2,13.3-.1,4.43,6.99-12.15,27.72-14.25,34.71-.5,1.65.3,2.65,1.94,1.95,3.39-1.45,24.15-23.77,29.53-28.31,6.97-5.84,16.59-13.78,24.95-17.08,40.34-15.78,10.51,34.56,6.22,49.69-.35,1.15-2.24,3.34.95,2.25,5.28-1.75,17.88-11.39,22.86-15.23,27.19-20.92,55.43-52.43,77.54-78.85,7.42-8.89,11.11-22.57,26.1-16.23l.3-.2ZM984.77,1243.93c-16.33-.1-37.65,6.99-50.8,16.78-2.24,1.7-5.88,3.6-5.58,6.89,14.79,2.55,33.27-6.14,45.82-13.93,1.35-.85,12.9-7.74,10.61-9.74h-.05ZM1200.02,1296.57c17.58-7.29,41.68-16.08,50.35-34.36,6.77-14.23,1-13.33-10.61-7.99-9.76,4.49-17.98,13.13-25.3,20.67l-14.44,21.67ZM1354.91,1251.82c-12.95,3.65-29.28,7.09-41.19,13.28-2.39,1.25-14.05,8.44-11.31,11.69,7.42,2.5,14.99-.75,21.91-3.7,10.61-4.49,23.01-12.78,30.63-21.27h-.05Z"/>
  <path class="st0" d="M825.8,1078.24l-1.09,12.98c19.77-2.1,63.45-3.25,75.4,15.88,8.12,12.98-2.79,35.31-13.1,44.64-24.45,22.22-64.25,26.42-95.62,29.16-1.44.15-9.31.5-8.67,3.1,39.3,35.76,76.35,73.66,122.47,100.92,3.88,2.3,18.23,7.79,19.12,11.24.45,1.1-.2,2.05-.4,3.05-1.39,6.64-5.68,6.04-11.8,5.14-13.84-2-31.23-13.73-42.63-21.72-34.31-24.02-62.95-55.13-94.63-82.1l-42.58,106.72c-7.17,5.94-12.8-13.08-9.36-18.63l38.9-100.43c-8.02-9.14-25.15-9.14-29.29-20.92-1.59-4.54-2.49-6.84,2.29-8.84,10.61-4.54,26.3,8.29,38.75,3.3l19.67-44.79c1.09-3.3-4.78-.4-6.52,0-4.73,1.15-22.56,6.09-25.45,8.39-2.64,2.1,2.44,17.63-15.59,12.98-5.23-1.35-12.45-12.19-11.26-17.18,2.09-8.69,32.17-17.53,40.49-20.03,6.47-1.95,23.31-4.19,27.49-6.64,6.08-3.5,5.73-24.97,23.51-16.18l-.1-.05ZM886.16,1116.44c-22.41-10.19-48.16-9.49-71.97-4.79l-22.31,50.64c22.51.15,46.92-4.99,67.19-14.83,11.65-5.69,28.99-15.98,27.04-31.01h.05Z"/>
  <path class="st0" d="M605.12,1304.01c-11.9,0-23.36-5.79-32.27-16.28l-1.84-2.15-2.39,1.55c-10.86,6.89-21.56,10.54-30.93,10.54-16.19,0-26.89-11.24-30.08-31.61l10.16-46.84-8.32,9.34c-2.44,2.75-5.33,5.44-8.12,8.09-3.44,3.25-7.02,6.59-10.06,10.24-3.19,3.85-7.02,10.39-11.11,17.28-4.63,7.79-10.36,17.48-13.25,19.42-.2.15-.35.15-.5.15-.75,0-2.29-.8-4.18-3.1-3.04-3.7-4.98-8.89-4.78-11.24,4.63-10.09,8.91-20.42,13.05-30.46,6.13-14.88,12.45-30.31,20.07-44.79,9.31-17.78,30.13-54.83,41.89-67.72,3.54-3.85,6.57-5.29,11.16-5.29,1.44,0,3.09.15,5.18.45.1.05.2.2.35.5.75,1.8.15,5.69-.9,7.89l-44.47,75.46,8.27-2.75c2.54-.85,4.93-1.9,7.22-2.95,3.98-1.8,7.77-3.55,11.9-3.85.75-.05,1.49-.1,2.14-.1,6.08,0,7.47,2.25,7.92,2.95,4.18,6.59-4.18,24.57-9.21,35.26-1.99,4.24-3.69,7.94-4.73,10.79-5.03,14.08-5.48,24.67-1.34,30.56,2.29,3.25,5.83,4.99,10.26,4.99,6.42,0,14.54-3.55,24.15-10.54l1.39-1v-1.75c-.4-14.03,1.99-27.47,6.77-38.8,5.43-12.78,13.75-22.52,24.7-29.01,5.88-3.45,15.59-7.19,23.11-7.19,8.77,0,10.26,4.89,10.61,8.59,1.79,18.08-2.79,32.86-14.99,47.89-1.35,1.7-6.08,6.04-10.61,10.29-15.49,14.38-16.49,15.83-15.89,18.53l.25,1.1.9.7c5.73,4.7,11.35,6.94,17.18,6.94,8.32,0,15.64-4.49,24.05-11.24,2.09-1.65,4.08-3.8,5.98-5.89,4.13-4.44,8.47-9.09,13.5-9.09h.7c.85.05.95.3,1.05.45.6,1.4.1,5.64-3.39,13.03-2.74,5.79-6.22,11.34-7.77,13.28-8.81,11.19-20.47,17.33-32.82,17.33l.05.05ZM606.86,1213.27c-2.89,0-7.17,2.75-12.85,8.09-5.03,4.74-9.71,10.44-12.55,15.13-3.39,5.64-4.23,9.94-2.59,13.08l1.05,2.05,2.29-.3c4.33-.55,11.11-7.34,16.09-12.93,4.98-5.64,10.91-13.33,12.5-18.08,1.05-3.1.15-4.84-.8-5.79-.8-.8-1.94-1.25-3.14-1.25Z"/>
  <path class="st0" d="M397.73,1312.9c-10.26-10.74-2.69-32.91,2.39-47.89.55-1.65,1.1-3.25,1.59-4.74,14.79-44.94,37.7-88.44,59.86-130.49,3.59-6.74,7.22-13.73,10.81-20.57l2.84-5.44-106.53,10.99c-1.69-.6-4.98-4.19-6.82-8.94-1.15-3.05-1.15-5.09-.6-5.79.35-.35,3.14-2.4,20.22-4.44,10.76-1.3,23.56-2.15,32.92-2.8,5.83-.4,10.41-.7,13.05-1,16.83-1.9,35.11-4.69,54.49-7.64,35.71-5.34,72.56-10.94,102.64-11.14,1.44,0,2.94.35,4.53.75,1.14.25,2.29.55,3.49.7.4,5.49-1.69,7.99-8.12,10.74-14.19,6.04-32.27,8.34-49.75,10.54-13.5,1.7-27.44,3.5-39.39,6.99l-1.29.4-.65,1.15c-23.81,42.55-51.15,93.58-73.16,149.01-.8,1.95-2.19,6.14-4.18,11.94-3.88,11.49-13.7,40.35-18.33,47.64v.05Z"/>
  <path class="st0" d="M2049.46,1301.96c-12.9,0-22.26-5.49-27.94-16.38l-.35-.7-.65-.45c-.6-.45-1.29-.65-2.04-.65-1.74,0-2.89,1.1-4.73,2.9-1.99,1.9-5.33,5.14-7.87,5.14h-.15c-5.93-3.5-14.49-11.09-9.91-24.37l-5.68-3.15c-6.23,7.69-12.15,11.79-17.08,11.79-6.82,0-12.7-8.24-16.04-22.57l-1.29-5.54-4.13,3.9c-2.79,2.65-5.63,5.59-8.62,8.79-8.71,9.24-18.63,19.68-27.04,19.68-5.53,0-10.51-4.64-15.14-14.28l-.65-1.3-8.57-2.55-.6,3.75c-.25,1.7-.55,2.25-.65,2.4l-1.1,1c-12.75,11.29-36.56,32.26-55.08,32.26-6.82,0-12.15-2.9-16.44-8.79-10.81-15.03-1.05-32.16,8.42-48.69,3.39-5.99,6.62-11.64,8.91-17.18l1.79-4.29-4.63-.25c-3.34-.15-9.02-4.34-11.7-9.64-.95-1.85-1.74-4.39-.75-6.49,1.64-.9,6.97-3.1,10.96-4.69,5.73-2.35,11.11-4.59,13.35-5.84,17.63-9.94,27.74-28.56,37.55-46.54,3.59-6.54,7.27-13.33,11.21-19.43.95-1.5,1.99-3.1,3.09-4.79,10.36-16.28,26-40.9,43.53-40.9.65,0,1.35,0,2.04.1,2.34.25,3.14,1.25,3.59,2.15,3.24,6.09-2.79,23.32-10.26,37.7-11.8,22.77-25.75,36.65-40.54,51.29-7.47,7.44-15.24,15.13-23.01,24.27-9.71,11.44-24.01,38.55-31.73,53.13l-.35.65c-5.38,10.14-9.06,18.13-11.95,25.77l-.9,2.35,1.99,1.5c1.25.95,2.84,1.4,4.63,1.4,8.52,0,23.06-11.09,27.84-14.73,9.96-7.59,19.03-15.83,22.01-19.03,6.72-7.14,17.23-20.12,22.51-28.61,2.24-3.6,4.63-8.99,7.22-14.68,3.44-7.69,7.37-16.38,10.41-19.48,1.24-1.25,6.67-3.2,11.45-3.2,1.3,0,2.09.15,2.59.3,3.64,5.79-.3,14.33-3.44,21.22-.4.85-.75,1.65-1.1,2.4-1.99,4.44-4.53,8.69-7.22,13.23-6.22,10.44-12.65,21.22-11.8,34.51l.35,5.74,4.73-3.2c18.13-12.28,31.82-32.76,43.88-50.84.9-1.3,1.74-2.65,2.64-3.9,1.19-1.8,2.19-3.45,3.09-4.94,3.39-5.64,4.73-7.54,8.92-7.54,1.94,0,4.38.45,7.47,1.35.9,3.4-3.19,16.38-5.68,24.27-4.98,15.93-7.87,26.02-5.63,31.51l2.19,5.34,3.49-4.59c14.69-19.43,26.5-41.15,37.9-62.12,7.07-12.98,14.34-26.42,22.26-39.1.7-1.15,1.49-2.45,2.39-3.95,5.43-8.94,15.54-25.62,22.61-29.06,4.63-2.25,7.37-2.7,8.86-2.7,1.84,0,2.49.65,2.94,1.25,1.34,2,3.39,9.49-7.07,35.96-5.43,13.73-12.65,27.22-19.67,40.25-8.52,15.83-17.28,32.21-23.16,49.54l-3.79,11.09,8.97-7.49c1.25-1.05,2.54-2.15,3.84-3.2,16.33-13.73,34.86-29.36,56.43-29.36,1.84,0,3.69.1,5.53.35,7.42.9,12.7,4.44,15.69,10.44,6.22,12.48,1.99,34.46-5.53,47.64-9.01,15.73-34.86,33.26-57.62,33.26v-.35ZM2091.3,1228.15c-2.19,0-4.38.35-6.28.65-7.37,1.25-18.48,7.79-32.97,19.38-.9.7-19.47,16.78-20.77,18.93-1.84,3.1-2.04,6.29-.45,9.09,3.39,5.99,13.95,8.19,19.77,8.19h1.1c13.55-.75,33.72-13.93,43.13-28.26,5.78-8.74,7.42-17.33,4.73-24.82l-.5-1.35-1.34-.55c-1.94-.8-4.08-1.2-6.48-1.2l.05-.05Z"/>
  <path class="st0" d="M1715.43,1301.96c-11.01,0-19.92-3.9-26.5-11.54-18.48-21.52-13.9-54.28,14.05-100.12,9.21-15.08,27.59-40.15,49.21-61.32,24.65-24.12,47.07-36.85,64.69-36.85,1.54,0,3.09.1,4.58.3,7.57,1,12.55,4.19,15.19,9.79,2.74,5.79,2.89,14.13.45,24.17-1.99,8.19-5.73,17.28-10.06,24.17-7.32,11.79-36.9,42.05-49.11,48.94-1.54.85-3.09,1.3-4.53,1.3-2.74,0-5.33-1.6-6.97-4.29-1.74-2.85-2.04-6.24-.85-8.99,5.03-4.99,10.46-9.74,16.19-14.73,18.63-16.28,37.9-33.06,42.63-58.93l.65-3.6-3.64-.3c-.85-.05-1.74-.1-2.64-.1-12.85,0-24.16,7.34-34.66,14.83-32.22,23.07-73.51,76.31-86.56,111.71-6.28,17.08-6.57,31.11-.7,39.5,2.64,3.79,7.87,8.29,17.88,8.29,5.23,0,11.31-1.2,18.13-3.65,13.45-4.75,28.49-15.68,41.84-25.32,11.6-8.39,22.61-16.38,30.03-18.48,1.89-.55,3.88-.8,6.32-.8-.5,6.84-5.68,13.53-11.3,19.78-7.12,7.94-20.67,20.03-37.25,30.01-12.2,7.39-30.28,16.18-47.06,16.18v.05Z"/>
</svg>
