<?xml version="1.0" encoding="UTF-8"?>
<svg id="Layer_1" xmlns="http://www.w3.org/2000/svg" version="1.1" viewBox="0 0 2500 2500">
  <defs>
    <style>
      .st0 {
        fill: #231f20;
      }
    </style>
  </defs>
  <g>
    <polygon class="st0" points="1158.34 1289.26 1147.03 1306.23 1147.03 1307.95 1158.36 1323.38 1161.07 1323.38 1172.98 1307.96 1172.98 1306.22 1161.09 1289.26 1158.34 1289.26"/>
    <polygon class="st0" points="1330.23 1289.26 1327.48 1289.26 1316.17 1306.23 1316.17 1307.95 1327.5 1323.38 1330.21 1323.38 1342.12 1307.96 1342.12 1306.22 1330.23 1289.26"/>
  </g>
  <polygon class="st0" points="1048.84 1200.04 1082.85 1200.04 1082.85 1316.32 1105.77 1316.32 1105.77 1200.04 1139.78 1200.04 1139.78 1179.02 1048.84 1179.02 1048.84 1200.04"/>
  <path class="st0" d="M1286.08,1239.83c3.81-5.97,5.74-13.17,5.74-21.42,0-12.04-3.54-21.72-10.52-28.77-6.98-7.05-17.85-10.62-32.29-10.62h-43.38v137.3h22.92v-117.8h17.8c7.75,0,13.38,1.64,16.74,4.87,3.35,3.23,5.05,8.28,5.05,15.02,0,7.12-1.64,12.33-4.86,15.5-3.23,3.17-8.87,4.84-16.73,4.96h-2.98l-.9,1.35,26.07,75.93.06.17h24.47l-22.83-64.13c6.63-2.31,11.89-6.47,15.66-12.37Z"/>
  <path class="st0" d="M1428.23,1268.04c-1.63,20.02-9.47,30.17-23.31,30.17-8.1,0-14.32-3.95-18.49-11.74-4.2-7.84-6.34-20.74-6.34-38.36s2.1-30.74,6.24-38.64c4.11-7.85,10.37-11.84,18.59-11.84,13.71,0,21.49,10.02,23.12,29.79l.02.23h22.92l-.02-.27c-1.27-16.7-5.99-29.41-14.03-37.77-8.06-8.37-19.02-12.62-32.58-12.62-15.91,0-28.02,6-35.98,17.83-7.94,11.8-11.96,29.73-11.96,53.29s4.04,41.27,12.01,53.01c7.99,11.77,20.14,17.73,36.12,17.73,13.56,0,24.52-4.31,32.58-12.81,8.04-8.49,12.77-21.26,14.03-37.96l.02-.27h-22.92l-.02.23Z"/>
</svg>
