<?xml version="1.0" encoding="UTF-8"?>
<svg id="Layer_1" xmlns="http://www.w3.org/2000/svg" version="1.1" viewBox="880 650 720 1150">
  <defs>
    <style>
      .st0 {
        fill: #E5D4C2;
      }
    </style>
  </defs>
  <path class="st0" d="M1413.89,1072.69c8.13,0,13.01,5.69,13.01,14.64,0,21.96-23.59,42.29-23.59,95.16,19.52-55.31,57.75-81.34,57.75-111.43,0-14.64-9.76-24.4-26.03-24.4-18.71,0-31.72,13.83-34.97,34.97,4.88-6.51,9.76-8.95,13.83-8.95Z"/>
  <path class="st0" d="M1096.68,1026.32c2.44,16.27,13.01,26.03,32.53,26.03,17.08,0,34.97-5.69,65.88-15.45-.81,15.45-17.08,24.4-34.97,24.4l-5.69-8.13-3.25,6.51-8.13-2.44,5.69,17.89c5.69,4.07,11.39,7.32,22.77,7.32,25.21,0,41.48-15.45,43.92-34.97,5.69,6.51,7.32,17.89,3.25,27.65,15.45-5.69,27.65-19.52,25.21-36.6,5.69.81,6.51,9.76,6.51,14.64,0,24.4-20.33,35.79-70.76,39.04-52.06,3.25-79.71,29.28-79.71,74.83,0,28.47,11.39,56.94,29.28,74.02,1.63-21.15,8.13-37.41,17.89-45.55,17.08,27.65,47.17,42.29,78.08,42.29,25.21,0,49.62-9.76,71.58-9.76s40.67,9.76,53.68,27.65c6.51-27.65,2.44-56.12-9.76-77.27,8.95,0,17.89,6.51,26.03,18.71,8.13-22.77,12.2-41.48,12.2-66.7,0-48.8-14.64-95.98-35.79-119.56,8.95,3.25,17.89,10.57,21.15,17.08,2.44-32.53-11.39-56.12-33.35-58.56,5.69-6.51,9.76-15.45,8.95-26.84-13.83,4.07-24.4,4.07-34.97,1.63,6.51-8.13,8.13-18.71,3.25-26.03,0,0-12.2,9.76-40.67,9.76-56.94,0-83.78,8.13-95.98,32.53-15.45,0-38.23,8.95-57.75,21.96,1.63,26.84,11.39,39.85,27.65,42.29l7.32,6.51,2.44-8.95c8.13-3.25,13.01-6.51,24.4-6.51,10.57,0,16.27,3.25,18.71,10.57-10.57,3.25-39.85,10.57-62.63,10.57-14.64,0-27.65-3.25-34.97-10.57ZM1162.56,1163.78l-13.01-26.03,13.01-10.57,13.01,10.57-13.01,26.03ZM1195.1,1206.08l-15.45-24.4,11.39-14.64,15.45,13.01-11.39,26.03ZM1215.43,1155.65l-20.33-21.15,8.95-14.64,16.27,7.32-4.88,28.47ZM1288.63,1144.26v-21.96h21.96l10.57,34.16-32.53-12.2ZM1316.29,1034.46l15.45,30.09-33.35-8.95-1.63-18.71,19.52-2.44ZM1275.62,1072.69l17.89-1.63,12.2,30.09-30.09-10.57v-17.89ZM1237.39,1173.54l4.88-20.33,19.52,5.69,4.88,38.23-29.28-23.59ZM1267.49,1136.94l-29.28-15.45,3.25-19.52h17.89l8.13,34.97ZM1218.69,957.19l31.72,8.13-31.72,17.08-21.96-11.39,21.96-13.83Z"/>
  <path class="st0" d="M1501.74,1201.2c-26.84,0-51.24,17.08-59.38,41.48,17.08-78.9,121.19-117.94,121.19-206.59,0-43.92-26.84-75.64-67.51-75.64-32.53,0-61,21.96-69.14,55.31,13.83-6.51,28.47-11.39,40.67-11.39,21.15,0,34.16,13.83,34.16,37.41,0,61.82-95.98,108.18-95.98,207.41,0,82.15,64.26,108.99,64.26,161.05,0,24.4-13.83,41.48-34.97,41.48-42.3,0-55.31-71.58-60.19-95.98-4.88-25.21-22.77-108.99-80.52-108.99-21.96,0-42.3,11.39-69.95,11.39s-52.87-11.39-74.83-29.28v12.2l-.81,43.11c-17.89-10.57-44.74-37.41-54.5-57.75-9.76,10.57-27.65,31.72-61.82,31.72-37.41,0-48.8-26.03-69.95-26.03-15.45,0-26.03,13.83-26.03,31.72v7.32c4.88-6.51,11.39-9.76,18.71-9.76,5.69,0,10.57,1.63,15.45,4.88-17.89,0-30.09,11.39-30.09,29.28,0,14.64,6.51,26.03,14.64,33.35,2.44-15.45,10.57-26.84,24.4-27.65-4.88,3.25-8.95,13.83-8.95,21.96,0,17.89,13.83,29.28,35.79,32.53-.81-4.88-1.63-8.13-1.63-12.2,0-14.64,9.76-27.65,26.84-27.65,27.65,0,45.55-1.63,60.19-5.69-4.88,4.07-7.32,11.39-7.32,18.71,0,4.07,1.63,9.76,3.25,12.2,6.51-8.13,14.64-12.2,26.03-12.2,21.96,0,32.53,16.27,70.76,16.27-.81-1.63-.81-4.07-.81-6.51,0-10.57,8.13-19.52,26.03-19.52,19.52,0,30.91,11.39,30.91,25.21,0,16.27-16.27,26.03-43.92,26.03h-71.58c-38.23,0-65.88,18.71-69.95,43.11,6.51-3.25,17.89-4.88,29.28-4.88-13.01,8.13-19.52,21.96-19.52,36.6,0,8.95,2.44,22.77,8.95,29.28,3.25-8.13,10.57-13.83,21.15-13.83,13.83,0,22.77,9.76,22.77,26.03,0,17.08-8.95,26.84-23.59,26.84-30.09,0-58.56-40.67-98.42-40.67-33.35,0-46.36,31.72-46.36,31.72,8.13-.81,16.27-.81,21.15,0-16.27,5.69-30.91,21.96-30.91,39.85,0,3.25.81,9.76,3.25,16.27,6.51-15.45,19.52-22.77,32.53-22.77-8.13,4.07-13.01,15.45-13.01,26.03,0,15.45,8.95,30.91,33.35,40.67-2.44-4.07-2.44-11.39-2.44-17.08,0-20.33,11.39-33.35,28.47-33.35,14.64,0,25.21,13.01,25.21,30.91h147.22c-9.76-16.27-16.27-35.79-16.27-56.12,0-47.99,34.16-84.59,80.52-84.59-25.21,15.45-39.85,53.68-39.85,90.28,0,34.16,13.01,65.07,31.72,79.71,0-14.64,8.95-26.03,25.21-26.03,13.83,0,26.03,11.39,26.03,26.84,0,16.27-12.2,28.47-25.21,28.47-13.83,0-27.65-11.39-44.74-11.39-19.52,0-36.6,14.64-36.6,38.23,0,8.13,1.63,18.71,6.51,26.84,1.63-14.64,8.95-25.21,18.71-25.21-4.88,7.32-7.32,17.08-7.32,25.21,0,14.64,7.32,29.28,21.15,38.23-1.63-16.27,4.07-30.09,15.45-39.85-2.44,28.47,16.27,46.36,43.11,52.06-3.25-7.32-4.07-14.64-4.07-20.33,0-21.96,12.2-36.6,32.53-36.6,6.51,0,13.83,1.63,16.27,6.51,31.72-34.16,62.63-82.15,82.96-126.88l-4.07-2.44c-4.88.81-12.2,3.25-20.33,3.25-26.84,0-43.11-17.89-43.11-48.8,0-18.71,5.69-47.18,16.27-64.26,19.52,20.33,40.67,30.91,64.26,30.91,42.29,0,71.58-31.72,71.58-78.9,0-65.07-54.5-88.66-54.5-132.58,0-21.96,13.83-35.79,34.16-35.79s28.47,13.83,28.47,29.28c0,8.95-4.07,20.33-8.95,30.91,28.47-8.95,46.36-29.28,46.36-55.31s-20.33-45.55-48.8-45.55Z"/>
  <path class="st0" d="M967.36,992.98c-17.08,11.39-21.96,29.28-19.52,46.36,8.95-8.95,17.08-13.01,26.84-13.01-7.32,4.88-11.39,17.08-11.39,26.84,0,8.13,3.25,17.08,8.13,21.15,2.31-9.72,7.01-17.06,13.01-21.59v74.46l-27.65,46.36,28.47,50.43h18.71l30.09-50.43-27.65-47.99v-77.27c15.35,3.97,23.59,22.54,23.59,51.25,0,47.99,21.15,85.4,56.94,106.55-13.01-39.85-4.07-75.64,15.45-101.67-30.91-31.72-56.94-86.22-61.82-139.9-7.7-3.5-22.02-5.79-34.16-6.36v-85.55h15.45v12.2h55.31v20.33h17.08v-144.78h-17.08v21.96h-55.31v12.2h-15.45v-42.29h-23.59v207.61c-26.11,5.67-40.25,23.96-38.23,46.16,5.69-8.13,13.01-13.01,22.77-13.01ZM1022.66,831.93l17.89-34.16h11.39l17.89,34.16v3.25l-17.89,34.16h-11.39l-17.89-34.16v-3.25ZM1011.28,1173.54l-16.27,29.28-17.89-29.28,17.89-27.65,16.27,27.65Z"/>
</svg>
