<?xml version="1.0" encoding="UTF-8"?>
<svg id="Layer_1" xmlns="http://www.w3.org/2000/svg" version="1.1" viewBox="0 0 2500 2500">
  <defs>
    <style>
      .st0 {
        fill: #231f20;
      }
    </style>
  </defs>
  <polygon class="st0" points="460.69 1202.37 494.7 1202.37 494.7 1318.65 517.62 1318.65 517.62 1202.37 551.63 1202.37 551.63 1181.35 460.69 1181.35 460.69 1202.37"/>
  <polygon class="st0" points="636.84 1236.83 594.59 1236.83 594.59 1181.35 571.67 1181.35 571.67 1318.65 594.59 1318.65 594.59 1257.85 636.84 1257.85 636.84 1318.65 659.76 1318.65 659.76 1181.35 636.84 1181.35 636.84 1236.83"/>
  <polygon class="st0" points="711.87 1257.66 757.47 1257.66 757.47 1237.21 711.87 1237.21 711.87 1202.37 760.89 1202.37 760.89 1181.35 688.95 1181.35 688.95 1318.65 762.22 1318.65 762.22 1297.63 711.87 1297.63 711.87 1257.66"/>
  <path class="st0" d="M921.02,1242.16c3.81-5.97,5.74-13.17,5.74-21.42,0-12.04-3.54-21.72-10.52-28.77-6.98-7.05-17.85-10.62-32.29-10.62h-43.38v137.3h22.92v-117.8h17.8c7.75,0,13.38,1.64,16.74,4.87,3.35,3.23,5.05,8.28,5.05,15.02,0,7.12-1.64,12.33-4.86,15.5-3.23,3.17-8.87,4.84-16.73,4.96h-2.98l-.9,1.35,26.07,75.93.06.17h24.47l-22.83-64.13c6.63-2.31,11.89-6.47,15.66-12.37Z"/>
  <path class="st0" d="M1129.66,1269.5c-1.13,3.73-2.07,7.82-2.8,12.17-.73-4.35-1.67-8.5-2.8-12.36l-25.13-87.96h-30.65v137.3h20.26v-89.93c0-8.72-.13-15.63-.39-20.62,1.49,6.26,3.24,13.14,5.22,20.5l24.7,89.87.05.18h16.34l24.75-90.43c2.17-7.7,3.78-14.11,4.8-19.13-.23,5.11-.35,11.75-.35,19.82v89.74h20.64v-137.3h-29.32l-25.32,88.15Z"/>
  <path class="st0" d="M1256.69,1181.35h-43.19v137.3h22.92v-54.91h20.46c13.18,0,23.63-3.67,31.05-10.9,7.43-7.23,11.19-17.39,11.19-30.2s-3.77-23.15-11.19-30.39c-7.42-7.23-17.93-10.9-31.24-10.9ZM1236.42,1201.23h17.99c6.87,0,12.14,1.8,15.69,5.34,3.54,3.54,5.34,8.82,5.34,15.69s-1.8,12.37-5.34,15.98c-3.54,3.61-8.76,5.43-15.5,5.43h-18.18v-42.44Z"/>
  <path class="st0" d="M1369.73,1181.35h-30.4l-36.34,136.99-.08.31h23.13l21.9-87.21c2.65-11.34,4.87-21.37,6.61-29.84l6.77,29.84,22.23,87.02.05.19h23.7l-37.52-137.12-.05-.18Z"/>
  <path class="st0" d="M1497.3,1260.64c0,9.84.23,17.73.68,23.51-1.8-6.42-4.1-12.56-6.86-18.3l-39.52-84.36-.07-.14h-24.54v137.3h21.21v-84.42c0-7.09-.13-12.87-.4-17.22,1.91,6.45,3.73,11.38,5.44,14.67l40.54,86.97h24.54v-137.3h-21.02v79.29Z"/>
  <polygon class="st0" points="1538.28 1202.37 1572.29 1202.37 1572.29 1318.65 1595.21 1318.65 1595.21 1202.37 1629.22 1202.37 1629.22 1181.35 1538.28 1181.35 1538.28 1202.37"/>
  <path class="st0" d="M1750.88,1270.12c-1.63,20.02-9.47,30.17-23.31,30.17-8.1,0-14.32-3.95-18.49-11.74-4.2-7.84-6.34-20.74-6.34-38.36s2.1-30.74,6.24-38.64c4.11-7.85,10.37-11.84,18.59-11.84,13.71,0,21.49,10.02,23.12,29.79l.02.23h22.92l-.02-.27c-1.27-16.7-5.99-29.41-14.03-37.77-8.06-8.37-19.02-12.62-32.58-12.62-15.91,0-28.02,6-35.98,17.83-7.94,11.8-11.96,29.73-11.96,53.29s4.04,41.27,12.01,53.01c7.99,11.77,20.14,17.73,36.12,17.73,13.56,0,24.52-4.31,32.58-12.81,8.04-8.49,12.77-21.26,14.03-37.96l.02-.27h-22.92l-.02.23Z"/>
  <polygon class="st0" points="1820.33 1181.35 1797.41 1181.35 1797.41 1318.65 1866.12 1318.65 1866.12 1297.63 1820.33 1297.63 1820.33 1181.35"/>
  <path class="st0" d="M1949.37,1282.68c0,5.34-1.82,9.59-5.42,12.63-3.61,3.05-8.8,4.6-15.42,4.6s-11.62-1.58-15.23-4.69c-3.6-3.1-5.42-7.32-5.42-12.54v-101.33h-22.92v102.09c0,11.42,3.9,20.63,11.58,27.36,7.67,6.72,18.43,10.13,31.99,10.13s24.51-3.41,32.18-10.13c7.68-6.73,11.58-15.94,11.58-27.36v-102.09h-22.92v101.33Z"/>
  <path class="st0" d="M2081.4,1257.07c-3.99-5.44-9.72-9.09-17.04-10.85,6.09-1.32,11.08-4.57,14.85-9.65,4-5.4,6.03-12.13,6.03-20,0-10.15-3.45-18.65-10.24-25.26-6.8-6.6-17.18-9.95-30.86-9.95h-43v137.3h44.9c13.94,0,24.48-3.61,31.34-10.72,6.85-7.11,10.33-16.69,10.33-28.48,0-9.13-2.13-16.66-6.32-22.38ZM2024.07,1256.52h19.13c7.11,0,12.42,1.95,15.77,5.8,3.36,3.86,5.07,9.3,5.07,16.18,0,13.58-7.2,20.46-21.41,20.46h-18.56v-42.44ZM2041.3,1237.97h-17.23v-37.12h16.85c13.7,0,20.65,6.12,20.65,18.18s-6.82,18.94-20.27,18.94Z"/>
  <path class="st0" d="M1011.02,1181.35h-30.4l-36.34,136.99-.08.31h23.13l21.9-87.21c2.65-11.34,4.87-21.37,6.61-29.84l6.77,29.84,22.23,87.02.05.19h23.7l-37.52-137.12-.05-.18Z"/>
  <polygon class="st0" points="994.74 1301.17 996.27 1301.17 1007.97 1285.25 1007.97 1283.72 996.27 1267.8 994.74 1267.8 983.04 1283.72 983.04 1285.25 994.74 1301.17"/>
  <polygon class="st0" points="1353.45 1301.17 1354.99 1301.17 1366.68 1285.25 1366.68 1283.72 1354.99 1267.8 1353.45 1267.8 1341.75 1283.72 1341.75 1285.25 1353.45 1301.17"/>
</svg>
