<svg xmlns="http://www.w3.org/2000/svg" xmlns:xlink="http://www.w3.org/1999/xlink" width="2500" zoomAndPan="magnify" viewBox="0 0 1874.88 1874.999927" height="2500" preserveAspectRatio="xMidYMid meet" version="1.0"><defs><clipPath id="0675a2e934"><path d="M 1214 562 L 1327 562 L 1327 814 L 1214 814 Z M 1214 562 " clip-rule="nonzero"/></clipPath><clipPath id="1af4ff4f6b"><path d="M 1239.691406 610.457031 C 1254.75 610.457031 1263.777344 620.980469 1263.777344 637.5 C 1263.777344 678.023438 1220.179688 715.511719 1220.179688 813.078125 C 1256.246094 711.054688 1326.769531 663.042969 1326.769531 607.539062 C 1326.769531 580.496094 1308.832031 562.519531 1278.71875 562.519531 C 1244.226562 562.519531 1220.179688 588.023438 1214.226562 627.050781 C 1223.253906 615.027344 1232.242188 610.535156 1239.691406 610.535156 Z M 1239.691406 610.457031 " clip-rule="nonzero"/></clipPath><clipPath id="e133f38ead"><path d="M 0.0820312 0.34375 L 112.875 0.34375 L 112.875 251.128906 L 0.0820312 251.128906 Z M 0.0820312 0.34375 " clip-rule="nonzero"/></clipPath><clipPath id="430dcf66da"><path d="M 25.691406 48.457031 C 40.75 48.457031 49.777344 58.980469 49.777344 75.5 C 49.777344 116.023438 6.179688 153.511719 6.179688 251.078125 C 42.246094 149.054688 112.769531 101.042969 112.769531 45.539062 C 112.769531 18.496094 94.832031 0.519531 64.71875 0.519531 C 30.226562 0.519531 6.179688 26.023438 0.226562 65.050781 C 9.253906 53.027344 18.242188 48.535156 25.691406 48.535156 Z M 25.691406 48.457031 " clip-rule="nonzero"/></clipPath><clipPath id="7c8a8c44cf"><rect x="0" width="113" y="0" height="252"/></clipPath><clipPath id="4a47710827"><path d="M 359 19.214844 L 1515.898438 19.214844 L 1515.898438 1856 L 359 1856 Z M 359 19.214844 " clip-rule="nonzero"/></clipPath><clipPath id="857e421502"><path d="M 686.488281 46.960938 C 639.28125 47.882812 597.453125 51.339844 546.558594 65.398438 L 549.515625 76.152344 C 599.410156 62.324219 639.011719 59.058594 686.757812 58.136719 Z M 686.488281 81.609375 C 639.28125 82.492188 597.453125 85.949219 546.558594 99.96875 L 549.515625 110.683594 C 599.410156 96.933594 639.011719 93.59375 686.757812 92.707031 Z M 686.683594 116.140625 C 634.632812 116.140625 594.035156 121.515625 546.632812 134.578125 L 549.589844 145.253906 C 595.878906 132.464844 635.632812 127.277344 686.644531 127.277344 Z M 479.261719 1131.046875 L 478.339844 1132.351562 L 462.820312 1153.824219 L 480.183594 1178.253906 L 497.542969 1153.824219 L 482.601562 1133.042969 L 480.183594 1129.742188 Z M 462.820312 1210.367188 L 480.183594 1234.757812 L 497.660156 1210.367188 L 480.183594 1186.320312 Z M 677.960938 19.265625 C 744.492188 19.265625 738.34375 135.84375 673.316406 157.085938 C 625.644531 172.644531 565.148438 146.675781 521.859375 184.820312 C 509.875 195.382812 503 204.984375 499.082031 223.269531 C 495.164062 241.589844 494.242188 268.480469 494.046875 313.652344 L 495.355469 399.65625 C 521.933594 401.574219 541.449219 406.722656 551.089844 410.949219 C 560 509.933594 608.054688 610.496094 665.09375 668.957031 C 629.027344 716.972656 612.507812 782.960938 636.554688 856.480469 C 570.5625 817.496094 531.652344 748.890625 531.539062 659.96875 C 531.347656 610.378906 518.246094 580.417969 497.890625 569.355469 L 503.726562 948.554688 C 513.292969 951.011719 523.894531 952.550781 536.070312 952.550781 C 598.988281 952.550781 632.0625 913.523438 650.074219 894.011719 C 668.015625 931.578125 717.527344 981.050781 750.523438 1000.5625 L 752.019531 921.050781 L 752.019531 898.503906 C 792.542969 931.5 838.984375 952.511719 890.109375 952.511719 C 941.121094 952.511719 978.570312 931.5 1019.09375 931.5 C 1125.6875 931.5 1158.683594 1086.027344 1167.671875 1132.546875 C 1176.699219 1177.5625 1200.742188 1309.582031 1278.71875 1309.582031 C 1317.746094 1309.582031 1343.210938 1278.085938 1343.210938 1233.066406 C 1343.210938 1137.039062 1224.636719 1087.527344 1224.636719 935.957031 C 1224.636719 752.925781 1401.75 667.34375 1401.75 553.339844 C 1401.75 509.820312 1377.667969 484.3125 1338.640625 484.3125 C 1316.132812 484.3125 1289.089844 493.300781 1263.660156 505.324219 C 1278.601562 443.828125 1331.113281 403.304688 1391.148438 403.304688 C 1466.242188 403.304688 1515.753906 461.84375 1515.753906 542.890625 C 1515.753906 706.445312 1323.699219 778.46875 1292.085938 924.007812 C 1307.144531 878.992188 1352.121094 847.492188 1401.636719 847.492188 L 1401.828125 847.378906 C 1454.414062 847.378906 1491.863281 883.410156 1491.863281 931.421875 C 1491.863281 979.4375 1458.867188 1016.925781 1406.359375 1033.445312 C 1415.386719 1013.929688 1422.800781 992.917969 1422.800781 976.441406 C 1422.800781 947.941406 1407.820312 922.472656 1370.292969 922.433594 C 1332.761719 922.394531 1307.296875 947.941406 1307.296875 988.425781 C 1307.296875 1069.433594 1407.820312 1112.957031 1407.820312 1233.03125 C 1407.820312 1320.03125 1353.734375 1378.570312 1275.761719 1378.570312 C 1232.164062 1378.570312 1193.136719 1359.058594 1157.183594 1321.566406 C 1137.671875 1353.066406 1127.183594 1405.613281 1127.183594 1440.144531 C 1127.183594 1497.148438 1157.183594 1530.140625 1206.734375 1530.140625 C 1221.675781 1530.140625 1235.273438 1525.648438 1244.261719 1524.148438 L 1251.675781 1528.644531 C 1214.226562 1611.152344 1157.183594 1699.691406 1098.644531 1762.722656 C 1094.191406 1753.734375 1080.707031 1750.738281 1068.722656 1750.738281 C 1031.195312 1750.738281 1008.6875 1777.78125 1008.6875 1818.265625 C 1008.6875 1828.753906 1010.183594 1842.273438 1016.214844 1855.757812 C 966.585938 1845.230469 932.132812 1812.238281 936.664062 1759.726562 C 915.652344 1777.703125 905.050781 1803.25 908.125 1833.246094 C 882.582031 1816.691406 869.097656 1789.726562 869.097656 1762.6875 C 869.097656 1747.667969 873.554688 1729.613281 882.582031 1716.132812 C 864.566406 1716.132812 851.082031 1735.644531 848.011719 1762.6875 C 839.097656 1747.742188 836.027344 1728.191406 836.027344 1713.171875 C 836.027344 1669.652344 867.523438 1642.613281 903.59375 1642.613281 C 935.089844 1642.613281 960.632812 1663.621094 986.101562 1663.621094 C 1010.183594 1663.621094 1032.65625 1641.074219 1032.65625 1611.113281 C 1032.65625 1582.613281 1010.183594 1561.601562 984.601562 1561.601562 C 954.601562 1561.601562 938.125 1582.613281 938.125 1609.617188 C 903.554688 1582.574219 879.585938 1525.570312 879.585938 1462.539062 C 879.585938 1395.050781 906.550781 1324.527344 953.105469 1296.023438 C 867.523438 1296.023438 804.527344 1363.550781 804.527344 1452.089844 C 804.527344 1489.65625 816.511719 1525.648438 834.527344 1555.648438 L 563.074219 1555.648438 C 563.074219 1522.652344 543.5625 1498.644531 516.519531 1498.644531 C 485.023438 1498.644531 464.011719 1522.652344 464.011719 1560.140625 C 464.011719 1570.667969 464.011719 1584.148438 468.464844 1591.679688 C 423.488281 1573.664062 406.929688 1545.121094 406.929688 1516.621094 C 406.929688 1497.109375 415.957031 1476.097656 431.015625 1468.605469 C 406.929688 1468.605469 382.960938 1482.089844 370.976562 1510.589844 C 366.40625 1498.566406 365.023438 1486.582031 365.023438 1480.628906 C 365.023438 1447.632812 391.949219 1417.636719 421.988281 1407.109375 C 412.960938 1405.652344 398.019531 1405.652344 382.960938 1407.109375 C 383.15625 1406.574219 407.199219 1348.570312 468.464844 1348.570312 C 541.984375 1348.570312 594.457031 1423.628906 650.039062 1423.628906 C 677.078125 1423.628906 693.519531 1405.652344 693.519531 1374.117188 C 693.519531 1344.078125 677.078125 1326.101562 651.535156 1326.101562 C 632.023438 1326.101562 618.539062 1336.546875 612.507812 1351.566406 C 600.523438 1339.582031 596.070312 1314.078125 596.070312 1297.597656 C 596.070312 1270.558594 608.054688 1245.089844 632.023438 1230.070312 C 611.125 1230.070312 590.117188 1233.066406 578.015625 1239.058594 C 585.542969 1194.082031 636.554688 1159.546875 707.078125 1159.546875 L 839.175781 1159.546875 C 890.1875 1159.546875 920.222656 1141.535156 920.222656 1111.535156 C 920.222656 1085.992188 899.210938 1065.019531 863.183594 1065.019531 C 830.1875 1065.019531 815.246094 1081.496094 815.246094 1101.007812 C 815.246094 1105.503906 815.246094 1109.996094 816.742188 1112.992188 C 746.21875 1112.992188 726.707031 1082.996094 686.183594 1082.996094 C 665.171875 1082.996094 650.113281 1090.523438 638.128906 1105.542969 C 635.171875 1101.007812 632.175781 1090.523438 632.175781 1082.996094 C 632.175781 1069.472656 636.632812 1055.992188 645.660156 1048.460938 C 618.617188 1055.953125 585.621094 1058.988281 534.609375 1058.988281 C 523.085938 1058.988281 513.40625 1062.214844 505.726562 1067.589844 L 508.53125 1247.433594 L 452.21875 1247.433594 L 454.175781 1122.175781 C 433.820312 1111.804688 422.027344 1094.941406 422.027344 1072.46875 C 422.027344 1057.449219 429.554688 1037.9375 438.582031 1031.945312 C 413.039062 1033.480469 398.058594 1054.492188 393.527344 1082.996094 C 378.582031 1069.511719 366.484375 1048.5 366.484375 1021.496094 C 366.484375 988.503906 389.070312 967.492188 422.066406 967.492188 C 413.039062 961.539062 404.128906 958.503906 393.527344 958.503906 C 380.042969 958.503906 367.980469 964.496094 359.070312 976.480469 L 359.070312 962.996094 C 359.070312 929.964844 378.582031 904.457031 407.007812 904.457031 C 425.484375 904.457031 439.886719 915.175781 457.171875 926.46875 L 462.742188 565.785156 C 457.25 567.4375 452.257812 570.046875 447.609375 573.582031 C 433.589844 584.144531 426.40625 600.816406 423.640625 613.453125 C 414.535156 605.925781 408.582031 589.445312 408.582031 574.425781 C 408.582031 556.449219 416.113281 533.902344 429.59375 524.914062 C 411.578125 524.914062 396.597656 532.441406 380.042969 548.921875 C 375.585938 517.425781 384.5 484.390625 416.113281 463.417969 C 398.097656 463.417969 384.613281 472.40625 374.128906 487.425781 C 370.402344 445.671875 396.90625 412.753906 444.574219 402.304688 C 451.257812 400.921875 458.324219 400.078125 465.394531 399.578125 L 466.699219 313.691406 C 467.429688 220.234375 466.890625 178.097656 470.695312 132.042969 C 476.378906 62.132812 554.738281 19.265625 677.960938 19.265625 " clip-rule="nonzero"/></clipPath><clipPath id="1cfbd3904f"><path d="M 0.015625 0.257812 L 1156.898438 0.257812 L 1156.898438 1836.859375 L 0.015625 1836.859375 Z M 0.015625 0.257812 " clip-rule="nonzero"/></clipPath><clipPath id="9dc01f3ee5"><path d="M 327.488281 27.960938 C 280.28125 28.882812 238.453125 32.339844 187.558594 46.398438 L 190.515625 57.152344 C 240.410156 43.324219 280.011719 40.058594 327.757812 39.136719 Z M 327.488281 62.609375 C 280.28125 63.492188 238.453125 66.949219 187.558594 80.96875 L 190.515625 91.683594 C 240.410156 77.933594 280.011719 74.59375 327.757812 73.707031 Z M 327.683594 97.140625 C 275.632812 97.140625 235.035156 102.515625 187.632812 115.578125 L 190.589844 126.253906 C 236.878906 113.464844 276.632812 108.277344 327.644531 108.277344 Z M 120.261719 1112.046875 L 119.339844 1113.351562 L 103.820312 1134.824219 L 121.183594 1159.253906 L 138.542969 1134.824219 L 123.601562 1114.042969 L 121.183594 1110.742188 Z M 103.820312 1191.367188 L 121.183594 1215.757812 L 138.660156 1191.367188 L 121.183594 1167.320312 Z M 318.960938 0.265625 C 385.492188 0.265625 379.34375 116.84375 314.316406 138.085938 C 266.644531 153.644531 206.148438 127.675781 162.859375 165.820312 C 150.875 176.382812 144 185.984375 140.082031 204.269531 C 136.164062 222.589844 135.242188 249.480469 135.046875 294.652344 L 136.355469 380.65625 C 162.933594 382.574219 182.449219 387.722656 192.089844 391.949219 C 201 490.933594 249.054688 591.496094 306.09375 649.957031 C 270.027344 697.972656 253.507812 763.960938 277.554688 837.480469 C 211.5625 798.496094 172.652344 729.890625 172.539062 640.96875 C 172.347656 591.378906 159.246094 561.417969 138.890625 550.355469 L 144.726562 929.554688 C 154.292969 932.011719 164.894531 933.550781 177.070312 933.550781 C 239.988281 933.550781 273.0625 894.523438 291.074219 875.011719 C 309.015625 912.578125 358.527344 962.050781 391.523438 981.5625 L 393.019531 902.050781 L 393.019531 879.503906 C 433.542969 912.5 479.984375 933.511719 531.109375 933.511719 C 582.121094 933.511719 619.570312 912.5 660.09375 912.5 C 766.6875 912.5 799.683594 1067.027344 808.671875 1113.546875 C 817.699219 1158.5625 841.742188 1290.582031 919.71875 1290.582031 C 958.746094 1290.582031 984.210938 1259.085938 984.210938 1214.066406 C 984.210938 1118.039062 865.636719 1068.527344 865.636719 916.957031 C 865.636719 733.925781 1042.75 648.34375 1042.75 534.339844 C 1042.75 490.820312 1018.667969 465.3125 979.640625 465.3125 C 957.132812 465.3125 930.089844 474.300781 904.660156 486.324219 C 919.601562 424.828125 972.113281 384.304688 1032.148438 384.304688 C 1107.242188 384.304688 1156.753906 442.84375 1156.753906 523.890625 C 1156.753906 687.445312 964.699219 759.46875 933.085938 905.007812 C 948.144531 859.992188 993.121094 828.492188 1042.636719 828.492188 L 1042.828125 828.378906 C 1095.414062 828.378906 1132.863281 864.410156 1132.863281 912.421875 C 1132.863281 960.4375 1099.867188 997.925781 1047.359375 1014.445312 C 1056.386719 994.929688 1063.800781 973.917969 1063.800781 957.441406 C 1063.800781 928.941406 1048.820312 903.472656 1011.292969 903.433594 C 973.761719 903.394531 948.296875 928.941406 948.296875 969.425781 C 948.296875 1050.433594 1048.820312 1093.957031 1048.820312 1214.03125 C 1048.820312 1301.03125 994.734375 1359.570312 916.761719 1359.570312 C 873.164062 1359.570312 834.136719 1340.058594 798.183594 1302.566406 C 778.671875 1334.066406 768.183594 1386.613281 768.183594 1421.144531 C 768.183594 1478.148438 798.183594 1511.140625 847.734375 1511.140625 C 862.675781 1511.140625 876.273438 1506.648438 885.261719 1505.148438 L 892.675781 1509.644531 C 855.226562 1592.152344 798.183594 1680.691406 739.644531 1743.722656 C 735.191406 1734.734375 721.707031 1731.738281 709.722656 1731.738281 C 672.195312 1731.738281 649.6875 1758.78125 649.6875 1799.265625 C 649.6875 1809.753906 651.183594 1823.273438 657.214844 1836.757812 C 607.585938 1826.230469 573.132812 1793.238281 577.664062 1740.726562 C 556.652344 1758.703125 546.050781 1784.25 549.125 1814.246094 C 523.582031 1797.691406 510.097656 1770.726562 510.097656 1743.6875 C 510.097656 1728.667969 514.554688 1710.613281 523.582031 1697.132812 C 505.566406 1697.132812 492.082031 1716.644531 489.011719 1743.6875 C 480.097656 1728.742188 477.027344 1709.191406 477.027344 1694.171875 C 477.027344 1650.652344 508.523438 1623.613281 544.59375 1623.613281 C 576.089844 1623.613281 601.632812 1644.621094 627.101562 1644.621094 C 651.183594 1644.621094 673.65625 1622.074219 673.65625 1592.113281 C 673.65625 1563.613281 651.183594 1542.601562 625.601562 1542.601562 C 595.601562 1542.601562 579.125 1563.613281 579.125 1590.617188 C 544.554688 1563.574219 520.585938 1506.570312 520.585938 1443.539062 C 520.585938 1376.050781 547.550781 1305.527344 594.105469 1277.023438 C 508.523438 1277.023438 445.527344 1344.550781 445.527344 1433.089844 C 445.527344 1470.65625 457.511719 1506.648438 475.527344 1536.648438 L 204.074219 1536.648438 C 204.074219 1503.652344 184.5625 1479.644531 157.519531 1479.644531 C 126.023438 1479.644531 105.011719 1503.652344 105.011719 1541.140625 C 105.011719 1551.667969 105.011719 1565.148438 109.464844 1572.679688 C 64.488281 1554.664062 47.929688 1526.121094 47.929688 1497.621094 C 47.929688 1478.109375 56.957031 1457.097656 72.015625 1449.605469 C 47.929688 1449.605469 23.960938 1463.089844 11.976562 1491.589844 C 7.40625 1479.566406 6.023438 1467.582031 6.023438 1461.628906 C 6.023438 1428.632812 32.949219 1398.636719 62.988281 1388.109375 C 53.960938 1386.652344 39.019531 1386.652344 23.960938 1388.109375 C 24.15625 1387.574219 48.199219 1329.570312 109.464844 1329.570312 C 182.984375 1329.570312 235.457031 1404.628906 291.039062 1404.628906 C 318.078125 1404.628906 334.519531 1386.652344 334.519531 1355.117188 C 334.519531 1325.078125 318.078125 1307.101562 292.535156 1307.101562 C 273.023438 1307.101562 259.539062 1317.546875 253.507812 1332.566406 C 241.523438 1320.582031 237.070312 1295.078125 237.070312 1278.597656 C 237.070312 1251.558594 249.054688 1226.089844 273.023438 1211.070312 C 252.125 1211.070312 231.117188 1214.066406 219.015625 1220.058594 C 226.542969 1175.082031 277.554688 1140.546875 348.078125 1140.546875 L 480.175781 1140.546875 C 531.1875 1140.546875 561.222656 1122.535156 561.222656 1092.535156 C 561.222656 1066.992188 540.210938 1046.019531 504.183594 1046.019531 C 471.1875 1046.019531 456.246094 1062.496094 456.246094 1082.007812 C 456.246094 1086.503906 456.246094 1090.996094 457.742188 1093.992188 C 387.21875 1093.992188 367.707031 1063.996094 327.183594 1063.996094 C 306.171875 1063.996094 291.113281 1071.523438 279.128906 1086.542969 C 276.171875 1082.007812 273.175781 1071.523438 273.175781 1063.996094 C 273.175781 1050.472656 277.632812 1036.992188 286.660156 1029.460938 C 259.617188 1036.953125 226.621094 1039.988281 175.609375 1039.988281 C 164.085938 1039.988281 154.40625 1043.214844 146.726562 1048.589844 L 149.53125 1228.433594 L 93.21875 1228.433594 L 95.175781 1103.175781 C 74.820312 1092.804688 63.027344 1075.941406 63.027344 1053.46875 C 63.027344 1038.449219 70.554688 1018.9375 79.582031 1012.945312 C 54.039062 1014.480469 39.058594 1035.492188 34.527344 1063.996094 C 19.582031 1050.511719 7.484375 1029.5 7.484375 1002.496094 C 7.484375 969.503906 30.070312 948.492188 63.066406 948.492188 C 54.039062 942.539062 45.128906 939.503906 34.527344 939.503906 C 21.042969 939.503906 8.980469 945.496094 0.0703125 957.480469 L 0.0703125 943.996094 C 0.0703125 910.964844 19.582031 885.457031 48.007812 885.457031 C 66.484375 885.457031 80.886719 896.175781 98.171875 907.46875 L 103.742188 546.785156 C 98.25 548.4375 93.257812 551.046875 88.609375 554.582031 C 74.589844 565.144531 67.40625 581.816406 64.640625 594.453125 C 55.535156 586.925781 49.582031 570.445312 49.582031 555.425781 C 49.582031 537.449219 57.113281 514.902344 70.59375 505.914062 C 52.578125 505.914062 37.597656 513.441406 21.042969 529.921875 C 16.585938 498.425781 25.5 465.390625 57.113281 444.417969 C 39.097656 444.417969 25.613281 453.40625 15.128906 468.425781 C 11.402344 426.671875 37.90625 393.753906 85.574219 383.304688 C 92.257812 381.921875 99.324219 381.078125 106.394531 380.578125 L 107.699219 294.691406 C 108.429688 201.234375 107.890625 159.097656 111.695312 113.042969 C 117.378906 43.132812 195.738281 0.265625 318.960938 0.265625 " clip-rule="nonzero"/></clipPath><clipPath id="30fc1eac86"><rect x="0" width="1157" y="0" height="1837"/></clipPath><clipPath id="ab50368fad"><path d="M 654 325 L 1176 325 L 1176 949 L 654 949 Z M 654 325 " clip-rule="nonzero"/></clipPath><clipPath id="88c63039c9"><path d="M 879.585938 397.386719 L 938.125 412.40625 L 879.585938 443.941406 L 839.058594 422.933594 L 879.585938 397.425781 Z M 969.621094 729.03125 L 915.613281 700.53125 L 921.570312 664.5 L 954.5625 664.5 Z M 914.078125 796.558594 L 923.105469 759.070312 L 959.171875 769.59375 L 968.085938 840.15625 L 914.078125 796.636719 Z M 984.601562 610.457031 L 1017.597656 607.421875 L 1040.183594 662.964844 L 984.601562 643.453125 Z M 1059.695312 539.972656 L 1088.121094 595.476562 L 1026.585938 578.996094 L 1023.628906 544.464844 Z M 1008.570312 742.515625 L 1008.570312 701.992188 L 1049.09375 701.992188 L 1068.609375 765.023438 Z M 873.554688 763.527344 L 836.101562 724.5 L 852.65625 697.457031 L 882.582031 710.941406 L 873.554688 763.449219 Z M 836.027344 856.558594 L 807.601562 811.539062 L 828.613281 784.539062 L 857.039062 808.542969 Z M 775.988281 778.546875 L 752.019531 730.53125 L 775.988281 711.019531 L 800.074219 730.53125 Z M 737.039062 521.957031 L 750.523438 533.980469 L 755.054688 517.460938 C 769.996094 511.46875 779.023438 505.476562 800.035156 505.476562 C 819.546875 505.476562 830.035156 511.46875 834.527344 524.992188 C 815.015625 530.984375 761.007812 544.503906 719.023438 544.503906 C 691.984375 544.503906 668.015625 538.511719 654.53125 524.992188 C 658.988281 554.992188 678.5 573.003906 714.570312 573.003906 C 746.066406 573.003906 779.0625 562.480469 836.027344 544.503906 C 834.527344 573.003906 804.527344 589.523438 771.53125 589.523438 L 761.046875 574.503906 L 755.09375 586.488281 L 740.035156 581.992188 L 750.523438 614.988281 C 761.007812 622.519531 771.53125 628.472656 792.503906 628.472656 C 839.058594 628.472656 869.058594 599.96875 873.554688 563.941406 C 884.039062 575.925781 887.035156 596.9375 879.507812 614.988281 C 908.046875 604.464844 930.519531 578.960938 926.0625 547.460938 C 936.546875 548.960938 938.046875 565.4375 938.046875 574.503906 C 938.046875 619.523438 900.59375 640.496094 807.5625 646.523438 C 711.496094 652.515625 660.445312 700.53125 660.445312 784.539062 C 660.445312 837.046875 681.457031 889.554688 714.453125 921.089844 C 717.410156 882.0625 729.511719 852.066406 747.449219 837.046875 C 778.945312 888.09375 834.527344 915.058594 891.492188 915.058594 C 938.046875 915.058594 983.027344 897.082031 1023.550781 897.082031 C 1064.074219 897.082031 1098.644531 915.058594 1122.613281 948.132812 C 1134.675781 897.082031 1127.148438 844.574219 1104.675781 805.625 C 1121.117188 805.625 1137.671875 817.609375 1152.730469 840.15625 C 1167.671875 798.171875 1175.199219 763.640625 1175.199219 717.085938 C 1175.199219 627.089844 1148.15625 540.046875 1109.207031 496.527344 C 1125.648438 502.519531 1142.203125 516.042969 1148.234375 528.0625 C 1152.691406 468.027344 1127.222656 424.507812 1086.738281 420.011719 C 1097.222656 408.027344 1104.675781 391.511719 1103.292969 370.5 C 1077.75 377.992188 1058.238281 377.992188 1038.722656 373.535156 C 1050.707031 358.515625 1053.78125 339.003906 1044.753906 325.519531 C 1044.753906 325.519531 1022.167969 343.496094 969.660156 343.496094 C 864.644531 343.496094 815.128906 358.515625 792.621094 403.535156 C 764.082031 403.535156 722.019531 420.011719 686.027344 444.058594 C 688.988281 493.570312 707.039062 517.578125 737.039062 522.070312 " clip-rule="nonzero"/></clipPath><clipPath id="00471562c6"><path d="M 0.4375 0.480469 L 521.203125 0.480469 L 521.203125 623.238281 L 0.4375 623.238281 Z M 0.4375 0.480469 " clip-rule="nonzero"/></clipPath><clipPath id="be81697d04"><path d="M 225.585938 72.386719 L 284.125 87.40625 L 225.585938 118.941406 L 185.058594 97.933594 L 225.585938 72.425781 Z M 315.621094 404.03125 L 261.613281 375.53125 L 267.570312 339.5 L 300.5625 339.5 Z M 260.078125 471.558594 L 269.105469 434.070312 L 305.171875 444.59375 L 314.085938 515.15625 L 260.078125 471.636719 Z M 330.601562 285.457031 L 363.597656 282.421875 L 386.183594 337.964844 L 330.601562 318.453125 Z M 405.695312 214.972656 L 434.121094 270.476562 L 372.585938 253.996094 L 369.628906 219.464844 Z M 354.570312 417.515625 L 354.570312 376.992188 L 395.09375 376.992188 L 414.609375 440.023438 Z M 219.554688 438.527344 L 182.101562 399.5 L 198.65625 372.457031 L 228.582031 385.941406 L 219.554688 438.449219 Z M 182.027344 531.558594 L 153.601562 486.539062 L 174.613281 459.539062 L 203.039062 483.542969 Z M 121.988281 453.546875 L 98.019531 405.53125 L 121.988281 386.019531 L 146.074219 405.53125 Z M 83.039062 196.957031 L 96.523438 208.980469 L 101.054688 192.460938 C 115.996094 186.46875 125.023438 180.476562 146.035156 180.476562 C 165.546875 180.476562 176.035156 186.46875 180.527344 199.992188 C 161.015625 205.984375 107.007812 219.503906 65.023438 219.503906 C 37.984375 219.503906 14.015625 213.511719 0.53125 199.992188 C 4.988281 229.992188 24.5 248.003906 60.570312 248.003906 C 92.066406 248.003906 125.0625 237.480469 182.027344 219.503906 C 180.527344 248.003906 150.527344 264.523438 117.53125 264.523438 L 107.046875 249.503906 L 101.09375 261.488281 L 86.035156 256.992188 L 96.523438 289.988281 C 107.007812 297.519531 117.53125 303.472656 138.503906 303.472656 C 185.058594 303.472656 215.058594 274.96875 219.554688 238.941406 C 230.039062 250.925781 233.035156 271.9375 225.507812 289.988281 C 254.046875 279.464844 276.519531 253.960938 272.0625 222.460938 C 282.546875 223.960938 284.046875 240.4375 284.046875 249.503906 C 284.046875 294.523438 246.59375 315.496094 153.5625 321.523438 C 57.496094 327.515625 6.445312 375.53125 6.445312 459.539062 C 6.445312 512.046875 27.457031 564.554688 60.453125 596.089844 C 63.410156 557.0625 75.511719 527.066406 93.449219 512.046875 C 124.945312 563.09375 180.527344 590.058594 237.492188 590.058594 C 284.046875 590.058594 329.027344 572.082031 369.550781 572.082031 C 410.074219 572.082031 444.644531 590.058594 468.613281 623.132812 C 480.675781 572.082031 473.148438 519.574219 450.675781 480.625 C 467.117188 480.625 483.671875 492.609375 498.730469 515.15625 C 513.671875 473.171875 521.199219 438.640625 521.199219 392.085938 C 521.199219 302.089844 494.15625 215.046875 455.207031 171.527344 C 471.648438 177.519531 488.203125 191.042969 494.234375 203.0625 C 498.691406 143.027344 473.222656 99.507812 432.738281 95.011719 C 443.222656 83.027344 450.675781 66.511719 449.292969 45.5 C 423.75 52.992188 404.238281 52.992188 384.722656 48.535156 C 396.707031 33.515625 399.78125 14.003906 390.753906 0.519531 C 390.753906 0.519531 368.167969 18.496094 315.660156 18.496094 C 210.644531 18.496094 161.128906 33.515625 138.621094 78.535156 C 110.082031 78.535156 68.019531 95.011719 32.027344 119.058594 C 34.988281 168.570312 53.039062 192.578125 83.039062 197.070312 " clip-rule="nonzero"/></clipPath><clipPath id="050d9829fe"><rect x="0" width="522" y="0" height="624"/></clipPath></defs><g clip-path="url(#0675a2e934)"><g clip-path="url(#1af4ff4f6b)"><g transform="matrix(1, 0, 0, 1, 1214, 562)"><g clip-path="url(#7c8a8c44cf)"><g clip-path="url(#e133f38ead)"><g clip-path="url(#430dcf66da)"><rect x="-1626.4736" width="2699.8272" fill="#052E20" height="2699.999895" y="-974.499984" fill-opacity="1"/></g></g></g></g></g></g><g clip-path="url(#4a47710827)"><g clip-path="url(#857e421502)"><g transform="matrix(1, 0, 0, 1, 359, 19)"><g clip-path="url(#30fc1eac86)"><g clip-path="url(#1cfbd3904f)"><g clip-path="url(#9dc01f3ee5)"><rect x="-771.4736" width="2699.8272" fill="#052E20" height="2699.999895" y="-431.499984" fill-opacity="1"/></g></g></g></g></g></g><g clip-path="url(#ab50368fad)"><g clip-path="url(#88c63039c9)"><g transform="matrix(1, 0, 0, 1, 654, 325)"><g clip-path="url(#050d9829fe)"><g clip-path="url(#00471562c6)"><g clip-path="url(#be81697d04)"><rect x="-1066.4736" width="2699.8272" fill="#052E20" height="2699.999895" y="-737.499984" fill-opacity="1"/></g></g></g></g></g></g></svg>