<svg xmlns="http://www.w3.org/2000/svg" xmlns:xlink="http://www.w3.org/1999/xlink" width="2500" zoomAndPan="magnify" viewBox="0 0 1874.88 1874.999927" height="2500" preserveAspectRatio="xMidYMid meet" version="1.0"><defs><clipPath id="be5909b99d"><path d="M 1231 487 L 1347 487 L 1347 745 L 1231 745 Z M 1231 487 " clip-rule="nonzero"/></clipPath><clipPath id="0c20cb9087"><path d="M 1257.375 536.886719 C 1272.824219 536.886719 1282.085938 547.683594 1282.085938 564.632812 C 1282.085938 606.207031 1237.355469 644.667969 1237.355469 744.765625 C 1274.359375 640.097656 1346.714844 590.835938 1346.714844 533.894531 C 1346.714844 506.148438 1328.308594 487.707031 1297.414062 487.707031 C 1262.027344 487.707031 1237.355469 513.875 1231.246094 553.910156 C 1240.507812 541.578125 1249.730469 536.964844 1257.375 536.964844 Z M 1257.375 536.886719 " clip-rule="nonzero"/></clipPath><clipPath id="1bd248b00f"><path d="M 0.121094 0.46875 L 115.792969 0.46875 L 115.792969 257.972656 L 0.121094 257.972656 Z M 0.121094 0.46875 " clip-rule="nonzero"/></clipPath><clipPath id="378830ba16"><path d="M 26.375 49.886719 C 41.824219 49.886719 51.085938 60.683594 51.085938 77.632812 C 51.085938 119.207031 6.355469 157.667969 6.355469 257.765625 C 43.359375 153.097656 115.714844 103.835938 115.714844 46.894531 C 115.714844 19.148438 97.308594 0.707031 66.414062 0.707031 C 31.027344 0.707031 6.355469 26.875 0.246094 66.910156 C 9.507812 54.578125 18.730469 49.964844 26.375 49.964844 Z M 26.375 49.886719 " clip-rule="nonzero"/></clipPath><clipPath id="416645df40"><rect x="0" width="116" y="0" height="258"/></clipPath><clipPath id="6615f62fb8"><path d="M 353.582031 324 L 1540.957031 324 L 1540.957031 1815 L 353.582031 1815 Z M 353.582031 324 " clip-rule="nonzero"/></clipPath><clipPath id="2ae8311312"><path d="M 1412.878906 324.398438 C 1351.285156 324.398438 1297.414062 365.976562 1282.003906 429.066406 C 1308.132812 416.734375 1335.875 407.511719 1359.046875 407.511719 C 1399.085938 407.511719 1423.675781 433.679688 1423.675781 478.328125 C 1423.675781 595.289062 1242.046875 683.089844 1242.046875 870.871094 C 1242.046875 1026.375 1363.699219 1077.132812 1363.699219 1175.691406 C 1363.699219 1221.878906 1337.492188 1254.191406 1297.453125 1254.191406 C 1217.453125 1254.191406 1192.863281 1118.707031 1183.523438 1072.519531 C 1174.382812 1024.796875 1140.453125 866.261719 1031.171875 866.261719 C 989.597656 866.261719 951.097656 887.816406 898.761719 887.816406 C 846.429688 887.816406 798.746094 866.261719 757.167969 832.410156 L 757.167969 855.539062 L 755.632812 937.117188 C 721.78125 917.097656 670.867188 866.300781 652.460938 827.796875 C 633.980469 847.816406 600.128906 887.855469 535.5 887.855469 C 464.683594 887.855469 443.128906 838.59375 403.089844 838.59375 C 373.925781 838.59375 353.90625 864.761719 353.90625 898.652344 L 353.90625 912.484375 C 363.050781 900.191406 375.464844 894.042969 389.296875 894.042969 C 400.171875 894.042969 409.316406 897.15625 418.574219 903.265625 C 384.722656 903.265625 361.550781 924.78125 361.550781 958.671875 C 361.550781 986.375 373.925781 1007.929688 389.296875 1021.765625 C 393.984375 992.523438 409.316406 970.96875 435.519531 969.390625 C 426.261719 975.5 418.535156 995.558594 418.535156 1010.925781 C 418.535156 1044.777344 444.664062 1066.335938 486.238281 1072.480469 C 484.703125 1063.261719 483.207031 1057.074219 483.207031 1049.390625 C 483.207031 1021.644531 501.609375 997.015625 533.921875 997.015625 C 586.375 997.015625 620.1875 993.941406 647.929688 986.21875 C 638.667969 993.902344 634.019531 1007.773438 634.019531 1021.644531 C 634.019531 1029.371094 637.171875 1040.089844 640.207031 1044.738281 C 652.5 1029.332031 667.949219 1021.644531 689.507812 1021.644531 C 730.964844 1021.644531 750.984375 1052.421875 823.453125 1052.421875 C 821.917969 1049.308594 821.917969 1044.699219 821.917969 1040.089844 C 821.917969 1020.070312 837.246094 1003.125 871.097656 1003.125 C 908.101562 1003.125 929.617188 1024.679688 929.617188 1050.847656 C 929.617188 1081.625 898.839844 1100.105469 846.46875 1100.105469 L 711.023438 1100.105469 C 638.667969 1100.105469 586.335938 1135.535156 578.613281 1181.722656 C 591.027344 1175.574219 612.542969 1172.5 634.019531 1172.5 C 609.429688 1187.90625 597.132812 1214.035156 597.132812 1241.777344 C 597.132812 1258.722656 601.703125 1284.851562 614 1297.148438 C 620.1875 1281.738281 634.019531 1271.019531 654.039062 1271.019531 C 680.246094 1271.019531 697.113281 1289.460938 697.113281 1320.28125 C 697.113281 1352.632812 680.246094 1371.035156 652.5 1371.035156 C 595.476562 1371.035156 541.609375 1294.074219 466.21875 1294.074219 C 403.128906 1294.074219 378.5 1354.128906 378.5 1354.128906 C 393.945312 1352.632812 409.277344 1352.632812 418.535156 1354.128906 C 387.757812 1364.929688 360.09375 1395.707031 360.09375 1429.558594 C 360.09375 1435.707031 361.511719 1448 366.203125 1460.335938 C 378.5 1431.09375 403.089844 1417.261719 427.796875 1417.261719 C 412.347656 1424.988281 403.089844 1446.503906 403.089844 1466.523438 C 403.089844 1495.761719 420.074219 1525.003906 466.179688 1543.484375 C 461.609375 1535.800781 461.609375 1521.96875 461.609375 1511.171875 C 461.609375 1472.710938 483.164062 1448.078125 515.480469 1448.078125 C 543.222656 1448.078125 563.242188 1472.710938 563.242188 1506.5625 L 841.898438 1506.5625 C 823.414062 1475.785156 811.117188 1438.859375 811.117188 1400.316406 C 811.117188 1309.480469 875.75 1240.203125 963.550781 1240.203125 C 915.785156 1269.441406 888.121094 1341.835938 888.121094 1411.035156 C 888.121094 1475.703125 912.710938 1534.1875 948.179688 1561.929688 C 948.179688 1534.226562 965.046875 1512.667969 995.863281 1512.667969 C 1022.070312 1512.667969 1045.164062 1534.226562 1045.164062 1563.464844 C 1045.164062 1594.203125 1022.109375 1617.335938 997.402344 1617.335938 C 971.273438 1617.335938 945.066406 1595.78125 912.753906 1595.78125 C 875.75 1595.78125 843.433594 1623.523438 843.433594 1668.171875 C 843.433594 1683.582031 846.585938 1703.601562 855.730469 1718.96875 C 858.882812 1691.226562 872.714844 1671.207031 891.195312 1671.207031 C 881.933594 1685.039062 877.363281 1703.5625 877.363281 1718.96875 C 877.363281 1746.675781 891.195312 1774.339844 917.402344 1791.363281 C 914.25 1760.585938 925.125 1734.378906 946.683594 1715.9375 C 941.992188 1769.804688 977.382812 1803.65625 1028.296875 1814.457031 C 1022.109375 1800.625 1020.574219 1786.710938 1020.574219 1775.992188 C 1020.574219 1734.417969 1043.625 1706.714844 1082.167969 1706.714844 C 1094.460938 1706.714844 1108.292969 1709.789062 1112.867188 1719.007812 C 1172.925781 1654.339844 1231.484375 1563.503906 1269.867188 1478.898438 L 1262.261719 1474.285156 C 1253 1475.785156 1239.089844 1480.433594 1223.761719 1480.433594 C 1172.964844 1480.433594 1142.144531 1446.582031 1142.144531 1388.101562 C 1142.144531 1352.671875 1152.90625 1298.800781 1172.925781 1266.449219 C 1209.808594 1304.910156 1249.847656 1324.929688 1294.578125 1324.929688 C 1374.574219 1324.929688 1430.0625 1264.871094 1430.0625 1175.613281 C 1430.0625 1052.460938 1326.890625 1007.8125 1326.890625 924.703125 C 1326.890625 883.125 1353.019531 857 1391.519531 857 C 1430.023438 857 1445.390625 883.164062 1445.390625 912.40625 C 1445.390625 929.351562 1437.746094 950.867188 1428.523438 970.886719 C 1482.394531 953.980469 1516.246094 915.519531 1516.246094 866.21875 C 1516.246094 816.921875 1477.824219 779.996094 1423.875 779.996094 C 1373.15625 779.996094 1326.929688 812.351562 1311.5625 858.496094 C 1343.875 709.179688 1540.957031 635.289062 1540.957031 467.492188 C 1540.957031 384.378906 1490.117188 324.320312 1413.195312 324.320312 Z M 1412.878906 324.398438 " clip-rule="nonzero"/></clipPath><clipPath id="975b277f89"><path d="M 0.738281 0.277344 L 1187.957031 0.277344 L 1187.957031 1490.582031 L 0.738281 1490.582031 Z M 0.738281 0.277344 " clip-rule="nonzero"/></clipPath><clipPath id="9645050b90"><path d="M 1059.878906 0.398438 C 998.285156 0.398438 944.414062 41.976562 929.003906 105.066406 C 955.132812 92.734375 982.875 83.511719 1006.046875 83.511719 C 1046.085938 83.511719 1070.675781 109.679688 1070.675781 154.328125 C 1070.675781 271.289062 889.046875 359.089844 889.046875 546.871094 C 889.046875 702.375 1010.699219 753.132812 1010.699219 851.691406 C 1010.699219 897.878906 984.492188 930.191406 944.453125 930.191406 C 864.453125 930.191406 839.863281 794.707031 830.523438 748.519531 C 821.382812 700.796875 787.453125 542.261719 678.171875 542.261719 C 636.597656 542.261719 598.097656 563.816406 545.761719 563.816406 C 493.429688 563.816406 445.746094 542.261719 404.167969 508.410156 L 404.167969 531.539062 L 402.632812 613.117188 C 368.78125 593.097656 317.867188 542.300781 299.460938 503.796875 C 280.980469 523.816406 247.128906 563.855469 182.5 563.855469 C 111.683594 563.855469 90.128906 514.59375 50.089844 514.59375 C 20.925781 514.59375 0.90625 540.761719 0.90625 574.652344 L 0.90625 588.484375 C 10.050781 576.191406 22.464844 570.042969 36.296875 570.042969 C 47.171875 570.042969 56.316406 573.15625 65.574219 579.265625 C 31.722656 579.265625 8.550781 600.78125 8.550781 634.671875 C 8.550781 662.375 20.925781 683.929688 36.296875 697.765625 C 40.984375 668.523438 56.316406 646.96875 82.519531 645.390625 C 73.261719 651.5 65.535156 671.558594 65.535156 686.925781 C 65.535156 720.777344 91.664062 742.335938 133.238281 748.480469 C 131.703125 739.261719 130.207031 733.074219 130.207031 725.390625 C 130.207031 697.644531 148.609375 673.015625 180.921875 673.015625 C 233.375 673.015625 267.1875 669.941406 294.929688 662.21875 C 285.667969 669.902344 281.019531 683.773438 281.019531 697.644531 C 281.019531 705.371094 284.171875 716.089844 287.207031 720.738281 C 299.5 705.332031 314.949219 697.644531 336.507812 697.644531 C 377.964844 697.644531 397.984375 728.421875 470.453125 728.421875 C 468.917969 725.308594 468.917969 720.699219 468.917969 716.089844 C 468.917969 696.070312 484.246094 679.125 518.097656 679.125 C 555.101562 679.125 576.617188 700.679688 576.617188 726.847656 C 576.617188 757.625 545.839844 776.105469 493.46875 776.105469 L 358.023438 776.105469 C 285.667969 776.105469 233.335938 811.535156 225.613281 857.722656 C 238.027344 851.574219 259.542969 848.5 281.019531 848.5 C 256.429688 863.90625 244.132812 890.035156 244.132812 917.777344 C 244.132812 934.722656 248.703125 960.851562 261 973.148438 C 267.1875 957.738281 281.019531 947.019531 301.039062 947.019531 C 327.246094 947.019531 344.113281 965.460938 344.113281 996.28125 C 344.113281 1028.632812 327.246094 1047.035156 299.5 1047.035156 C 242.476562 1047.035156 188.609375 970.074219 113.21875 970.074219 C 50.128906 970.074219 25.5 1030.128906 25.5 1030.128906 C 40.945312 1028.632812 56.277344 1028.632812 65.535156 1030.128906 C 34.757812 1040.929688 7.09375 1071.707031 7.09375 1105.558594 C 7.09375 1111.707031 8.511719 1124 13.203125 1136.335938 C 25.5 1107.09375 50.089844 1093.261719 74.796875 1093.261719 C 59.347656 1100.988281 50.089844 1122.503906 50.089844 1142.523438 C 50.089844 1171.761719 67.074219 1201.003906 113.179688 1219.484375 C 108.609375 1211.800781 108.609375 1197.96875 108.609375 1187.171875 C 108.609375 1148.710938 130.164062 1124.078125 162.480469 1124.078125 C 190.222656 1124.078125 210.242188 1148.710938 210.242188 1182.5625 L 488.898438 1182.5625 C 470.414062 1151.785156 458.117188 1114.859375 458.117188 1076.316406 C 458.117188 985.480469 522.75 916.203125 610.550781 916.203125 C 562.785156 945.441406 535.121094 1017.835938 535.121094 1087.035156 C 535.121094 1151.703125 559.710938 1210.1875 595.179688 1237.929688 C 595.179688 1210.226562 612.046875 1188.667969 642.863281 1188.667969 C 669.070312 1188.667969 692.164062 1210.226562 692.164062 1239.464844 C 692.164062 1270.203125 669.109375 1293.335938 644.402344 1293.335938 C 618.273438 1293.335938 592.066406 1271.78125 559.753906 1271.78125 C 522.75 1271.78125 490.433594 1299.523438 490.433594 1344.171875 C 490.433594 1359.582031 493.585938 1379.601562 502.730469 1394.96875 C 505.882812 1367.226562 519.714844 1347.207031 538.195312 1347.207031 C 528.933594 1361.039062 524.363281 1379.5625 524.363281 1394.96875 C 524.363281 1422.675781 538.195312 1450.339844 564.402344 1467.363281 C 561.25 1436.585938 572.125 1410.378906 593.683594 1391.9375 C 588.992188 1445.804688 624.382812 1479.65625 675.296875 1490.457031 C 669.109375 1476.625 667.574219 1462.710938 667.574219 1451.992188 C 667.574219 1410.417969 690.625 1382.714844 729.167969 1382.714844 C 741.460938 1382.714844 755.292969 1385.789062 759.867188 1395.007812 C 819.925781 1330.339844 878.484375 1239.503906 916.867188 1154.898438 L 909.261719 1150.285156 C 900 1151.785156 886.089844 1156.433594 870.761719 1156.433594 C 819.964844 1156.433594 789.144531 1122.582031 789.144531 1064.101562 C 789.144531 1028.671875 799.90625 974.800781 819.925781 942.449219 C 856.808594 980.910156 896.847656 1000.929688 941.578125 1000.929688 C 1021.574219 1000.929688 1077.0625 940.871094 1077.0625 851.613281 C 1077.0625 728.460938 973.890625 683.8125 973.890625 600.703125 C 973.890625 559.125 1000.019531 533 1038.519531 533 C 1077.023438 533 1092.390625 559.164062 1092.390625 588.40625 C 1092.390625 605.351562 1084.746094 626.867188 1075.523438 646.886719 C 1129.394531 629.980469 1163.246094 591.519531 1163.246094 542.21875 C 1163.246094 492.921875 1124.824219 455.996094 1070.875 455.996094 C 1020.15625 455.996094 973.929688 488.351562 958.5625 534.496094 C 990.875 385.179688 1187.957031 311.289062 1187.957031 143.492188 C 1187.957031 60.378906 1137.117188 0.320312 1060.195312 0.320312 Z M 1059.878906 0.398438 " clip-rule="nonzero"/></clipPath><clipPath id="68baba1c11"><rect x="0" width="1188" y="0" height="1491"/></clipPath><clipPath id="2198ccf1d4"><path d="M 368 320 L 668 320 L 668 790 L 368 790 Z M 368 320 " clip-rule="nonzero"/></clipPath><clipPath id="902d11aa16"><path d="M 638.550781 789.335938 C 570.769531 749.296875 530.929688 678.953125 530.730469 587.683594 C 530.652344 528.453125 512.40625 496.535156 485.53125 490.664062 C 481.039062 489.636719 476.9375 489.203125 473.039062 489.203125 C 471.5 489.203125 470.082031 489.242188 468.664062 489.441406 C 459.402344 490.269531 451.601562 493.816406 444.546875 499.09375 C 430.242188 509.933594 422.792969 527.035156 419.957031 540 C 410.695312 532.277344 404.625 515.371094 404.625 499.960938 C 404.625 481.519531 412.269531 458.386719 426.183594 449.164062 C 407.699219 449.164062 392.332031 456.851562 375.34375 473.796875 C 370.773438 441.441406 379.917969 407.589844 412.230469 386.074219 C 393.75 386.074219 379.917969 395.292969 369.160156 410.703125 C 365.453125 367.867188 392.605469 334.09375 441.511719 323.375 C 450.300781 321.5625 459.441406 320.578125 468.664062 320.183594 C 471.617188 320.066406 474.652344 320.027344 477.726562 320.027344 C 480.484375 320.027344 483.363281 320.027344 486.121094 320.183594 C 517.292969 321.601562 539.992188 327.511719 550.75 332.203125 C 560.011719 433.757812 609.269531 536.925781 667.714844 596.984375 C 630.828125 646.207031 613.84375 713.949219 638.550781 789.375 " clip-rule="nonzero"/></clipPath><clipPath id="96a5fc792d"><path d="M 0 0 L 299.878906 0 L 299.878906 469.609375 L 0 469.609375 Z M 0 0 " clip-rule="nonzero"/></clipPath><clipPath id="4af7a8b58d"><path d="M 270.550781 469.335938 C 202.769531 429.296875 162.929688 358.953125 162.730469 267.683594 C 162.652344 208.453125 144.40625 176.535156 117.53125 170.664062 C 113.039062 169.636719 108.9375 169.203125 105.039062 169.203125 C 103.5 169.203125 102.082031 169.242188 100.664062 169.441406 C 91.402344 170.269531 83.601562 173.816406 76.546875 179.09375 C 62.242188 189.933594 54.792969 207.035156 51.957031 220 C 42.695312 212.277344 36.625 195.371094 36.625 179.960938 C 36.625 161.519531 44.269531 138.386719 58.183594 129.164062 C 39.699219 129.164062 24.332031 136.851562 7.34375 153.796875 C 2.773438 121.441406 11.917969 87.589844 44.230469 66.074219 C 25.75 66.074219 11.917969 75.292969 1.160156 90.703125 C -2.546875 47.867188 24.605469 14.09375 73.511719 3.375 C 82.300781 1.5625 91.441406 0.578125 100.664062 0.183594 C 103.617188 0.0664062 106.652344 0.0273438 109.726562 0.0273438 C 112.484375 0.0273438 115.363281 0.0273438 118.121094 0.183594 C 149.292969 1.601562 171.992188 7.511719 182.75 12.203125 C 192.011719 113.757812 241.269531 216.925781 299.714844 276.984375 C 262.828125 326.207031 245.84375 393.949219 270.550781 469.375 " clip-rule="nonzero"/></clipPath><clipPath id="aad14a31b9"><rect x="0" width="300" y="0" height="470"/></clipPath><clipPath id="86d0d43fee"><path d="M 333.921875 60.4375 L 606 60.4375 L 606 117 L 333.921875 117 Z M 333.921875 60.4375 " clip-rule="nonzero"/></clipPath><clipPath id="51423704e1"><path d="M 333.96875 116.878906 L 333.96875 60.484375 L 425.117188 60.484375 L 449.433594 82.75 L 605.960938 82.75 L 605.960938 116.839844 C 424.328125 116.878906 333.691406 116.878906 333.96875 116.878906 " clip-rule="nonzero"/></clipPath><clipPath id="176882bbe6"><path d="M 0.921875 0.4375 L 272.960938 0.4375 L 272.960938 56.933594 L 0.921875 56.933594 Z M 0.921875 0.4375 " clip-rule="nonzero"/></clipPath><clipPath id="ebc3575c87"><path d="M 0.96875 56.878906 L 0.96875 0.484375 L 92.117188 0.484375 L 116.433594 22.75 L 272.960938 22.75 L 272.960938 56.839844 C 91.328125 56.878906 0.691406 56.878906 0.96875 56.878906 " clip-rule="nonzero"/></clipPath><clipPath id="c5e32c024b"><rect x="0" width="273" y="0" height="57"/></clipPath><clipPath id="c169db3c36"><path d="M 333.921875 128 L 606 128 L 606 290 L 333.921875 290 Z M 333.921875 128 " clip-rule="nonzero"/></clipPath><clipPath id="f314226795"><path d="M 415.582031 249.601562 L 428.074219 264.578125 L 441.3125 249.601562 L 428.074219 232.972656 Z M 386.617188 249.601562 L 399.855469 264.578125 L 413.964844 249.601562 L 399.855469 232.972656 Z M 358.398438 249.601562 L 371.640625 264.578125 L 384.132812 249.601562 L 371.640625 232.972656 Z M 605.882812 289.878906 L 333.96875 289.878906 L 333.96875 128.738281 L 605.882812 128.738281 Z M 605.882812 289.878906 " clip-rule="nonzero"/></clipPath><clipPath id="2da3e16391"><path d="M 0.921875 0.691406 L 272.960938 0.691406 L 272.960938 161.960938 L 0.921875 161.960938 Z M 0.921875 0.691406 " clip-rule="nonzero"/></clipPath><clipPath id="5da91cfac2"><path d="M 82.582031 121.601562 L 95.074219 136.578125 L 108.3125 121.601562 L 95.074219 104.972656 Z M 53.617188 121.601562 L 66.855469 136.578125 L 80.964844 121.601562 L 66.855469 104.972656 Z M 25.398438 121.601562 L 38.640625 136.578125 L 51.132812 121.601562 L 38.640625 104.972656 Z M 272.882812 161.878906 L 0.96875 161.878906 L 0.96875 0.738281 L 272.882812 0.738281 Z M 272.882812 161.878906 " clip-rule="nonzero"/></clipPath><clipPath id="22e47195f2"><rect x="0" width="273" y="0" height="162"/></clipPath><clipPath id="e59d5e7e6f"><path d="M 657 244 L 1192 244 L 1192 884 L 657 884 Z M 657 244 " clip-rule="nonzero"/></clipPath><clipPath id="7da73e4c03"><path d="M 887.964844 318.292969 L 948.023438 333.699219 L 887.964844 366.054688 L 846.390625 344.496094 L 887.964844 318.332031 Z M 980.257812 658.460938 L 924.851562 629.21875 L 931.039062 592.257812 L 964.890625 592.257812 Z M 923.351562 727.742188 L 932.613281 689.277344 L 969.617188 700.078125 L 978.761719 772.46875 L 923.390625 727.820312 Z M 995.707031 536.886719 L 1029.558594 533.773438 L 1052.730469 590.757812 L 995.707031 570.738281 Z M 1072.75 464.496094 L 1101.910156 521.480469 L 1038.777344 504.574219 L 1035.746094 469.144531 Z M 1020.296875 672.332031 L 1020.296875 630.796875 L 1061.871094 630.796875 L 1081.890625 695.464844 Z M 881.777344 693.890625 L 843.277344 653.851562 L 860.261719 626.109375 L 891.039062 639.941406 L 881.777344 693.808594 Z M 843.277344 789.335938 L 814.113281 743.148438 L 835.671875 715.445312 L 864.832031 740.074219 Z M 781.800781 709.296875 L 757.089844 660.039062 L 781.800781 640.019531 L 806.390625 660.039062 Z M 657.074219 449.125 C 661.644531 479.902344 681.664062 498.386719 718.667969 498.386719 C 750.984375 498.386719 784.835938 487.589844 843.277344 469.144531 C 841.855469 498.386719 810.960938 515.332031 777.109375 515.332031 L 766.351562 499.921875 L 760.242188 512.257812 L 744.796875 507.648438 L 755.554688 541.5 C 766.3125 549.222656 777.109375 555.332031 798.625 555.332031 C 846.390625 555.332031 877.167969 526.089844 881.777344 489.125 C 892.535156 501.421875 895.609375 522.976562 887.886719 541.5 C 917.167969 530.699219 940.21875 504.535156 935.648438 472.21875 C 946.40625 473.757812 947.945312 490.664062 947.945312 499.960938 C 947.945312 546.148438 909.519531 567.664062 814.113281 573.851562 C 715.554688 580 663.179688 629.261719 663.179688 715.445312 C 663.179688 769.316406 684.738281 823.1875 718.589844 855.539062 C 721.742188 815.503906 734.035156 784.726562 752.441406 769.316406 C 784.753906 821.6875 841.777344 849.355469 900.21875 849.355469 C 947.984375 849.355469 994.207031 830.910156 1035.707031 830.910156 C 1077.28125 830.910156 1112.746094 849.355469 1137.339844 883.285156 C 1149.753906 830.910156 1142.027344 777.039062 1118.933594 737.082031 C 1135.800781 737.082031 1152.785156 749.375 1168.234375 772.507812 C 1183.5625 729.433594 1191.289062 694.007812 1191.289062 646.246094 C 1191.289062 553.910156 1163.542969 464.613281 1123.585938 419.964844 C 1140.453125 426.113281 1157.4375 439.984375 1163.625 452.316406 C 1168.195312 390.722656 1142.066406 346.074219 1100.53125 341.464844 C 1111.289062 329.167969 1118.933594 312.222656 1117.515625 290.667969 C 1091.308594 298.351562 1071.289062 298.351562 1051.269531 293.78125 C 1063.566406 278.371094 1066.71875 258.351562 1057.457031 244.519531 C 1057.457031 244.519531 1034.285156 262.960938 980.414062 262.960938 C 872.675781 262.960938 821.878906 278.371094 798.824219 324.558594 C 769.542969 324.558594 726.351562 341.464844 689.464844 366.132812 C 692.5 416.929688 711.023438 441.558594 741.800781 446.171875 L 755.632812 458.503906 L 760.28125 441.558594 C 775.613281 435.414062 784.875 429.265625 806.429688 429.265625 C 826.449219 429.265625 837.207031 435.371094 841.898438 449.285156 C 821.878906 455.429688 766.390625 469.304688 723.277344 469.304688 C 695.535156 469.304688 670.945312 463.15625 657.113281 449.285156 " clip-rule="nonzero"/></clipPath><clipPath id="c04e79e3d1"><path d="M 0 0.363281 L 534.523438 0.363281 L 534.523438 639.445312 L 0 639.445312 Z M 0 0.363281 " clip-rule="nonzero"/></clipPath><clipPath id="890b49267c"><path d="M 230.964844 74.292969 L 291.023438 89.699219 L 230.964844 122.054688 L 189.390625 100.496094 L 230.964844 74.332031 Z M 323.257812 414.460938 L 267.851562 385.21875 L 274.039062 348.257812 L 307.890625 348.257812 Z M 266.351562 483.742188 L 275.613281 445.277344 L 312.617188 456.078125 L 321.761719 528.46875 L 266.390625 483.820312 Z M 338.707031 292.886719 L 372.558594 289.773438 L 395.730469 346.757812 L 338.707031 326.738281 Z M 415.75 220.496094 L 444.910156 277.480469 L 381.777344 260.574219 L 378.746094 225.144531 Z M 363.296875 428.332031 L 363.296875 386.796875 L 404.871094 386.796875 L 424.890625 451.464844 Z M 224.777344 449.890625 L 186.277344 409.851562 L 203.261719 382.109375 L 234.039062 395.941406 L 224.777344 449.808594 Z M 186.277344 545.335938 L 157.113281 499.148438 L 178.671875 471.445312 L 207.832031 496.074219 Z M 124.800781 465.296875 L 100.089844 416.039062 L 124.800781 396.019531 L 149.390625 416.039062 Z M 0.0742188 205.125 C 4.644531 235.902344 24.664062 254.386719 61.667969 254.386719 C 93.984375 254.386719 127.835938 243.589844 186.277344 225.144531 C 184.855469 254.386719 153.960938 271.332031 120.109375 271.332031 L 109.351562 255.921875 L 103.242188 268.257812 L 87.796875 263.648438 L 98.554688 297.5 C 109.3125 305.222656 120.109375 311.332031 141.625 311.332031 C 189.390625 311.332031 220.167969 282.089844 224.777344 245.125 C 235.535156 257.421875 238.609375 278.976562 230.886719 297.5 C 260.167969 286.699219 283.21875 260.535156 278.648438 228.21875 C 289.40625 229.757812 290.945312 246.664062 290.945312 255.960938 C 290.945312 302.148438 252.519531 323.664062 157.113281 329.851562 C 58.554688 336 6.179688 385.261719 6.179688 471.445312 C 6.179688 525.316406 27.738281 579.1875 61.589844 611.539062 C 64.742188 571.503906 77.035156 540.726562 95.441406 525.316406 C 127.753906 577.6875 184.777344 605.355469 243.21875 605.355469 C 290.984375 605.355469 337.207031 586.910156 378.707031 586.910156 C 420.28125 586.910156 455.746094 605.355469 480.339844 639.285156 C 492.753906 586.910156 485.027344 533.039062 461.933594 493.082031 C 478.800781 493.082031 495.785156 505.375 511.234375 528.507812 C 526.5625 485.433594 534.289062 450.007812 534.289062 402.246094 C 534.289062 309.910156 506.542969 220.613281 466.585938 175.964844 C 483.453125 182.113281 500.4375 195.984375 506.625 208.316406 C 511.195312 146.722656 485.066406 102.074219 443.53125 97.464844 C 454.289062 85.167969 461.933594 68.222656 460.515625 46.667969 C 434.308594 54.351562 414.289062 54.351562 394.269531 49.78125 C 406.566406 34.371094 409.71875 14.351562 400.457031 0.519531 C 400.457031 0.519531 377.285156 18.960938 323.414062 18.960938 C 215.675781 18.960938 164.878906 34.371094 141.824219 80.558594 C 112.542969 80.558594 69.351562 97.464844 32.464844 122.132812 C 35.5 172.929688 54.023438 197.558594 84.800781 202.171875 L 98.632812 214.503906 L 103.28125 197.558594 C 118.613281 191.414062 127.875 185.265625 149.429688 185.265625 C 169.449219 185.265625 180.207031 191.371094 184.898438 205.285156 C 164.878906 211.429688 109.390625 225.304688 66.277344 225.304688 C 38.535156 225.304688 13.945312 219.15625 0.113281 205.285156 " clip-rule="nonzero"/></clipPath><clipPath id="ba663c0a4d"><rect x="0" width="535" y="0" height="640"/></clipPath></defs><g clip-path="url(#be5909b99d)"><g clip-path="url(#0c20cb9087)"><g transform="matrix(1, 0, 0, 1, 1231, 487)"><g clip-path="url(#416645df40)"><g clip-path="url(#1bd248b00f)"><g clip-path="url(#378830ba16)"><rect x="-1643.4736" width="2699.8272" fill="#052d1f" height="2699.999895" y="-899.499984" fill-opacity="1"/></g></g></g></g></g></g><g clip-path="url(#6615f62fb8)"><g clip-path="url(#2ae8311312)"><g transform="matrix(1, 0, 0, 1, 353, 324)"><g clip-path="url(#68baba1c11)"><g clip-path="url(#975b277f89)"><g clip-path="url(#9645050b90)"><rect x="-765.4736" width="2699.8272" fill="#052d1f" height="2699.999895" y="-736.499984" fill-opacity="1"/></g></g></g></g></g></g><g clip-path="url(#2198ccf1d4)"><g clip-path="url(#902d11aa16)"><g transform="matrix(1, 0, 0, 1, 368, 320)"><g clip-path="url(#aad14a31b9)"><g clip-path="url(#96a5fc792d)"><g clip-path="url(#4af7a8b58d)"><rect x="-780.4736" width="2699.8272" fill="#052d1f" height="2699.999895" y="-732.499984" fill-opacity="1"/></g></g></g></g></g></g><g clip-path="url(#86d0d43fee)"><g clip-path="url(#51423704e1)"><g transform="matrix(1, 0, 0, 1, 333, 60)"><g clip-path="url(#c5e32c024b)"><g clip-path="url(#176882bbe6)"><g clip-path="url(#ebc3575c87)"><rect x="-745.4736" width="2699.8272" fill="#052d1f" height="2699.999895" y="-472.499984" fill-opacity="1"/></g></g></g></g></g></g><g clip-path="url(#c169db3c36)"><g clip-path="url(#f314226795)"><g transform="matrix(1, 0, 0, 1, 333, 128)"><g clip-path="url(#22e47195f2)"><g clip-path="url(#2da3e16391)"><g clip-path="url(#5da91cfac2)"><rect x="-745.4736" width="2699.8272" fill="#052d1f" height="2699.999895" y="-540.499984" fill-opacity="1"/></g></g></g></g></g></g><g clip-path="url(#e59d5e7e6f)"><g clip-path="url(#7da73e4c03)"><g transform="matrix(1, 0, 0, 1, 657, 244)"><g clip-path="url(#ba663c0a4d)"><g clip-path="url(#c04e79e3d1)"><g clip-path="url(#890b49267c)"><rect x="-1069.4736" width="2699.8272" fill="#052d1f" height="2699.999895" y="-656.499984" fill-opacity="1"/></g></g></g></g></g></g></svg>