<svg width="176" height="173" viewBox="0 0 176 173" fill="none" xmlns="http://www.w3.org/2000/svg">
<g clip-path="url(#clip0_1_48)">
<path d="M24.1364 97.6148C21.7417 97.5201 20.0506 96.7624 19.0764 95.3418C18.0888 93.9212 17.6153 92.3247 17.6153 90.5389C17.6153 88.753 18.0888 86.2906 19.0223 83.4089C19.9559 80.5271 21.0923 77.3883 22.4182 74.0059C23.7441 70.6236 25.0835 67.3359 26.4229 64.143C28.0194 60.4089 29.8729 56.0118 31.9564 50.9383C34.04 45.8648 36.4076 40.25 39.0188 34.0671C41.6435 27.8842 44.5117 21.2412 47.6235 14.1383L17.2229 14.003C14.0164 14.003 11.4594 14.7336 9.55173 16.2083C7.64409 17.6695 6.6835 20.2265 6.6835 23.8795H-3.05176e-05L0.662911 2.1377H57.2023V13.2048C54.0906 19.523 51.4253 25.6112 49.2064 31.4695C46.9876 37.3412 44.9853 43.2265 43.1994 49.1389C41.4135 55.0512 39.7359 61.18 38.1394 67.5389C36.5429 73.8977 34.8111 80.7571 32.9441 88.1442C32.3217 90.5389 31.3206 92.7442 29.9406 94.7465C28.5606 96.7489 26.6259 97.6959 24.1364 97.6148Z" fill="#E5CDB5"/>
<path d="M112.673 76.0082C112.673 78.2271 112.632 80.3376 112.538 82.34C112.443 84.3424 112.321 85.9659 112.145 87.2106C113.742 87.0347 115.541 86.9265 117.544 86.8724C119.546 86.8318 121.115 86.8047 122.279 86.8047V95.4771H85.7359V88.1441H86.5341C88.9288 88.0629 90.8635 87.63 92.3382 86.8724C93.7994 86.1147 94.9088 84.7888 95.6664 82.8676C96.4241 80.96 96.8029 78.2676 96.8029 74.8041V70.7994H59.2047V60.26L105.746 0H112.686V60.1382H125.891V70.8129H112.686V76.0082H112.673ZM96.6812 24.9347L70.407 59.6106L96.8029 59.8812L96.9382 24.9482H96.6676L96.6812 24.9347Z" fill="#E5CDB5"/>
<path d="M139.055 41.2374V37.3815C140.097 37.3815 140.936 37.0839 141.572 36.4886C142.208 35.8933 142.735 35.1086 143.168 34.1345C143.601 33.1603 144.021 32.1186 144.426 30.9956L155.358 1.05505H159.282L171.201 31.5639C171.418 32.1186 171.729 32.9709 172.094 34.1074C172.459 35.2439 172.689 36.2451 172.771 37.0974C173.406 37.0298 174.015 36.9756 174.584 36.9621C175.165 36.9486 175.639 36.9351 176.004 36.9351V41.2509H160.946V37.5574C161.988 37.5574 162.705 37.3409 163.097 36.908C163.489 36.4751 163.665 35.8933 163.625 35.1492C163.584 34.4051 163.381 33.5662 163.016 32.6327L161.893 29.548L149.744 29.7645L148.851 32.3892C148.661 32.8762 148.391 33.5933 148.039 34.5403C147.687 35.4874 147.362 36.2856 147.051 36.9215C147.646 36.8539 148.364 36.7998 149.202 36.7862C150.041 36.7727 150.65 36.7592 151.015 36.7592V41.2374H139.042H139.055ZM151.151 25.5703H160.499L157.929 18.5756C157.442 17.2362 157.009 15.8833 156.644 14.5168C156.265 13.1503 155.994 11.9462 155.805 10.9045H155.751C155.602 11.5403 155.372 12.4874 155.074 13.7592C154.776 15.0309 154.303 16.5327 153.681 18.2915L151.164 25.5703H151.151Z" fill="#E5CDB5"/>
<path d="M144.805 95.0706C144.805 93.1358 145.062 91.3906 145.563 89.8617C146.064 88.3329 146.74 86.9529 147.579 85.7217C148.418 84.4906 149.351 83.3541 150.379 82.3123C151.408 81.2706 152.463 80.2423 153.545 79.2276C156.265 76.6841 158.199 74.3976 159.336 72.3411C160.472 70.2847 161.041 68.2553 161.041 66.2394C161.041 65.0488 160.892 63.8853 160.594 62.7623C160.296 61.6394 159.755 60.7194 158.971 59.9888C158.186 59.2582 157.09 58.92 155.669 58.947C154.655 58.947 153.762 59.177 152.95 59.6506C152.152 60.1241 151.543 60.6653 151.137 61.3011C151.543 61.7206 151.841 62.1941 152.003 62.7623C152.165 63.317 152.26 63.8041 152.26 64.2235C152.26 64.6429 152.125 65.13 151.868 65.7117C151.611 66.2935 151.205 66.7806 150.664 67.2C150.122 67.6194 149.392 67.8088 148.458 67.8088C147.308 67.7411 146.415 67.3082 145.793 66.5235C145.184 65.7388 144.873 64.8053 144.873 63.7229C144.873 62.857 145.13 61.937 145.658 60.9494C146.172 59.9617 146.97 59.0147 148.012 58.0947C149.054 57.1747 150.339 56.4306 151.841 55.8488C153.356 55.267 155.088 54.9829 157.076 54.9829C158.565 54.9829 160.053 55.1723 161.528 55.5376C163.002 55.9029 164.355 56.5117 165.586 57.3235C166.818 58.1488 167.792 59.2311 168.522 60.5706C169.253 61.91 169.618 63.5741 169.618 65.5494C169.618 66.4829 169.456 67.457 169.118 68.4853C168.779 69.5135 168.157 70.6364 167.264 71.8406C166.371 73.0582 165.113 74.4517 163.516 76.0076C161.906 77.577 159.836 79.4035 157.306 81.487C155.25 83.1647 153.735 84.6935 152.774 86.0735C151.8 87.4535 151.218 88.5223 151.042 89.2664L162.015 89.5506C162.867 89.5911 163.611 89.5235 164.22 89.3611C164.829 89.1988 165.316 88.8335 165.681 88.2923C166.046 87.7511 166.209 86.9529 166.209 85.9111H169.794L169.348 95.03H144.832L144.805 95.0706Z" fill="#E5CDB5"/>
<path d="M9.99827 125.268H7.77945V119.261H3.55827V125.268H1.33945V111.753H3.55827V117.232H7.77945V111.753H9.99827V125.268Z" fill="#E5CDB5"/>
<path d="M15.0582 111.753H18.0212L21.7147 125.268H19.4282L18.6165 122.116H14.5035L13.6918 125.268H11.4594L15.0447 111.753H15.0582ZM18.1565 120.236L17.2365 116.664L16.5465 113.606C16.3435 114.621 16.1271 115.541 15.87 116.664L14.9635 120.236H18.1565Z" fill="#E5CDB5"/>
<path d="M25.1106 111.753V125.268H22.8918V111.753H25.1106Z" fill="#E5CDB5"/>
<path d="M40.1418 121.412C40.1418 123.591 38.9377 125.255 36.0424 125.255H31.7265V111.739H35.853C38.7212 111.739 39.8848 113.349 39.8848 115.189C39.8848 116.718 39.0459 117.895 37.7201 118.125C39.2759 118.449 40.1283 119.599 40.1283 121.412H40.1418ZM33.9454 117.34H35.5824C37.1654 117.34 37.6118 116.474 37.6118 115.432C37.6118 114.391 37.0977 113.619 35.5418 113.619H33.9454V117.34ZM37.8418 121.318C37.8418 120.005 37.233 119.126 35.7583 119.126H33.9454V123.374H35.7042C37.3006 123.374 37.8418 122.508 37.8418 121.331V121.318Z" fill="#E5CDB5"/>
<path d="M44.4171 111.752H47.38L51.0735 125.268H48.7871L47.9753 122.116H43.8624L43.0506 125.268H40.8182L44.4035 111.752H44.4171ZM45.1747 108.573L46.8659 111.035H45.1747L42.6041 108.573H45.1747ZM47.5153 120.235L46.5953 116.664L45.9053 113.606C45.7024 114.621 45.4859 115.541 45.2288 116.664L44.3224 120.235H47.5153Z" fill="#E5CDB5"/>
<path d="M54.74 113.768V111.739H63.6829V113.768H60.3276V125.255H58.1088V113.768H54.74Z" fill="#E5CDB5"/>
<path d="M64.7247 125.268V111.753H68.8918C71.8547 111.753 73.0994 113.39 73.0994 115.541C73.0994 117.232 72.2876 118.49 70.9753 118.937L73.2347 125.255H70.8671L68.2965 117.76L68.3641 117.651H68.6482C70.1906 117.638 70.8129 117.029 70.8129 115.622C70.8129 114.283 70.2041 113.62 68.6347 113.62H66.9435V125.255H64.7247V125.268Z" fill="#E5CDB5"/>
<path d="M77.1988 111.753V121.548C77.1988 122.711 77.9565 123.469 79.2688 123.469C80.5812 123.469 81.3524 122.711 81.3524 121.548V111.753H82.9894C83.5171 111.753 83.7606 111.658 83.7606 111.306C83.7606 111.022 83.6253 110.603 83.3683 109.953H85.0188C85.3165 110.44 85.4924 111.076 85.4924 112.28L84.8024 112.903H83.5847V121.629C83.5847 123.956 82.0288 125.498 79.2824 125.498C76.5359 125.498 75.0071 123.956 75.0071 121.629V111.753H77.2259H77.1988Z" fill="#E5CDB5"/>
<path d="M86.0742 111.753H88.4553L92.3653 120.087C92.663 120.709 92.9336 121.426 93.123 122.17C93.0283 121.277 93.0283 120.398 93.0283 119.559V111.753H95.0577V125.268H92.6765L88.6718 116.691C88.4283 116.15 88.2389 115.608 88.0765 115.027C88.1306 115.703 88.1306 116.326 88.1306 116.961V125.282H86.0877V111.766L86.0742 111.753Z" fill="#E5CDB5"/>
<path d="M106.192 125.269H104.609V123.875C103.974 124.89 102.878 125.485 101.525 125.485C98.6565 125.485 97.06 122.955 97.06 118.369C97.06 113.782 98.7376 111.523 101.836 111.523C104.312 111.523 105.705 112.997 106.138 116.109H103.919C103.662 114.161 102.959 113.512 101.836 113.512C100.199 113.512 99.36 114.864 99.36 118.396C99.36 121.927 100.321 123.537 101.876 123.537C103.27 123.537 104.136 122.292 104.136 120.303V120.046L101.728 119.262V118.017H106.192V125.269Z" fill="#E5CDB5"/>
<path d="M52.0206 137.688C52.0206 140.218 50.4782 141.72 47.867 141.72H45.9188V147.145H43.7V133.63H47.8535C50.4782 133.63 52.0206 135.131 52.0206 137.688ZM49.7341 137.648C49.7341 136.254 49.0035 135.551 47.637 135.551H45.9323V139.799H47.6641C49.0035 139.799 49.7476 139.068 49.7476 137.661L49.7341 137.648Z" fill="#E5CDB5"/>
<path d="M62.3435 147.145H60.1247V141.138H55.9035V147.145H53.6847V133.63H55.9035V139.109H60.1247V133.63H62.3435V147.145Z" fill="#E5CDB5"/>
<path d="M67.0247 133.629V143.425C67.0247 144.588 67.7823 145.346 69.0947 145.346C70.407 145.346 71.1782 144.588 71.1782 143.425V133.629H72.8153C73.3429 133.629 73.5864 133.535 73.5864 133.183C73.5864 132.899 73.4512 132.493 73.1941 131.83H74.8447C75.1423 132.317 75.3182 132.953 75.3182 134.157L74.6282 134.779H73.4106V143.506C73.4106 145.833 71.8547 147.375 69.1082 147.375C66.3617 147.375 64.8329 145.833 64.8329 143.506V133.629H67.0517H67.0247Z" fill="#E5CDB5"/>
<path d="M75.2235 140.408C75.2235 135.523 76.9282 133.399 79.9723 133.399C80.6082 133.399 81.19 133.494 81.7041 133.683C82.0288 133.778 82.367 133.832 82.6376 133.832C83.03 133.832 83.2329 133.738 83.2329 133.359C83.2329 133.061 83.0976 132.588 82.8135 131.816H84.4505C84.7347 132.439 84.9376 133.494 84.9376 134.333L84.3153 134.969H83.3817C84.2476 136.092 84.6941 137.878 84.6941 140.394C84.6941 145.238 82.9894 147.362 79.9588 147.362C76.9282 147.362 75.21 145.238 75.21 140.394L75.2235 140.408ZM79.1876 130.45L80.8788 132.912H79.1876L76.617 130.45H79.1876ZM82.4076 140.408C82.4076 136.741 81.5688 135.388 79.9858 135.388C78.4029 135.388 77.5235 136.741 77.5235 140.408C77.5235 144.074 78.4029 145.386 79.9858 145.386C81.5688 145.386 82.4076 144.033 82.4076 140.408Z" fill="#E5CDB5"/>
<path d="M86.6694 133.63H89.0506L92.9606 141.964C93.2583 142.586 93.5288 143.303 93.7183 144.047C93.6235 143.168 93.6236 142.288 93.6236 141.436V133.63H95.653V147.145H93.2718L89.2671 138.568C89.0236 138.027 88.8341 137.485 88.6718 136.89C88.7259 137.567 88.7259 138.189 88.7259 138.825V147.145H86.683V133.63H86.6694Z" fill="#E5CDB5"/>
<path d="M106.788 147.146H105.205V145.752C104.569 146.767 103.473 147.362 102.12 147.362C99.2517 147.362 97.6553 144.832 97.6553 140.246C97.6553 135.659 99.3329 133.4 102.431 133.4C104.907 133.4 106.301 134.888 106.734 137.986H104.515C104.258 136.038 103.554 135.402 102.431 135.402C100.794 135.402 99.9553 136.755 99.9553 140.286C99.9553 143.817 100.916 145.427 102.472 145.427C103.865 145.427 104.731 144.183 104.731 142.194V141.937L102.323 141.152V139.907H106.788V147.159V147.146Z" fill="#E5CDB5"/>
<path d="M112.294 143.357L114.513 142.87C114.581 144.507 115.446 145.4 116.84 145.4C118.004 145.4 118.721 144.723 118.721 143.6C118.721 142.153 117.449 141.652 116.164 141.125C114.499 140.435 112.686 139.69 112.686 137.093C112.686 134.766 114.229 133.413 116.569 133.413C119.099 133.413 120.682 134.969 120.872 137.62H118.639C118.558 136.213 117.814 135.388 116.569 135.388C115.582 135.388 114.932 135.956 114.932 136.93C114.932 138.229 116.055 138.703 117.449 139.285C119.059 139.948 120.953 140.732 120.953 143.398C120.953 145.873 119.289 147.402 116.826 147.402C114.364 147.402 112.511 145.806 112.281 143.384L112.294 143.357Z" fill="#E5CDB5"/>
<path d="M125.269 133.629H128.232L131.925 147.145H129.639L128.827 143.993H124.714L123.902 147.145H121.67L125.255 133.629H125.269ZM126.026 130.45L127.718 132.912H126.026L123.456 130.45H126.026ZM128.367 142.112L127.447 138.541L126.757 135.483C126.554 136.498 126.338 137.418 126.081 138.541L125.174 142.112H128.367Z" fill="#E5CDB5"/>
<path d="M135.321 133.63V147.145H133.102V133.63H135.321Z" fill="#E5CDB5"/>
<path d="M150.582 147.146H148.999V145.752C148.364 146.767 147.268 147.362 145.915 147.362C143.046 147.362 141.45 144.832 141.45 140.246C141.45 135.659 143.128 133.4 146.226 133.4C148.702 133.4 150.095 134.888 150.528 137.986H148.309C148.052 136.038 147.349 135.402 146.226 135.402C144.589 135.402 143.75 136.755 143.75 140.286C143.75 143.817 144.711 145.427 146.266 145.427C147.66 145.427 148.526 144.183 148.526 142.194V141.937L146.118 141.152V139.907H150.582V147.159V147.146Z" fill="#E5CDB5"/>
<path d="M152.138 140.408C152.138 135.523 153.843 133.399 156.887 133.399C159.931 133.399 161.622 135.523 161.622 140.408C161.622 145.292 159.918 147.375 156.887 147.375C153.856 147.375 152.138 145.251 152.138 140.408ZM156.102 130.45L157.793 132.912H156.102L153.532 130.45H156.102ZM159.309 140.408C159.309 136.741 158.47 135.388 156.887 135.388C155.304 135.388 154.425 136.741 154.425 140.408C154.425 144.074 155.304 145.386 156.887 145.386C158.47 145.386 159.309 144.033 159.309 140.408Z" fill="#E5CDB5"/>
<path d="M163.638 133.63H166.019L169.929 141.964C170.227 142.586 170.498 143.303 170.687 144.047C170.592 143.168 170.592 142.288 170.592 141.436V133.63H172.622V147.145H170.241L166.236 138.568C165.992 138.027 165.803 137.485 165.641 136.89C165.695 137.567 165.695 138.189 165.695 138.825V147.145H163.652V133.63H163.638Z" fill="#E5CDB5"/>
<path d="M0.324738 157.536V155.506H9.26768V157.536H5.91238V169.022H3.69356V157.536H0.324738Z" fill="#E5CDB5"/>
<path d="M18.6436 159.565C18.6436 162.095 17.1012 163.597 14.49 163.597H12.5418V169.022H10.323V155.506H14.4765C17.1012 155.506 18.6436 157.008 18.6436 159.565ZM16.3571 159.525C16.3571 158.131 15.6265 157.428 14.26 157.428H12.5553V161.676H14.2871C15.6265 161.676 16.3706 160.945 16.3706 159.538L16.3571 159.525Z" fill="#E5CDB5"/>
<path d="M18.4542 167.899V167.791L19.8612 166.208H20.0777L21.4848 167.791V167.899L20.0777 169.455H19.8612L18.4542 167.899Z" fill="#E5CDB5"/>
<path d="M36.3941 169.022H34.1753V163.015H29.9541V169.022H27.7353V155.506H29.9541V160.986H34.1753V155.506H36.3941V169.022Z" fill="#E5CDB5"/>
<path d="M43.0912 169.252C40.1012 169.252 38.4101 167.088 38.4101 162.285C38.4101 157.482 40.1012 155.277 43.0912 155.277C45.6212 155.277 47.3124 156.954 47.5289 160.228H45.3101C45.1477 158.131 44.3359 157.265 43.0912 157.265C41.5759 157.265 40.7101 158.632 40.7101 162.285C40.7101 165.938 41.5759 167.264 43.0912 167.264C44.4442 167.264 45.2695 166.263 45.4183 163.868L47.5154 164.301C47.2718 167.588 45.6212 169.252 43.0777 169.252H43.0912Z" fill="#E5CDB5"/>
<path d="M49.4365 155.506H52.4265L54.9023 164.179C55.0647 164.76 55.1459 165.193 55.2 165.545C55.2541 165.193 55.3353 164.76 55.4976 164.192L58.0006 155.493H60.8553V169.009H58.8665V160.16C58.8665 159.389 58.8665 158.618 58.9206 157.806C58.8259 158.347 58.6229 159.2 58.3794 160.079L55.9441 168.995H54.3612L51.9259 160.106C51.75 159.484 51.5335 158.618 51.3441 157.793C51.3982 158.55 51.3982 159.335 51.3982 160.12V168.981H49.45V155.466L49.4365 155.506Z" fill="#E5CDB5"/>
<path d="M63.453 171.742L62.8171 171.484L63.6018 168.954L62.6006 167.804V167.696L63.9671 166.113H64.1836L65.6448 168.102V168.21L63.4259 171.742H63.453Z" fill="#E5CDB5"/>
<path d="M79.5124 155.506L76.1435 169.022H73.1806L69.7306 155.506H72.0171L73.8706 163.556C74.1276 164.666 74.4118 165.816 74.6553 166.939C74.8853 165.829 75.1829 164.625 75.4265 163.556L77.2665 155.506H79.4988H79.5124Z" fill="#E5CDB5"/>
<path d="M82.8948 155.506V169.022H80.6759V155.506H82.8948Z" fill="#E5CDB5"/>
<path d="M92.0271 161.026V163.002H87.6165V167.006H92.5006V169.036H85.3977V155.52H92.3653V157.522H87.6165V161.026H92.0271ZM89.8218 152.327L91.8918 154.789H89.9436L88.9153 153.666L87.8871 154.789H85.9389L88.0089 152.327H89.8489H89.8218ZM87.4541 171.241V171.16L88.8071 169.888H88.9965L90.3494 171.16V171.241L88.9965 172.499H88.8071L87.4541 171.241Z" fill="#E5CDB5"/>
<path d="M93.4341 157.536V155.506H102.377V157.536H99.0218V169.022H96.803V157.536H93.4341Z" fill="#E5CDB5"/>
<path d="M107.532 155.506H109.913L113.823 163.841C114.121 164.463 114.391 165.18 114.581 165.924C114.486 165.045 114.486 164.165 114.486 163.313V155.506H116.515V169.022H114.134L110.129 160.445C109.886 159.904 109.696 159.362 109.534 158.767C109.588 159.444 109.588 160.066 109.588 160.702V169.022H107.545V155.506H107.532Z" fill="#E5CDB5"/>
<path d="M121.562 155.506H124.525L128.218 169.022H125.932L125.12 165.87H121.007L120.195 169.022H117.963L121.548 155.506H121.562ZM124.66 163.989L123.74 160.418L123.05 157.36C122.847 158.375 122.631 159.295 122.374 160.418L121.467 163.989H124.66Z" fill="#E5CDB5"/>
<path d="M129.395 155.506H132.385L134.861 164.179C135.024 164.76 135.105 165.193 135.159 165.545C135.213 165.193 135.294 164.76 135.457 164.192L137.96 155.493H140.814V169.009H138.825V160.16C138.825 159.389 138.825 158.618 138.88 157.806C138.785 158.347 138.582 159.2 138.338 160.079L135.903 168.995H134.32L131.885 160.106C131.709 159.484 131.492 158.618 131.303 157.793C131.357 158.55 131.357 159.335 131.357 160.12V168.981H129.409V155.466L129.395 155.506Z" fill="#E5CDB5"/>
</g>
<defs>
<clipPath id="clip0_1_48">
<rect width="176.004" height="172.5" fill="white"/>
</clipPath>
</defs>
</svg>
