<?xml version="1.0" encoding="UTF-8"?>
<svg id="Layer_1" xmlns="http://www.w3.org/2000/svg" version="1.1" viewBox="0 0 841.89 595.28">
  <!-- Generator: Adobe Illustrator 30.0.0, SVG Export Plug-In . SVG Version: 2.1.1 Build 123)  -->
  <defs>
    <style>
      .st0 {
        fill: #052e20;
      }
    </style>
  </defs>
  <g>
    <path class="st0" d="M4809.1,200.55c3.92,0,6.27,2.74,6.27,7.04,0,10.55-11.35,20.31-11.35,45.71,9.39-26.56,27.75-39.06,27.75-53.51,0-7.04-4.67-11.72-12.51-11.72-8.98,0-15.24,6.64-16.79,16.8,2.35-3.13,4.69-4.3,6.63-4.3h0Z"/>
    <path class="st0" d="M4848.55,146.64c-15.63,0-29.3,10.55-33.22,26.56,6.63-3.13,13.67-5.47,19.55-5.47,10.16,0,16.4,6.64,16.4,17.97,0,29.68-46.09,51.96-46.09,99.61,0,39.46,30.87,52.34,30.87,77.35,0,11.72-6.65,19.92-16.81,19.92-20.3,0-26.54-34.38-28.91-46.1-2.32-12.12-10.93-52.34-38.66-52.34-10.55,0-20.32,5.47-33.6,5.47s-25.38-5.47-35.93-14.06v5.87l-.39,20.71c-8.59-5.08-21.51-17.97-26.18-27.74-4.69,5.08-13.28,15.24-29.68,15.24-17.97,0-23.44-12.5-33.6-12.5-7.4,0-12.48,6.64-12.48,15.24v3.51c2.32-3.13,5.47-4.68,8.98-4.68,2.76,0,5.08.79,7.43,2.34-8.59,0-14.47,5.46-14.47,14.06,0,7.03,3.14,12.5,7.04,16.01,1.19-7.42,5.08-12.89,11.73-13.29-2.35,1.56-4.31,6.64-4.31,10.55,0,8.59,6.63,14.06,17.18,15.63-.39-2.34-.77-3.91-.77-5.86,0-7.03,4.67-13.29,12.87-13.29,13.31,0,21.89-.78,28.93-2.74-2.35,1.95-3.53,5.46-3.53,8.99,0,1.95.8,4.68,1.57,5.86,3.12-3.91,7.04-5.86,12.51-5.86,10.52,0,15.6,7.81,33.99,7.81-.39-.79-.39-1.96-.39-3.13,0-5.08,3.89-9.38,12.48-9.38,9.39,0,14.85,5.46,14.85,12.12,0,7.81-7.81,12.5-21.1,12.5h-34.38c-18.36,0-31.64,8.99-33.6,20.71,3.15-1.56,8.61-2.34,14.06-2.34-6.24,3.91-9.36,10.55-9.36,17.58,0,4.3,1.16,10.93,4.28,14.06,1.57-3.91,5.08-6.64,10.16-6.64,6.65,0,10.93,4.68,10.93,12.5,0,8.21-4.28,12.88-11.32,12.88-14.47,0-28.14-19.53-47.27-19.53-16.02,0-22.26,15.24-22.26,15.24,3.92-.38,7.81-.38,10.16,0-7.81,2.74-14.83,10.55-14.83,19.14,0,1.56.36,4.68,1.55,7.81,3.12-7.42,9.36-10.93,15.63-10.93-3.92,1.96-6.27,7.42-6.27,12.5,0,7.42,4.31,14.84,16.02,19.53-1.16-1.95-1.16-5.46-1.16-8.2,0-9.76,5.47-16.01,13.67-16.01,7.04,0,12.12,6.25,12.12,14.84h70.71c-4.69-7.81-7.81-17.18-7.81-26.96,0-23.05,16.4-40.63,38.68-40.63-12.12,7.42-19.14,25.79-19.14,43.35,0,16.41,6.24,31.25,15.24,38.29,0-7.03,4.28-12.5,12.1-12.5,6.65,0,12.51,5.46,12.51,12.89,0,7.8-5.85,13.67-12.12,13.67-6.63,0-13.28-5.47-21.48-5.47-9.39,0-17.59,7.04-17.59,18.37,0,3.91.8,8.99,3.12,12.89.8-7.03,4.31-12.12,9-12.12-2.35,3.51-3.51,8.21-3.51,12.12,0,7.03,3.51,14.06,10.16,18.37-.8-7.81,1.96-14.46,7.43-19.14-1.19,13.67,7.79,22.26,20.71,25-1.57-3.51-1.96-7.03-1.96-9.76,0-10.55,5.85-17.58,15.63-17.58,3.12,0,6.63.78,7.79,3.13,15.24-16.41,30.09-39.46,39.84-60.93l-1.94-1.17c-2.35.38-5.88,1.56-9.77,1.56-12.89,0-20.71-8.59-20.71-23.43,0-8.99,2.73-22.66,7.81-30.87,9.36,9.76,19.52,14.84,30.87,14.84,20.3,0,34.38-15.24,34.38-37.89,0-31.25-26.18-42.58-26.18-63.68,0-10.55,6.63-17.18,16.4-17.18s13.67,6.64,13.67,14.06c0,4.3-1.94,9.76-4.28,14.84,13.67-4.29,22.26-14.06,22.26-26.56s-9.75-21.88-23.44-21.88c-12.87,0-24.6,8.21-28.5,19.92,8.2-37.89,58.21-56.64,58.21-99.22,0-21.09-12.89-36.33-32.42-36.33h-.07Z"/>
    <path class="st0" d="M4652.07,264.61c-17.2-10.16-27.31-28.01-27.36-51.17-.02-15.03-4.64-23.13-11.47-24.62-1.14-.26-2.18-.37-3.17-.37-.39,0-.75.01-1.11.06-2.35.21-4.33,1.11-6.12,2.45-3.63,2.75-5.52,7.09-6.24,10.37-2.35-1.96-3.89-6.25-3.89-10.16,0-4.68,1.94-10.55,5.47-12.89-4.69,0-8.59,1.95-12.89,6.25-1.16-8.21,1.16-16.8,9.36-22.26-4.69,0-8.2,2.34-10.93,6.25-.94-10.87,5.95-19.44,18.36-22.16,2.23-.46,4.55-.71,6.89-.81.75-.03,1.52-.04,2.3-.04.7,0,1.43,0,2.13.04,7.91.36,13.67,1.86,16.4,3.05,2.35,25.77,14.85,51.94,29.68,67.19-9.36,12.49-13.67,29.68-7.4,48.82Z"/>
    <path class="st0" d="M4574.78,93.98v-14.31h23.13l6.17,5.65h39.72v8.65c-46.09,0-69.09.01-69.02.01Z"/>
    <path class="st0" d="M4643.77,137.87h-69v-40.89h69v40.89ZM4580.97,127.65l3.36,3.8,3.17-3.8-3.17-4.22-3.36,4.22ZM4588.13,127.65l3.36,3.8,3.58-3.8-3.58-4.22-3.36,4.22ZM4595.48,127.65l3.17,3.8,3.36-3.8-3.36-4.22-3.17,4.22Z"/>
    <path class="st0" d="M4656.76,178.29c1.16,7.81,6.24,12.5,15.63,12.5,8.2,0,16.79-2.74,31.62-7.42-.36,7.42-8.2,11.72-16.79,11.72l-2.73-3.91-1.55,3.13-3.92-1.17,2.73,8.59c2.73,1.96,5.47,3.51,10.93,3.51,12.12,0,19.93-7.42,21.1-16.8,2.73,3.13,3.51,8.59,1.55,13.29,7.43-2.74,13.28-9.38,12.12-17.58,2.73.39,3.12,4.68,3.12,7.04,0,11.72-9.75,17.18-33.97,18.75-25.01,1.56-38.3,14.06-38.3,35.93,0,13.67,5.47,27.34,14.06,35.55.8-10.16,3.92-17.97,8.59-21.88,8.2,13.29,22.67,20.31,37.5,20.31,12.12,0,23.85-4.68,34.38-4.68s19.55,4.68,25.79,13.29c3.15-13.29,1.19-26.96-4.67-37.1,4.28,0,8.59,3.13,12.51,8.99,3.89-10.93,5.85-19.92,5.85-32.04,0-23.43-7.04-46.09-17.18-57.42,4.28,1.56,8.59,5.08,10.16,8.21,1.16-15.63-5.47-26.96-16.01-28.13,2.73-3.13,4.67-7.42,4.31-12.89-6.65,1.95-11.73,1.95-16.81.78,3.12-3.91,3.92-8.99,1.57-12.5,0,0-5.88,4.68-19.55,4.68-27.34,0-40.23,3.91-46.09,15.63-7.43,0-18.39,4.3-27.75,10.55.77,12.89,5.47,19.14,13.28,20.31l3.51,3.13,1.19-4.3c3.89-1.56,6.24-3.13,11.71-3.13,5.08,0,7.81,1.56,9,5.08-5.08,1.56-19.16,5.08-30.09,5.08-7.04,0-13.28-1.56-16.79-5.08ZM4688.4,244.3l-6.27-12.5,6.27-5.08,6.24,5.08-6.24,12.5ZM4704.01,264.61l-7.4-11.72,5.47-7.04,7.4,6.25-5.47,12.5ZM4713.78,240.39l-9.77-10.16,4.31-7.04,7.81,3.51-2.35,13.67h0ZM4748.93,234.93v-10.55h10.55l5.08,16.41-15.63-5.87ZM4762.24,182.18l7.4,14.46-16.01-4.3-.77-8.99,9.39-1.17ZM4742.69,200.55l8.59-.78,5.88,14.46-14.47-5.08v-8.59ZM4724.33,248.98l2.35-9.76,9.39,2.74,2.32,18.37-14.06-11.33h0ZM4738.77,231.4l-14.06-7.42,1.57-9.38h8.59l3.89,16.8ZM4715.35,145.08l15.24,3.91-15.24,8.21-10.55-5.47,10.55-6.64h0Z"/>
  </g>
  <g>
    <path class="st0" d="M2223.68,200.53c3.91,0,6.25,2.74,6.25,7.04,0,10.55-11.33,20.31-11.33,45.71,9.37-26.56,27.74-39.06,27.74-53.51,0-7.04-4.68-11.72-12.5-11.72-8.99,0-15.24,6.64-16.8,16.8,2.34-3.13,4.68-4.3,6.64-4.3h0Z"/>
    <path class="st0" d="M2263.13,146.63c-15.63,0-29.3,10.55-33.21,26.56,6.64-3.13,13.67-5.47,19.54-5.47,10.16,0,16.41,6.64,16.41,17.97,0,29.68-46.09,51.96-46.09,99.61,0,39.46,30.87,52.34,30.87,77.35,0,11.72-6.64,19.92-16.8,19.92-20.31,0-26.56-34.38-28.91-46.1-2.34-12.12-10.93-52.34-38.67-52.34-10.55,0-20.31,5.46-33.59,5.46s-25.39-5.46-35.93-14.06v5.87l-.38,20.71c-8.59-5.08-21.49-17.97-26.17-27.74-4.68,5.08-13.29,15.24-29.68,15.24-17.96,0-23.43-12.5-33.59-12.5-7.42,0-12.5,6.64-12.5,15.24v3.51c2.34-3.13,5.46-4.68,8.99-4.68,2.74,0,5.08.79,7.42,2.34-8.59,0-14.46,5.46-14.46,14.06,0,7.03,3.13,12.5,7.04,16.01,1.17-7.42,5.08-12.89,11.72-13.29-2.34,1.56-4.29,6.64-4.29,10.55,0,8.59,6.64,14.06,17.18,15.63-.38-2.34-.78-3.91-.78-5.86,0-7.03,4.68-13.29,12.88-13.29,13.29,0,21.88-.78,28.91-2.74-2.34,1.96-3.51,5.47-3.51,8.99,0,1.95.79,4.68,1.56,5.86,3.13-3.91,7.04-5.86,12.5-5.86,10.55,0,15.63,7.8,33.99,7.8-.38-.78-.38-1.95-.38-3.12,0-5.08,3.91-9.38,12.5-9.38,9.38,0,14.84,5.46,14.84,12.12,0,7.81-7.81,12.5-21.09,12.5h-34.38c-18.37,0-31.64,8.99-33.59,20.71,3.13-1.56,8.59-2.34,14.06-2.34-6.25,3.91-9.37,10.55-9.37,17.58,0,4.29,1.17,10.93,4.29,14.06,1.56-3.91,5.08-6.64,10.16-6.64,6.64,0,10.93,4.68,10.93,12.5,0,8.21-4.3,12.88-11.33,12.88-14.45,0-28.13-19.53-47.26-19.53-16.01,0-22.26,15.24-22.26,15.24,3.91-.38,7.8-.38,10.16,0-7.81,2.74-14.84,10.55-14.84,19.14,0,1.56.38,4.68,1.56,7.81,3.13-7.42,9.37-10.93,15.63-10.93-3.91,1.95-6.25,7.42-6.25,12.5,0,7.42,4.3,14.84,16.01,19.53-1.17-1.95-1.17-5.46-1.17-8.21,0-9.76,5.47-16.01,13.67-16.01,7.04,0,12.12,6.25,12.12,14.84h70.71c-4.68-7.81-7.81-17.18-7.81-26.96,0-23.05,16.41-40.63,38.67-40.63-12.12,7.42-19.14,25.79-19.14,43.35,0,16.41,6.25,31.25,15.24,38.29,0-7.03,4.3-12.5,12.12-12.5,6.64,0,12.5,5.46,12.5,12.88,0,7.81-5.86,13.67-12.12,13.67-6.64,0-13.29-5.47-21.49-5.47-9.37,0-17.58,7.03-17.58,18.37,0,3.91.78,8.99,3.13,12.89.78-7.03,4.29-12.12,8.99-12.12-2.34,3.51-3.51,8.21-3.51,12.12,0,7.03,3.51,14.06,10.16,18.37-.79-7.81,1.95-14.46,7.42-19.14-1.17,13.67,7.81,22.26,20.71,25-1.56-3.51-1.95-7.03-1.95-9.76,0-10.55,5.87-17.58,15.63-17.58,3.12,0,6.64.78,7.8,3.13,15.24-16.41,30.08-39.46,39.84-60.93l-1.95-1.17c-2.34.38-5.87,1.56-9.76,1.56-12.89,0-20.71-8.59-20.71-23.43,0-8.99,2.74-22.66,7.8-30.87,9.38,9.76,19.54,14.84,30.87,14.84,20.31,0,34.38-15.24,34.38-37.89,0-31.25-26.17-42.58-26.17-63.68,0-10.55,6.63-17.18,16.41-17.18s13.67,6.64,13.67,14.06c0,4.3-1.95,9.76-4.29,14.84,13.67-4.3,22.26-14.06,22.26-26.56s-9.76-21.88-23.43-21.88c-12.89,0-24.62,8.21-28.51,19.92,8.21-37.89,58.21-56.64,58.21-99.22,0-21.09-12.89-36.33-32.42-36.33h-.07Z"/>
    <path class="st0" d="M2074.82,111.5s-21.48,3.67-35.86,11.3l-8.55,4.7-3.51-3.95,1.03-21.45c7.08-5.65,17.29-9.35,27.04-10.63.89-.11,1.95-.27,2.8-.24l17.06,20.28Z"/>
    <path class="st0" d="M2024.72,123.15l-3.58,4.31-8.45-4.65c-14.4-7.63-35.88-11.3-35.88-11.3l17.05-20.28c.86-.03,1.93.13,2.8.24,9.75,1.28,19.97,4.98,27.04,10.63l1.01,21.05Z"/>
    <path class="st0" d="M2018.98,130.04l6.61,7.92c-4.82-.21-57.24-6.04-57.24-6.04l3.74-8.02.1-.2s9.58,1.04,15.67,2.48c6.09,1.44,18.78,5.24,18.78,5.24l.07-.24s-12.54-4.64-18.48-6.12c-5.94-1.48-15.17-3.14-15.17-3.14l3.28-6.68s5.51.93,7.12,1.27c19.91,4.17,31.34,11.07,35.56,13.49l-.04.04Z"/>
    <path class="st0" d="M2032.19,130.04l-6.61,7.92c4.82-.21,57.24-6.04,57.24-6.04l-3.74-8.02-.1-.2s-9.58,1.04-15.67,2.48c-6.09,1.44-18.78,5.24-18.78,5.24l-.07-.24s12.54-4.64,18.48-6.12c5.94-1.48,15.17-3.14,15.17-3.14l-3.28-6.68s-5.51.93-7.12,1.27c-19.91,4.17-31.34,11.07-35.56,13.49l.04.04Z"/>
    <path class="st0" d="M2044.37,148.6c-2.74-1.2-8.49-2.7-16.4-3.05-3.77-.14-7.71.09-11.33.81-12.42,2.73-19.31,11.29-18.35,22.16,2.74-3.91,6.25-6.25,10.93-6.25-8.21,5.47-10.55,14.06-9.37,22.26,4.29-4.3,8.21-6.25,12.88-6.25-3.51,2.34-5.46,8.21-5.46,12.89,0,3.91,1.56,8.21,3.91,10.16.73-3.28,2.61-7.62,6.25-10.37,2.8-2.11,6.04-3.1,10.39-2.15,6.82,1.48,11.46,9.59,11.49,24.63.04,23.15,10.16,41.01,27.34,51.16-6.25-19.14-1.95-36.32,7.42-48.82-14.84-15.23-27.34-41.4-29.68-67.17h-.01Z"/>
    <path class="st0" d="M2131.56,162.23c7.69.21,14.13-5.87,14.34-13.56.21-7.69-5.86-14.14-13.56-14.36-7.69-.21-14.14,5.88-14.36,13.57-.22,7.69,5.86,14.13,13.57,14.34ZM2130.22,144.38l11.2,2.87-11.2,6.04-7.75-4.02,7.75-4.88Z"/>
    <path class="st0" d="M2073.25,179.83c-.71-.47-1.35-.98-1.93-1.56,1.19,7.81,6.25,12.5,15.63,12.5,8.19,0,16.77-2.74,31.59-7.41.01,0,.04-.01.06-.01-.4,7.42-8.21,11.72-16.8,11.72l-2.74-3.91-1.57,3.13-3.68-1.1-.22-.07,2.73,8.59c2.74,1.96,5.48,3.52,10.94,3.52,8.81,0,15.34-3.94,18.71-9.7,0-.01.01-.03.01-.03,1.24-2.14,2.05-4.54,2.37-7.08.1.11.2.23.27.36.38.46.7.96.97,1.48,1.57,2.95,1.88,6.99.61,10.65-.09.27-.19.54-.3.8,4.85-1.78,9.02-5.24,11.02-9.69.03-.06.06-.11.07-.16,1.01-2.34,1.43-4.95,1.03-7.73.2.03.4.09.57.16.24.09.44.21.64.37.13.09.24.2.34.33.16.14.27.3.38.47.74.97,1.34,2.3,1.67,3.84,5.14-12.37,4.91-30.57,4.7-36.15l-1.37-.04c-2.14,7.62-9.26,13.1-17.51,12.87-9.76-.27-17.48-8.43-17.21-18.18.14-4.97,2.31-9.39,5.69-12.52-.08.03-.17.06-.26.1-.24.1-.47.2-.7.31-5.05,2.23-8.59,5.38-11.05,9.69-.24.4-.45.81-.67,1.24-7.09,0-17.41,3.94-26.5,9.76-.41.26-.83.53-1.24.8.78,12.89,5.46,19.14,13.29,20.31l3.51,3.13.44-1.61.73-2.68c.14-.06.29-.11.42-.17,3.67-1.51,6.04-2.95,11.31-2.95,4.71,0,7.41,1.34,8.69,4.35.11.23.2.47.29.73-5.08,1.56-19.14,5.08-30.08,5.08-5.88,0-11.22-1.1-14.87-3.52Z"/>
    <path class="st0" d="M2149.64,148.78c0,.2,0,.4-.03.6l4.25.11.11,1.7c.12,1.64,2.36,36.7-11.42,49.36-.98,1.03-2.21,1.96-3.68,2.78-5.34,3.65-14.31,5.72-27.7,6.58-25,1.57-38.29,14.06-38.29,35.93,0,12.27,4.41,24.56,11.53,32.86.8.96,1.64,1.84,2.53,2.68.74-9.6,3.58-17.12,7.86-21.22.24-.23.48-.44.74-.66,3.04,4.95,6.96,9.02,11.43,12.2.04.01.09.04.11.07,7.55,5.29,16.67,8.05,25.95,8.05,8.68,0,17.15-2.41,25.14-3.78h.07c3.14-.54,6.19-.91,9.16-.91,9.83,0,17.77,3.8,23.8,10.79.69.78,1.34,1.63,1.98,2.5,2.93-12.46,1.4-25.26-3.65-35.16-.33-.67-.67-1.31-1.04-1.94,3.99,0,7.96,2.68,11.61,7.72.3.4.6.83.89,1.26,3.91-10.93,5.86-19.92,5.86-32.02s-1.98-24.69-5.37-35.12c-.21-.64-.43-1.27-.64-1.9-2.44-7.01-5.52-13.11-9.06-17.82-.68-.91-1.38-1.78-2.11-2.58,4.3,1.56,8.59,5.08,10.15,8.19.66-8.85-1.18-16.33-4.82-21.35-.01-.04-.06-.07-.09-.11-2.4-3.27-5.56-5.48-9.3-6.35h-.01c-.59-.13-1.17-.23-1.78-.3,2.57-2.94,4.44-6.92,4.32-11.92,0-.31-.01-.64-.03-.98-5.88,1.73-10.53,1.93-15.04,1.14-.59-.1-1.17-.23-1.76-.36,2.68-3.37,3.64-7.59,2.38-10.93-.21-.56-.48-1.07-.81-1.57,0,0-5.86,4.7-19.53,4.7-5.81,0-10.96.17-15.54.57,7.05,2.48,12.04,9.32,11.82,17.2ZM2102.98,244.29l-.86-1.71-5.39-10.79,6.25-5.08,4.37,3.54,1.88,1.54-6.25,12.5ZM2118.6,264.59l-1.63-2.57-5.79-9.15,4.42-5.68,1.04-1.36,7.42,6.25-5.46,12.5ZM2128.36,240.38l-1.38-1.44-8.38-8.72,4.3-7.02,6.82,3.07.98.44-2.34,13.67ZM2150.31,258.16l-11.4-9.19,2.31-9.62.03-.14,9.37,2.74,2.34,18.35-2.65-2.14ZM2152.11,230.73l-8.69-4.58-4.12-2.18.03-.16,1.46-8.7.08-.51h8.59l3.91,16.81-1.26-.67ZM2177.51,240.16l-13.99-5.25v-10.55h10.55l5.08,16.41-1.64-.61ZM2176.8,182.17l.33.63,7.09,13.83-15.45-4.14-.56-.16-.79-8.98,9.38-1.18ZM2157.28,200.53l8.59-.78,5.35,13.23.5,1.23-14.44-5.08v-8.59Z"/>
  </g>
  <g>
    <path class="st0" d="M499.6,200.53c3.91,0,6.25,2.74,6.25,7.04,0,10.55-11.33,20.31-11.33,45.71,9.38-26.56,27.74-39.06,27.74-53.51,0-7.04-4.68-11.72-12.5-11.72-8.99,0-15.24,6.64-16.8,16.8,2.34-3.13,4.68-4.3,6.64-4.3h0Z"/>
    <path class="st0" d="M539.06,146.63c-15.63,0-29.3,10.55-33.21,26.56,6.64-3.13,13.67-5.47,19.54-5.47,10.16,0,16.41,6.64,16.41,17.97,0,29.68-46.09,51.96-46.09,99.61,0,39.46,30.87,52.34,30.87,77.35,0,11.72-6.64,19.92-16.8,19.92-20.31,0-26.56-34.38-28.91-46.1-2.34-12.12-10.93-52.34-38.67-52.34-10.55,0-20.31,5.46-33.59,5.46s-25.39-5.46-35.93-14.06v5.87l-.39,20.71c-8.59-5.08-21.49-17.97-26.17-27.74-4.68,5.08-13.29,15.24-29.68,15.24-17.97,0-23.43-12.5-33.59-12.5-7.42,0-12.5,6.64-12.5,15.24v3.51c2.34-3.13,5.47-4.68,8.99-4.68,2.74,0,5.08.79,7.42,2.34-8.59,0-14.46,5.46-14.46,14.06,0,7.03,3.13,12.5,7.04,16.01,1.17-7.42,5.08-12.89,11.72-13.29-2.34,1.56-4.3,6.64-4.3,10.55,0,8.59,6.64,14.06,17.18,15.63-.39-2.34-.79-3.91-.79-5.86,0-7.03,4.68-13.29,12.89-13.29,13.29,0,21.88-.78,28.91-2.74-2.34,1.96-3.51,5.47-3.51,8.99,0,1.95.79,4.68,1.56,5.86,3.13-3.91,7.04-5.86,12.5-5.86,10.55,0,15.63,7.8,33.99,7.8-.39-.78-.39-1.95-.39-3.12,0-5.08,3.91-9.38,12.5-9.38,9.38,0,14.84,5.46,14.84,12.12,0,7.81-7.81,12.5-21.09,12.5h-34.38c-18.37,0-31.64,8.99-33.59,20.71,3.13-1.56,8.59-2.34,14.06-2.34-6.25,3.91-9.38,10.55-9.38,17.58,0,4.29,1.17,10.93,4.3,14.06,1.56-3.91,5.08-6.64,10.16-6.64,6.64,0,10.93,4.68,10.93,12.5,0,8.21-4.3,12.88-11.33,12.88-14.46,0-28.13-19.53-47.26-19.53-16.01,0-22.26,15.24-22.26,15.24,3.91-.38,7.81-.38,10.16,0-7.81,2.74-14.84,10.55-14.84,19.14,0,1.56.39,4.68,1.56,7.81,3.13-7.42,9.38-10.93,15.63-10.93-3.91,1.95-6.25,7.42-6.25,12.5,0,7.42,4.3,14.84,16.01,19.53-1.17-1.95-1.17-5.46-1.17-8.21,0-9.76,5.47-16.01,13.67-16.01,7.04,0,12.12,6.25,12.12,14.84h70.71c-4.68-7.81-7.81-17.18-7.81-26.96,0-23.05,16.41-40.63,38.67-40.63-12.12,7.42-19.14,25.79-19.14,43.35,0,16.41,6.25,31.25,15.24,38.29,0-7.03,4.3-12.5,12.12-12.5,6.64,0,12.5,5.46,12.5,12.88,0,7.81-5.87,13.67-12.12,13.67-6.64,0-13.29-5.47-21.49-5.47-9.38,0-17.58,7.03-17.58,18.37,0,3.91.78,8.99,3.13,12.89.78-7.03,4.3-12.12,8.99-12.12-2.34,3.51-3.51,8.21-3.51,12.12,0,7.03,3.51,14.06,10.16,18.37-.78-7.81,1.96-14.46,7.42-19.14-1.17,13.67,7.81,22.26,20.71,25-1.56-3.51-1.95-7.03-1.95-9.76,0-10.55,5.87-17.58,15.63-17.58,3.13,0,6.64.78,7.81,3.13,15.24-16.41,30.08-39.46,39.84-60.93l-1.96-1.17c-2.34.38-5.87,1.56-9.76,1.56-12.89,0-20.71-8.59-20.71-23.43,0-8.99,2.74-22.66,7.81-30.87,9.38,9.76,19.54,14.84,30.87,14.84,20.31,0,34.38-15.24,34.38-37.89,0-31.25-26.17-42.58-26.17-63.68,0-10.55,6.63-17.18,16.41-17.18s13.67,6.64,13.67,14.06c0,4.3-1.95,9.76-4.29,14.84,13.67-4.3,22.26-14.06,22.26-26.56s-9.76-21.88-23.43-21.88c-12.89,0-24.62,8.21-28.51,19.92,8.21-37.89,58.21-56.64,58.21-99.22,0-21.09-12.89-36.33-32.42-36.33h-.07Z"/>
    <path class="st0" d="M285.15,162.28c-8.21,5.47-10.55,14.06-9.38,22.26,4.3-4.3,8.21-6.25,12.89-6.25-3.51,2.34-5.47,8.21-5.47,12.89,0,3.91,1.56,8.21,3.91,10.16.73-3.28,2.61-7.62,6.25-10.37,2.8-2.11,6.04-3.1,10.39-2.15,6.82,1.48,11.46,9.59,11.49,24.63.04,23.15,10.16,41.01,27.34,51.16-6.25-19.14-1.95-36.32,7.42-48.82-14.84-15.23-27.34-41.4-29.68-67.17-2.74-1.2-8.49-2.7-16.4-3.05-3.77-.14-7.71.09-11.33.81-12.42,2.73-19.31,11.29-18.35,22.16,2.74-3.91,6.25-6.25,10.93-6.25h-.01Z"/>
    <path class="st0" d="M347.27,178.27c1.17,7.81,6.25,12.5,15.63,12.5,8.21,0,16.8-2.74,31.64-7.42-.39,7.42-8.21,11.72-16.8,11.72l-2.74-3.91-1.56,3.13-3.91-1.17,2.74,8.59c2.74,1.96,5.47,3.51,10.93,3.51,12.12,0,19.92-7.42,21.09-16.8,2.74,3.13,3.51,8.59,1.56,13.29,7.42-2.74,13.29-9.38,12.12-17.58,2.74.39,3.13,4.68,3.13,7.04,0,11.72-9.76,17.18-33.98,18.75-25,1.56-38.29,14.06-38.29,35.93,0,13.67,5.47,27.34,14.06,35.55.78-10.16,3.91-17.97,8.59-21.88,8.21,13.29,22.66,20.31,37.5,20.31,12.12,0,23.83-4.68,34.38-4.68s19.54,4.68,25.79,13.29c3.13-13.29,1.17-26.96-4.68-37.1,4.3,0,8.59,3.13,12.5,8.99,3.91-10.93,5.87-19.92,5.87-32.04,0-23.43-7.04-46.09-17.18-57.42,4.3,1.56,8.59,5.08,10.16,8.21,1.17-15.63-5.47-26.96-16.01-28.13,2.74-3.13,4.68-7.42,4.3-12.89-6.64,1.95-11.72,1.95-16.8.78,3.13-3.91,3.91-8.99,1.56-12.5,0,0-5.87,4.68-19.54,4.68-27.34,0-40.23,3.91-46.09,15.63-7.42,0-18.37,4.3-27.74,10.55.79,12.89,5.47,19.14,13.29,20.31l3.51,3.13,1.17-4.3c3.91-1.56,6.25-3.13,11.72-3.13,5.08,0,7.81,1.56,8.99,5.08-5.08,1.56-19.14,5.08-30.08,5.08-7.04,0-13.29-1.56-16.8-5.08ZM378.9,244.29l-6.25-12.5,6.25-5.08,6.25,5.08-6.25,12.5ZM394.53,264.59l-7.42-11.72,5.47-7.04,7.42,6.25-5.47,12.5ZM404.29,240.38l-9.76-10.16,4.3-7.04,7.81,3.51-2.34,13.67h0ZM439.45,234.91v-10.55h10.55l5.08,16.41-15.63-5.87ZM452.72,182.18l7.42,14.46-16.01-4.3-.78-8.99,9.38-1.17ZM433.2,200.53l8.59-.78,5.87,14.46-14.46-5.08v-8.59ZM414.84,248.98l2.34-9.76,9.38,2.74,2.34,18.37-14.06-11.33h0ZM429.29,231.4l-14.06-7.42,1.56-9.38h8.59l3.91,16.8ZM405.86,145.07l15.24,3.91-15.24,8.21-10.55-5.47,10.55-6.64h0Z"/>
    <path class="st0" d="M322.53,137.73l4.2-5.04v-62.18h-48.72v62.18l4.62,5.04h39.9ZM316.66,102.44l6.72,7.56-6.72,7.55-6.31-7.55,6.31-7.56ZM316.66,118.41l6.72,8.41-6.72,7.55-6.31-7.55,6.31-8.41ZM302.38,102.44l7.14,7.56-7.14,7.55-6.74-7.55,6.74-7.56ZM302.38,118.41l7.14,8.41-7.14,7.55-6.74-7.55,6.74-8.41ZM288.09,102.44l6.31,7.56-6.31,7.55-6.72-7.55,6.72-7.56ZM288.09,118.41l6.31,8.41-6.31,7.55-6.72-7.55,6.72-8.41Z"/>
  </g>
  <g>
    <path class="st0" d="M1384.22,199.76c0-7.04-4.68-11.72-12.5-11.72-8.99,0-15.24,6.64-16.8,16.8,2.34-3.13,4.68-4.3,6.64-4.3,3.91,0,6.25,2.74,6.25,7.04,0,10.55-11.33,20.31-11.33,45.71,9.38-26.56,27.74-39.06,27.74-53.51h0Z"/>
    <path class="st0" d="M1401.01,146.63c-15.63,0-29.3,10.55-33.21,26.56,6.64-3.13,13.67-5.47,19.53-5.47,10.16,0,16.41,6.64,16.41,17.97,0,29.68-46.1,51.96-46.1,99.61,0,39.46,30.87,52.34,30.87,77.35,0,11.72-6.64,19.92-16.8,19.92-20.31,0-26.56-34.38-28.91-46.1-2.34-12.12-10.93-52.34-38.67-52.34-10.55,0-20.31,5.46-33.59,5.46s-25.39-5.46-35.93-14.06v5.87l-.38,20.71c-8.59-5.08-21.49-17.97-26.17-27.74-4.68,5.08-13.28,15.24-29.68,15.24-17.97,0-23.43-12.5-33.59-12.5-7.42,0-12.5,6.64-12.5,15.24v3.51c2.34-3.13,5.47-4.68,8.99-4.68,2.74,0,5.08.79,7.42,2.34-8.59,0-14.45,5.47-14.45,14.06,0,7.03,3.12,12.5,7.03,16.01,1.17-7.42,5.08-12.88,11.72-13.28-2.34,1.56-4.3,6.64-4.3,10.55,0,8.59,6.64,14.06,17.18,15.63-.38-2.34-.78-3.91-.78-5.86,0-7.03,4.68-13.29,12.89-13.29,13.28,0,21.88-.79,28.91-2.74-2.34,1.95-3.51,5.47-3.51,8.99,0,1.95.78,4.68,1.56,5.86,3.12-3.91,7.03-5.86,12.5-5.86,10.55,0,15.63,7.8,33.99,7.8-.38-.78-.38-1.95-.38-3.13,0-5.08,3.91-9.37,12.5-9.37,9.38,0,14.84,5.46,14.84,12.12,0,7.81-7.81,12.5-21.09,12.5h-34.38c-18.37,0-31.64,8.99-33.59,20.71,3.13-1.56,8.59-2.34,14.06-2.34-6.25,3.91-9.38,10.55-9.38,17.58,0,4.29,1.17,10.93,4.3,14.06,1.56-3.91,5.08-6.64,10.16-6.64,6.64,0,10.93,4.68,10.93,12.5,0,8.2-4.29,12.88-11.33,12.88-14.45,0-28.13-19.53-47.26-19.53-16.01,0-22.26,15.24-22.26,15.24,3.91-.39,7.81-.39,10.16,0-7.81,2.74-14.84,10.55-14.84,19.14,0,1.56.39,4.68,1.56,7.81,3.13-7.42,9.38-10.93,15.63-10.93-3.91,1.95-6.25,7.42-6.25,12.5,0,7.42,4.29,14.84,16.01,19.53-1.17-1.95-1.17-5.46-1.17-8.21,0-9.76,5.46-16.01,13.67-16.01,7.03,0,12.12,6.25,12.12,14.84h70.71c-4.68-7.81-7.81-17.18-7.81-26.96,0-23.05,16.41-40.63,38.67-40.63-12.12,7.42-19.14,25.79-19.14,43.35,0,16.41,6.25,31.25,15.24,38.29,0-7.03,4.29-12.5,12.12-12.5,6.64,0,12.5,5.46,12.5,12.88,0,7.81-5.86,13.67-12.12,13.67-6.64,0-13.29-5.46-21.49-5.46-9.37,0-17.58,7.03-17.58,18.37,0,3.91.79,8.99,3.13,12.89.78-7.03,4.3-12.12,8.99-12.12-2.34,3.51-3.51,8.2-3.51,12.12,0,7.03,3.51,14.06,10.16,18.37-.78-7.81,1.95-14.46,7.42-19.14-1.17,13.67,7.8,22.26,20.71,25-1.56-3.51-1.95-7.03-1.95-9.76,0-10.55,5.86-17.58,15.63-17.58,3.13,0,6.64.78,7.81,3.13,15.24-16.41,30.08-39.46,39.84-60.94l-1.95-1.17c-2.34.38-5.86,1.56-9.76,1.56-12.88,0-20.71-8.59-20.71-23.43,0-8.99,2.74-22.66,7.81-30.85,9.37,9.76,19.53,14.84,30.87,14.84,20.31,0,34.38-15.24,34.38-37.89,0-31.25-26.17-42.58-26.17-63.68,0-10.55,6.64-17.18,16.41-17.18s13.67,6.64,13.67,14.06c0,4.29-1.95,9.76-4.3,14.84,13.67-4.3,22.26-14.06,22.26-26.56s-9.76-21.88-23.43-21.88c-12.88,0-24.62,8.21-28.51,19.92,8.2-37.89,58.21-56.64,58.21-99.22,0-21.09-12.89-36.33-32.42-36.33h-.07Z"/>
    <path class="st0" d="M1165.85,145.56c-3.77-.14-7.71.09-11.33.81-12.42,2.73-19.31,11.29-18.35,22.16,2.74-3.91,6.25-6.25,10.93-6.25-8.21,5.47-10.55,14.06-9.38,22.26,4.3-4.3,8.21-6.25,12.89-6.25-3.51,2.34-5.47,8.21-5.47,12.89,0,3.91,1.56,8.21,3.91,10.16.73-3.28,2.61-7.62,6.25-10.37,2.8-2.11,6.04-3.1,10.39-2.15,6.82,1.48,11.46,9.59,11.49,24.63.04,23.15,10.16,41.01,27.34,51.16-6.25-19.14-1.95-36.32,7.42-48.82-14.84-15.23-27.34-41.4-29.68-67.17-2.74-1.2-8.49-2.7-16.39-3.05h-.01Z"/>
    <path class="st0" d="M1194.95,137.73l4.19-5.04-21.42-57.14v-15.28h-27.39v15.28l-21.84,57.14,4.63,5.04h61.83-.01ZM1178.09,114.47l6.72,8.41-6.72,7.55-6.31-7.55,6.31-8.41ZM1163.82,114.47l7.14,8.41-7.14,7.55-6.73-7.55,6.73-8.41ZM1149.54,114.47l6.31,8.41-6.31,7.55-6.72-7.55,6.72-8.41Z"/>
    <path class="st0" d="M1209.22,178.29c1.17,7.81,6.25,12.5,15.63,12.5,8.21,0,16.8-2.74,31.64-7.42-.38,7.42-8.21,11.72-16.8,11.72l-2.74-3.91-1.56,3.13-3.91-1.17,2.74,8.59c2.73,1.96,5.46,3.52,10.93,3.52,12.12,0,19.92-7.43,21.09-16.81,2.74,3.13,3.52,8.61,1.57,13.29,7.42-2.73,13.27-9.38,12.1-17.58,2.74.4,3.13,4.69,3.13,7.04,0,11.72-9.76,17.2-33.98,18.75-25,1.57-38.29,14.06-38.29,35.93,0,13.67,5.46,27.36,14.07,35.55.77-10.15,3.9-17.97,8.59-21.88,8.2,13.29,22.66,20.32,37.5,20.32,12.1,0,23.83-4.69,34.38-4.69s19.52,4.69,25.77,13.29c3.12-13.29,1.17-26.96-4.68-37.1,4.29,0,8.59,3.13,12.5,8.98,3.91-10.93,5.85-19.92,5.85-32.02,0-23.45-7.02-46.11-17.18-57.42,4.3,1.56,8.59,5.08,10.16,8.19,1.17-15.61-5.48-26.94-16.02-28.11,2.74-3.13,4.7-7.43,4.3-12.9-6.64,1.95-11.72,1.95-16.8.78,3.12-3.91,3.91-8.99,1.57-12.5,0,0-5.87,4.69-19.54,4.69-27.34,0-40.23,3.9-46.09,15.61-7.42,0-18.35,4.31-27.73,10.56.77,12.89,5.46,19.14,13.27,20.31l3.52,3.13,1.17-4.3c3.89-1.57,6.25-3.13,11.72-3.13,5.08,0,7.8,1.56,8.99,5.08-5.08,1.56-19.15,5.08-30.08,5.08-7.03,0-13.29-1.57-16.8-5.08ZM1240.85,244.3l-6.25-12.5,6.25-5.08,6.25,5.08-6.25,12.5ZM1256.48,264.61l-7.42-11.72,5.46-7.04,7.42,6.25-5.47,12.5ZM1266.24,240.39l-9.76-10.16,4.3-7.02,7.82,3.51-2.35,13.67ZM1301.4,234.93v-10.55h10.55l5.08,16.41-15.63-5.87ZM1314.69,182.18l7.42,14.46-16.02-4.3-.77-8.98,9.38-1.18ZM1295.15,200.55l8.59-.78,5.87,14.46-14.46-5.08v-8.59ZM1276.79,248.98l2.36-9.76,9.37,2.74,2.34,18.35-14.07-11.33ZM1291.24,231.42l-14.06-7.43,1.55-9.38h8.59l3.91,16.81ZM1267.81,145.08l15.23,3.91-15.23,8.21-10.55-5.48,10.55-6.64Z"/>
  </g>
  <g>
    <path class="st0" d="M3085.35,200.53c3.91,0,6.25,2.74,6.25,7.04,0,10.55-11.33,20.31-11.33,45.71,9.37-26.56,27.74-39.06,27.74-53.51,0-7.04-4.68-11.72-12.5-11.72-8.99,0-15.24,6.64-16.8,16.8,2.34-3.13,4.68-4.3,6.64-4.3h0Z"/>
    <path class="st0" d="M2872.46,293.51c-8.59,0-14.46,5.46-14.46,14.06,0,7.03,3.13,12.5,7.04,16.03,1.17-7.42,5.08-12.9,11.72-13.29-2.34,1.57-4.3,6.64-4.3,10.55,0,7.62,5.22,12.79,13.76,14.94v-50.19c-6.84-3.67-11.35-8.51-17.67-8.51-7.42,0-12.5,6.65-12.5,15.24v3.51c2.34-3.13,5.47-4.68,8.99-4.68,2.72,0,5.08.77,7.42,2.34Z"/>
    <path class="st0" d="M3124.8,146.62c-15.63,0-29.3,10.56-33.21,26.57,6.65-3.13,13.67-5.47,19.54-5.47,10.16,0,16.41,6.64,16.41,17.97,0,29.68-46.1,51.96-46.1,99.61,0,39.46,30.85,52.34,30.85,77.35,0,11.72-6.64,19.92-16.8,19.92-20.31,0-26.56-34.38-28.9-46.1-2.35-12.12-10.94-52.34-38.67-52.34-10.56,0-20.32,5.46-33.6,5.46s-25.39-5.46-35.93-14.06v5.85l-.38,20.71c-4.4-2.6-9.89-7.22-14.86-12.42v33.99c9.3.87,14.86,7.72,32.04,7.72-.38-.78-.38-1.95-.38-3.13,0-5.08,3.89-9.37,12.5-9.37,9.38,0,14.84,5.46,14.84,12.12,0,7.81-7.82,12.5-21.09,12.5h-34.38c-1.2,0-2.37.04-3.52.11v55.74c0,.3,0,.58-.03.87-.29,7.66-4.52,12.03-11.29,12.03-14.45,0-28.13-19.53-47.28-19.53-16.01,0-22.26,15.23-22.26,15.23,3.91-.39,7.82-.39,10.16,0-7.82,2.74-14.84,10.56-14.84,19.15,0,1.56.38,4.68,1.56,7.81,3.13-7.42,9.38-10.93,15.63-10.93-3.91,1.95-6.25,7.42-6.25,12.5,0,7.42,4.29,14.84,16.01,19.52-1.17-1.94-1.17-5.46-1.17-8.19,0-9.77,5.48-16.02,13.67-16.02,7.03,0,12.12,6.25,12.12,14.84h70.71c-4.7-7.81-7.82-17.18-7.82-26.94,0-23.05,16.41-40.63,38.67-40.63-12.12,7.42-19.14,25.77-19.14,43.35,0,16.41,6.25,31.25,15.23,38.29,0-7.03,4.3-12.5,12.12-12.5,6.64,0,12.5,5.46,12.5,12.88,0,7.82-5.86,13.67-12.12,13.67-6.64,0-13.27-5.46-21.47-5.46-9.38,0-17.58,7.03-17.58,18.37,0,3.89.79,8.98,3.13,12.89.78-7.04,4.3-12.12,8.99-12.12-2.35,3.53-3.52,8.21-3.52,12.12,0,7.03,3.52,14.06,10.16,18.37-.78-7.82,1.95-14.46,7.42-19.15-1.17,13.67,7.8,22.28,20.71,25-1.57-3.51-1.95-7.03-1.95-9.76,0-10.55,5.85-17.58,15.63-17.58,3.13,0,6.64.78,7.81,3.13,15.24-16.41,30.08-39.46,39.84-60.94l-1.94-1.17c-2.35.38-5.86,1.56-9.78,1.56-12.88,0-20.71-8.59-20.71-23.43,0-8.99,2.74-22.66,7.82-30.87,9.37,9.76,19.53,14.84,30.85,14.84,20.32,0,34.38-15.23,34.38-37.89,0-31.25-26.17-42.58-26.17-63.68,0-10.55,6.65-17.18,16.41-17.18s13.67,6.64,13.67,14.06c0,4.3-1.95,9.78-4.3,14.84,13.67-4.3,22.26-14.06,22.26-26.56s-9.76-21.88-23.43-21.88c-12.9,0-24.62,8.21-28.51,19.92,8.19-37.89,58.19-56.64,58.19-99.22,0-21.09-12.88-36.33-32.42-36.33Z"/>
    <path class="st0" d="M2868.95,191.17c0,3.91,1.56,8.21,3.89,10.16.73-3.3,2.61-7.63,6.25-10.37,2.8-2.11,6.05-3.1,10.39-2.15,6.82,1.48,11.46,9.6,11.49,24.63.04,23.15,10.15,41.01,27.34,51.16-6.25-19.14-1.95-36.32,7.42-48.82-14.84-15.23-27.34-41.4-29.68-67.17-2.74-1.21-8.51-2.7-16.41-3.05-3.77-.14-7.69.07-11.33.8-12.4,2.73-19.31,11.29-18.35,22.18,2.74-3.91,6.25-6.25,10.93-6.25-8.19,5.47-10.53,14.06-9.36,22.26,4.3-4.3,8.19-6.25,12.89-6.25-3.52,2.34-5.47,8.21-5.47,12.89Z"/>
    <path class="st0" d="M2954.49,177.49l3.52,3.13,1.17-4.3c3.9-1.57,6.25-3.13,11.72-3.13,5.08,0,7.81,1.56,8.99,5.08-5.08,1.56-19.15,5.08-30.08,5.08-7.04,0-13.29-1.57-16.8-5.08,1.17,7.81,6.25,12.5,15.63,12.5,8.21,0,16.8-2.74,31.64-7.42-.38,7.42-8.21,11.72-16.8,11.72l-2.74-3.91-1.56,3.13-3.91-1.17,2.74,8.59c2.72,1.96,5.47,3.52,10.93,3.52,12.12,0,19.92-7.43,21.09-16.81,2.74,3.13,3.52,8.61,1.57,13.29,7.42-2.73,13.27-9.38,12.1-17.58,2.74.4,3.13,4.69,3.13,7.04,0,11.72-9.76,17.2-33.98,18.75-25,1.57-38.29,14.06-38.29,35.93,0,13.67,5.47,27.36,14.07,35.55.77-10.15,3.9-17.97,8.59-21.88,8.21,13.29,22.66,20.32,37.5,20.32,12.1,0,23.83-4.69,34.38-4.69s19.52,4.69,25.77,13.29c3.13-13.29,1.17-26.96-4.68-37.1,4.3,0,8.59,3.13,12.5,8.98,3.91-10.93,5.85-19.92,5.85-32.02,0-23.45-7.02-46.11-17.18-57.42,4.3,1.56,8.59,5.08,10.16,8.19,1.17-15.61-5.48-26.94-16.02-28.11,2.74-3.13,4.69-7.43,4.29-12.9-6.64,1.96-11.72,1.96-16.8.79,3.13-3.91,3.91-8.99,1.57-12.5,0,0-5.86,4.7-19.53,4.7-27.34,0-40.23,3.9-46.1,15.61-7.42,0-18.35,4.31-27.73,10.56.77,12.89,5.47,19.14,13.27,20.31ZM2964.65,244.29l-6.25-12.5,6.25-5.08,6.25,5.08-6.25,12.5ZM2980.27,264.59l-7.42-11.72,5.47-7.04,7.42,6.25-5.46,12.5ZM2990.03,240.38l-9.76-10.16,4.29-7.02,7.82,3.51-2.35,13.67ZM3025.2,234.91v-10.55h10.55l5.08,16.41-15.63-5.87ZM3038.48,182.17l7.42,14.46-16.03-4.3-.77-8.98,9.37-1.18ZM3018.94,200.53l8.59-.78,5.86,14.46-14.45-5.08v-8.59ZM3000.58,248.97l2.35-9.76,9.38,2.74,2.34,18.35-14.07-11.33ZM3015.04,231.4l-14.06-7.43,1.56-9.38h8.59l3.91,16.81ZM2991.6,145.07l15.23,3.91-15.23,8.21-10.55-5.48,10.55-6.64Z"/>
    <path class="st0" d="M2868.99,137.76h36.89c6.06-.69,12.92-8.23,17.4-12.86,4.74-4.87,13.54-6.29,14.29-6.92.1-.07.06-.36-.06-.46h-100.15c-.12.1-.16.39-.06.46.74.64,9.55,2.06,14.29,6.92,4.49,4.61,11.33,12.16,17.4,12.86h.01Z"/>
    <path class="st0" d="M2936.48,367.53h-43.6v18.12h43.6v-18.12Z"/>
    <path class="st0" d="M2936.48,333.15v-55.76h-43.6v68.98h43.6v-13.23Z"/>
    <path class="st0" d="M2920.01,357.34v-.77l-4.17-8.08h-2.44l-4.05,7.95v1.03l4.05,7.95h2.44l4.17-8.08Z"/>
    <path class="st0" d="M2904.88,357.34v-.77l-4.17-8.08h-2.46l-4.05,7.95v1.03l4.05,7.95h2.46l4.17-8.08Z"/>
    <path class="st0" d="M2935.13,357.34v-.77l-4.15-8.08h-2.45l-4.04,7.95v1.03l4.04,7.95h2.45l4.15-8.08Z"/>
  </g>
  <g>
    <path class="st0" d="M3947.17,200.53c3.91,0,6.25,2.74,6.25,7.04,0,10.55-11.33,20.31-11.33,45.71,9.38-26.56,27.74-39.06,27.74-53.51,0-7.04-4.68-11.72-12.5-11.72-8.99,0-15.24,6.64-16.8,16.8,2.34-3.13,4.68-4.3,6.64-4.3h0Z"/>
    <path class="st0" d="M3794.83,178.27c1.17,7.81,6.25,12.5,15.63,12.5,8.21,0,16.8-2.74,31.64-7.42-.38,7.42-8.21,11.72-16.8,11.72l-2.74-3.91-1.56,3.13-3.91-1.17,2.74,8.59c2.74,1.96,5.46,3.51,10.93,3.51,12.12,0,19.92-7.42,21.09-16.8,2.74,3.13,3.51,8.59,1.56,13.29,7.42-2.74,13.29-9.38,12.12-17.58,2.74.39,3.13,4.68,3.13,7.04,0,11.72-9.76,17.18-33.98,18.75-25,1.56-38.29,14.06-38.29,35.93,0,13.67,5.47,27.34,14.06,35.55.79-10.16,3.91-17.97,8.59-21.88,8.21,13.29,22.66,20.31,37.5,20.31,12.12,0,23.83-4.68,34.38-4.68s19.54,4.68,25.79,13.29c3.13-13.29,1.17-26.96-4.68-37.1,4.3,0,8.59,3.13,12.5,8.99,3.91-10.93,5.86-19.92,5.86-32.04,0-23.43-7.04-46.09-17.18-57.42,4.3,1.56,8.59,5.08,10.16,8.21,1.17-15.63-5.47-26.96-16.01-28.13,2.74-3.13,4.68-7.42,4.29-12.89-6.64,1.95-11.72,1.95-16.8.78,3.13-3.91,3.91-8.99,1.56-12.5,0,0-5.86,4.68-19.53,4.68-27.34,0-40.23,3.91-46.1,15.63-7.42,0-18.37,4.3-27.74,10.55.78,12.89,5.46,19.14,13.29,20.31l3.51,3.13,1.17-4.3c3.91-1.56,6.25-3.13,11.72-3.13,5.08,0,7.81,1.56,8.99,5.08-5.08,1.56-19.14,5.08-30.08,5.08-7.03,0-13.29-1.56-16.8-5.08ZM3826.47,244.29l-6.25-12.5,6.25-5.08,6.25,5.08-6.25,12.5ZM3842.1,264.59l-7.42-11.72,5.46-7.04,7.42,6.25-5.46,12.5ZM3851.86,240.38l-9.76-10.16,4.29-7.04,7.81,3.51-2.34,13.67h0ZM3887.02,234.91v-10.55h10.55l5.08,16.41-15.63-5.87ZM3900.3,182.18l7.42,14.46-16.01-4.3-.78-8.99,9.37-1.17ZM3880.77,200.53l8.59-.78,5.87,14.46-14.46-5.08v-8.59ZM3862.4,248.98l2.34-9.76,9.38,2.74,2.34,18.37-14.06-11.33h0ZM3876.86,231.4l-14.06-7.42,1.56-9.38h8.59l3.91,16.8ZM3853.43,145.07l15.24,3.91-15.24,8.21-10.55-5.47,10.55-6.64h0Z"/>
    <path class="st0" d="M3986.63,146.63c-15.63,0-29.3,10.55-33.21,26.56,6.64-3.13,13.67-5.47,19.54-5.47,10.16,0,16.41,6.64,16.41,17.97,0,29.68-46.1,51.96-46.1,99.61,0,39.46,30.87,52.34,30.87,77.35,0,11.72-6.64,19.92-16.8,19.92-20.31,0-26.56-34.38-28.91-46.1-2.34-12.12-10.93-52.34-38.67-52.34-10.55,0-20.31,5.46-33.59,5.46s-25.39-5.46-35.93-14.06v5.87l-.38,20.71c-8.59-5.08-21.49-17.97-26.17-27.74-4.68,5.08-13.29,15.24-29.68,15.24-17.96,0-23.43-12.5-33.59-12.5-7.42,0-12.5,6.64-12.5,15.24v3.51c2.34-3.13,5.46-4.68,8.99-4.68,2.74,0,5.08.79,7.42,2.34-8.59,0-14.46,5.46-14.46,14.06,0,7.03,3.13,12.5,7.04,16.01,1.17-7.42,5.08-12.89,11.72-13.29-2.34,1.56-4.29,6.64-4.29,10.55,0,8.59,6.64,14.06,17.18,15.63-.38-2.34-.78-3.91-.78-5.86,0-7.03,4.68-13.29,12.88-13.29,13.29,0,21.88-.78,28.91-2.74-2.34,1.96-3.51,5.47-3.51,8.99,0,1.95.79,4.68,1.56,5.86,3.13-3.91,7.03-5.86,12.5-5.86,10.55,0,15.63,7.8,33.98,7.8-.38-.78-.38-1.95-.38-3.12,0-5.08,3.91-9.38,12.5-9.38,9.38,0,14.84,5.46,14.84,12.12,0,7.81-7.81,12.5-21.09,12.5h-34.38c-18.37,0-31.64,8.99-33.59,20.71,3.13-1.56,8.59-2.34,14.06-2.34-6.25,3.91-9.37,10.55-9.37,17.58,0,4.29,1.17,10.93,4.29,14.06,1.56-3.91,5.08-6.64,10.16-6.64,6.64,0,10.93,4.68,10.93,12.5,0,8.21-4.3,12.88-11.33,12.88-14.45,0-28.13-19.53-47.26-19.53-16.01,0-22.26,15.24-22.26,15.24,3.91-.38,7.81-.38,10.16,0-7.81,2.74-14.84,10.55-14.84,19.14,0,1.56.38,4.68,1.56,7.81,3.13-7.42,9.38-10.93,15.63-10.93-3.91,1.95-6.25,7.42-6.25,12.5,0,7.42,4.29,14.84,16.01,19.53-1.17-1.95-1.17-5.46-1.17-8.21,0-9.76,5.47-16.01,13.67-16.01,7.03,0,12.12,6.25,12.12,14.84h70.71c-4.68-7.81-7.81-17.18-7.81-26.96,0-23.05,16.41-40.63,38.67-40.63-12.12,7.42-19.14,25.79-19.14,43.35,0,16.41,6.25,31.25,15.24,38.29,0-7.03,4.29-12.5,12.12-12.5,6.64,0,12.5,5.46,12.5,12.88,0,7.81-5.86,13.67-12.12,13.67-6.64,0-13.29-5.47-21.49-5.47-9.37,0-17.58,7.03-17.58,18.37,0,3.91.78,8.99,3.13,12.89.78-7.03,4.29-12.12,8.99-12.12-2.34,3.51-3.51,8.21-3.51,12.12,0,7.03,3.51,14.06,10.16,18.37-.79-7.81,1.95-14.46,7.42-19.14-1.17,13.67,7.81,22.26,20.71,25-1.56-3.51-1.96-7.03-1.96-9.76,0-10.55,5.87-17.58,15.63-17.58,3.13,0,6.64.78,7.8,3.13,15.24-16.41,30.08-39.46,39.84-60.93l-1.95-1.17c-2.34.38-5.87,1.56-9.76,1.56-12.89,0-20.71-8.59-20.71-23.43,0-8.99,2.74-22.66,7.8-30.87,9.38,9.76,19.54,14.84,30.87,14.84,20.31,0,34.38-15.24,34.38-37.89,0-31.25-26.17-42.58-26.17-63.68,0-10.55,6.64-17.18,16.41-17.18s13.67,6.64,13.67,14.06c0,4.3-1.95,9.76-4.29,14.84,13.67-4.3,22.26-14.06,22.26-26.56s-9.76-21.88-23.43-21.88c-12.88,0-24.62,8.21-28.51,19.92,8.21-37.89,58.21-56.64,58.21-99.22,0-21.09-12.89-36.33-32.42-36.33h-.06Z"/>
    <path class="st0" d="M3732.71,162.26c-8.21,5.47-10.55,14.06-9.38,22.26,4.3-4.3,8.21-6.25,12.89-6.25-3.51,2.34-5.46,8.21-5.46,12.89,0,3.91,1.57,8.21,3.91,10.16,1.11-4.67,3.37-8.19,6.25-10.37v35.76l-13.29,22.26,13.67,24.22h8.99l14.46-24.22-13.29-23.05v-37.12c7.38,1.91,11.33,10.82,11.33,24.62,0,23.05,10.16,41.01,27.34,51.17-6.25-19.14-1.95-36.33,7.42-48.83-14.84-15.24-27.34-41.41-29.68-67.19-3.7-1.68-10.57-2.78-16.41-3.05v-41.08h7.42v5.87h26.56v9.76h8.21V50.54h-8.21v10.55h-26.56v5.87h-7.42v-20.32h-11.33v99.71c-12.54,2.73-19.32,11.5-18.37,22.16,2.74-3.91,6.25-6.25,10.93-6.25h.01ZM3759.29,84.91l8.59-16.41h5.47l8.59,16.41v1.56l-8.59,16.41h-5.47l-8.59-16.41v-1.56ZM3753.82,248.98l-7.8,14.06-8.59-14.06,8.59-13.29,7.8,13.29Z"/>
  </g>
  <g>
    <path class="st0" d="M5670.97,200.56c3.92,0,6.27,2.74,6.27,7.04,0,10.55-11.35,20.31-11.35,45.71,9.39-26.56,27.75-39.06,27.75-53.51,0-7.04-4.67-11.72-12.51-11.72-8.98,0-15.24,6.64-16.79,16.8,2.35-3.13,4.69-4.3,6.63-4.3h0Z"/>
    <path class="st0" d="M5524.73,46.66c17.32,0,15.72,30.35-1.21,35.88-12.41,4.05-28.16-2.71-39.43,7.22-3.12,2.75-4.91,5.25-5.93,10.01-1.02,4.77-1.26,11.77-1.31,23.53l.34,22.39c6.92.5,12,1.84,14.52,2.94,2.32,25.77,14.83,51.95,29.68,67.17-9.39,12.5-13.69,29.68-7.43,48.82-17.18-10.15-27.31-28.01-27.34-51.16-.05-12.91-3.46-20.71-8.76-23.59l1.52,98.72c2.49.64,5.25,1.04,8.42,1.04,16.38,0,24.99-10.16,29.68-15.24,4.67,9.77,17.56,22.66,26.15,27.74l.39-20.7v-5.87c10.55,8.59,22.64,14.06,35.95,14.06s23.03-5.47,33.58-5.47c27.75,0,36.34,40.23,38.68,52.34,2.35,11.72,8.61,46.09,28.91,46.09,10.16,0,16.79-8.2,16.79-19.92,0-25-30.87-37.89-30.87-77.35,0-47.65,46.11-69.93,46.11-99.61,0-11.33-6.27-17.97-16.43-17.97-5.85,0-12.89,2.34-19.52,5.47,3.89-16.01,17.56-26.56,33.19-26.56,19.55,0,32.44,15.24,32.44,36.34,0,42.58-50,61.33-58.23,99.22,3.92-11.72,15.63-19.92,28.52-19.92l.05-.03c13.69,0,23.44,9.38,23.44,21.88s-8.59,22.26-22.26,26.56c2.35-5.08,4.28-10.55,4.28-14.84,0-7.42-3.89-14.05-13.67-14.06-9.77,0-16.4,6.63-16.4,17.18,0,21.09,26.18,32.42,26.18,63.68,0,22.65-14.08,37.89-34.38,37.89-11.35,0-21.51-5.08-30.87-14.84-5.08,8.21-7.81,21.88-7.81,30.87,0,14.84,7.81,23.43,20.71,23.43,3.89,0,7.43-1.17,9.77-1.56l1.94,1.17c-9.75,21.48-24.6,44.53-39.84,60.94-1.16-2.34-4.67-3.13-7.79-3.13-9.77,0-15.63,7.03-15.63,17.58,0,2.73.39,6.25,1.96,9.76-12.92-2.74-21.89-11.33-20.71-25-5.47,4.68-8.23,11.33-7.43,19.14-6.65-4.31-10.16-11.33-10.16-18.37,0-3.91,1.16-8.61,3.51-12.12-4.69,0-8.2,5.08-9,12.12-2.32-3.89-3.12-8.98-3.12-12.89,0-11.33,8.2-18.37,17.59-18.37,8.2,0,14.85,5.47,21.48,5.47,6.27,0,12.12-5.87,12.12-13.67s-5.85-12.89-12.51-12.89c-7.81,0-12.1,5.47-12.1,12.5-9-7.03-15.24-21.88-15.24-38.29,0-17.57,7.02-35.93,19.14-43.35-22.28,0-38.68,17.58-38.68,40.63,0,9.78,3.12,19.15,7.81,26.96h-70.71c0-8.59-5.08-14.84-12.12-14.84-8.2,0-13.67,6.25-13.67,16.01,0,2.74,0,6.25,1.16,8.21-11.71-4.7-16.01-12.12-16.01-19.54,0-5.08,2.35-10.55,6.27-12.5-6.27,0-12.51,3.51-15.63,10.93-1.19-3.13-1.55-6.25-1.55-7.8,0-8.59,7.02-16.4,14.83-19.14-2.35-.38-6.24-.38-10.16,0,.05-.14,6.31-15.24,22.26-15.24,19.14,0,32.8,19.54,47.27,19.54,7.04,0,11.32-4.68,11.32-12.89s-4.28-12.5-10.93-12.5c-5.08,0-8.59,2.72-10.16,6.63-3.12-3.13-4.28-9.76-4.28-14.06,0-7.03,3.12-13.67,9.36-17.58-5.44,0-10.91.78-14.06,2.34,1.96-11.71,15.24-20.7,33.6-20.7h34.38c13.28,0,21.1-4.7,21.1-12.5,0-6.65-5.47-12.12-14.85-12.12-8.59,0-12.48,4.29-12.48,9.37,0,1.17,0,2.34.39,3.13-18.36,0-23.44-7.81-33.99-7.81-5.47,0-9.39,1.96-12.51,5.87-.77-1.18-1.55-3.91-1.55-5.87,0-3.52,1.16-7.03,3.51-8.99-7.04,1.95-15.63,2.74-28.91,2.74-3,0-5.52.84-7.52,2.24l.73,46.82h-14.64l.51-32.61c-5.3-2.7-8.37-7.09-8.37-12.94,0-3.91,1.96-8.99,4.31-10.55-6.65.4-10.55,5.87-11.73,13.29-3.89-3.51-7.04-8.98-7.04-16.01,0-8.59,5.88-14.06,14.47-14.06-2.35-1.56-4.67-2.34-7.43-2.34-3.51,0-6.65,1.56-8.98,4.68v-3.51c0-8.6,5.08-15.24,12.48-15.24,4.81,0,8.56,2.78,13.06,5.72l1.45-93.89c-1.43.43-2.73,1.11-3.94,2.03-3.65,2.75-5.52,7.09-6.24,10.38-2.37-1.95-3.92-6.25-3.92-10.16,0-4.68,1.96-10.55,5.47-12.89-4.69,0-8.59,1.96-12.89,6.25-1.16-8.21,1.16-16.8,9.39-22.26-4.69,0-8.2,2.34-10.93,6.25-.97-10.87,5.93-19.44,18.34-22.16,1.74-.36,3.58-.58,5.42-.71l.34-22.36c.19-24.33.05-35.31,1.04-47.29,1.5-18.18,21.89-29.34,53.97-29.34ZM5468.72,356.74l4.52,6.35,4.55-6.35-4.55-6.26-4.52,6.26ZM5473.01,336.09l-.24.34-4.04,5.59,4.52,6.36,4.52-6.36-3.89-5.41-.63-.86-.24.33ZM5527,71.87c-13.55,0-24.12,1.4-36.46,4.8l.77,2.78c12.05-3.32,22.4-4.68,35.68-4.68v-2.9ZM5526.95,62.88c-12.29.23-23.18,1.13-36.43,4.78l.77,2.79c12.99-3.58,23.3-4.45,35.73-4.68l-.07-2.9ZM5526.95,53.86c-12.29.24-23.18,1.14-36.43,4.8l.77,2.8c12.99-3.6,23.3-4.45,35.73-4.69l-.07-2.9Z"/>
    <path class="st0" d="M5540.11,177.52l3.51,3.13,1.19-4.3c3.89-1.56,6.24-3.13,11.71-3.13,5.08,0,7.81,1.56,8.98,5.08-5.08,1.56-19.14,5.08-30.07,5.08-7.04,0-13.28-1.56-16.79-5.08,1.16,7.81,6.24,12.5,15.63,12.5,8.2,0,16.79-2.74,31.62-7.42-.39,7.42-8.2,11.72-16.79,11.72l-2.73-3.91-1.55,3.13-3.92-1.17,2.73,8.59c2.73,1.96,5.47,3.51,10.93,3.51,12.12,0,19.93-7.42,21.1-16.8,2.73,3.13,3.51,8.59,1.55,13.29,7.43-2.74,13.28-9.38,12.12-17.58,2.73.39,3.12,4.68,3.12,7.04,0,11.72-9.75,17.18-33.97,18.75-25.01,1.56-38.3,14.06-38.3,35.93,0,13.67,5.47,27.34,14.06,35.55.77-10.16,3.92-17.97,8.59-21.88,8.2,13.29,22.67,20.31,37.5,20.31,12.12,0,23.83-4.68,34.38-4.68s19.55,4.68,25.79,13.29c3.14-13.29,1.19-26.96-4.67-37.1,4.28,0,8.59,3.13,12.51,8.99,3.89-10.93,5.85-19.92,5.85-32.04,0-23.43-7.04-46.09-17.18-57.42,4.28,1.56,8.59,5.08,10.16,8.21,1.16-15.63-5.47-26.96-16.01-28.13,2.73-3.13,4.67-7.42,4.31-12.89-6.65,1.96-11.73,1.96-16.81.79,3.12-3.91,3.92-8.99,1.57-12.5,0,0-5.88,4.68-19.55,4.68-27.34,0-40.23,3.91-46.09,15.63-7.43,0-18.39,4.3-27.75,10.55.77,12.89,5.47,19.14,13.28,20.31ZM5550.25,244.32l-6.24-12.5,6.24-5.08,6.27,5.08-6.27,12.5ZM5565.88,264.62l-7.4-11.72,5.47-7.04,7.4,6.25-5.47,12.5ZM5575.65,240.41l-9.75-10.16,4.31-7.04,7.79,3.51-2.35,13.67h0ZM5610.8,234.94v-10.55h10.55l5.08,16.41-15.63-5.87ZM5624.11,182.21l7.4,14.46-16.01-4.3-.77-8.99,9.39-1.17ZM5604.56,200.56l8.59-.78,5.88,14.46-14.47-5.08v-8.59ZM5586.2,249.01l2.35-9.76,9.39,2.74,2.32,18.37-14.06-11.33h0ZM5600.67,231.43l-14.06-7.42,1.55-9.38h8.59l3.92,16.8ZM5577.22,145.09l15.24,3.91-15.24,8.21-10.55-5.47,10.55-6.64h0Z"/>
  </g>
  <path class="st0" d="M6572.31,146.64c19.55,0,32.44,15.24,32.44,36.33,0,42.58-50,61.33-58.23,99.22,3.92-11.72,15.63-19.92,28.52-19.92h.07c13.67,0,23.44,9.38,23.44,21.88s-8.61,22.26-22.28,26.56c2.35-5.08,4.31-10.55,4.31-14.84,0-7.42-3.9-14.06-13.67-14.06-9.77,0-16.43,6.64-16.43,17.18,0,21.09,26.18,32.42,26.18,63.67,0,22.65-14.06,37.89-34.38,37.89-11.32,0-21.48-5.08-30.87-14.84-5.06,8.19-7.79,21.86-7.79,30.85,0,14.84,7.81,23.43,20.71,23.43,3.89,0,7.4-1.17,9.75-1.55l1.96,1.17c-9.77,21.48-24.6,44.53-39.84,60.94-1.16-2.34-4.69-3.13-7.81-3.13-9.75,0-15.63,7.03-15.63,17.58,0,2.73.41,6.25,1.96,9.76-12.89-2.74-21.87-11.33-20.71-25-5.47,4.68-8.2,11.33-7.43,19.14-6.63-4.31-10.14-11.33-10.14-18.37,0-3.91,1.16-8.61,3.51-12.12-4.69,0-8.23,5.08-9,12.12-2.35-3.89-3.12-8.98-3.12-12.88,0-11.33,8.2-18.37,17.59-18.37,8.2,0,14.85,5.47,21.48,5.47,6.24,0,12.12-5.87,12.12-13.67s-5.88-12.88-12.51-12.88c-7.81,0-12.12,5.46-12.12,12.5-8.98-7.03-15.24-21.88-15.24-38.29,0-17.57,7.02-35.93,19.14-43.35-22.26,0-38.66,17.58-38.66,40.63,0,9.77,3.12,19.15,7.79,26.95h-70.71c0-8.59-5.08-14.84-12.1-14.84-8.23,0-13.69,6.25-13.69,16.01,0,2.74,0,6.25,1.19,8.2-11.71-4.69-16.01-12.12-16.01-19.54,0-5.08,2.35-10.55,6.24-12.5-6.24,0-12.48,3.51-15.63,10.93-1.16-3.13-1.55-6.25-1.55-7.81,0-8.59,7.04-16.39,14.85-19.14-2.37-.38-6.27-.38-10.16,0,0,0,6.24-15.24,22.26-15.24,19.14,0,32.8,19.54,47.27,19.54,7.02,0,11.32-4.68,11.32-12.89s-4.31-12.5-10.93-12.5c-5.08,0-8.61,2.73-10.16,6.64-3.12-3.13-4.31-9.76-4.31-14.06,0-7.03,3.15-13.67,9.39-17.58-5.47,0-10.93.79-14.06,2.34,1.96-11.72,15.22-20.71,33.6-20.71h34.38c13.28,0,21.07-4.7,21.07-12.5,0-6.65-5.44-12.12-14.83-12.12-8.59,0-12.51,4.3-12.51,9.38,0,1.17,0,2.34.39,3.12-18.36,0-23.44-7.81-33.99-7.81-5.47,0-9.36,1.96-12.51,5.87-.77-1.19-1.55-3.91-1.55-5.87,0-3.52,1.16-7.03,3.51-8.99-7.04,1.96-15.63,2.74-28.91,2.74-8.2,0-12.89,6.25-12.89,13.28,0,1.96.41,3.53.8,5.87-10.55-1.57-17.18-7.03-17.18-15.63,0-3.91,1.94-8.99,4.28-10.55-6.63.4-10.55,5.86-11.71,13.28-3.92-3.51-7.04-8.98-7.04-16.01,0-8.59,5.88-14.06,14.47-14.06-2.35-1.55-4.69-2.34-7.43-2.34-3.53,0-6.65,1.56-9,4.68v-3.51c0-8.6,5.08-15.24,12.51-15.24,10.16,0,15.63,12.5,33.6,12.5,16.38,0,24.99-10.16,29.68-15.24,4.67,9.77,17.56,22.66,26.15,27.74l.39-20.7v-5.87c10.55,8.59,22.64,14.06,35.95,14.06s23.03-5.46,33.58-5.46c27.75,0,36.34,40.23,38.68,52.34,2.35,11.72,8.61,46.1,28.91,46.1,10.16,0,16.79-8.21,16.79-19.92,0-25-30.87-37.89-30.87-77.35,0-47.65,46.11-69.93,46.11-99.61,0-11.33-6.27-17.97-16.43-17.97-5.85,0-12.89,2.34-19.52,5.47,3.89-16.01,17.56-26.56,33.19-26.56ZM6482.1,126.33c2.35,3.51,1.55,8.59-1.57,12.5,5.08,1.17,10.16,1.17,16.81-.78.36,5.47-1.57,9.76-4.31,12.89,10.55,1.17,17.18,12.5,16.01,28.13-1.57-3.12-5.88-6.65-10.16-8.2,10.14,11.33,17.18,33.99,17.18,57.42,0,12.12-1.96,21.11-5.85,32.04-3.92-5.87-8.23-8.99-12.51-8.99,5.85,10.16,7.81,23.83,4.67,37.12-6.24-8.61-15.24-13.29-25.79-13.29-10.55,0-22.26,4.68-34.38,4.68-14.83,0-29.3-7.02-37.5-20.31-4.67,3.91-7.81,11.72-8.59,21.88-8.59-8.21-14.06-21.88-14.06-35.55,0-21.88,13.28-34.38,38.3-35.93,24.22-1.57,33.97-7.03,33.97-18.75,0-2.35-.39-6.65-3.12-7.04,1.16,8.21-4.69,14.84-12.12,17.58,1.96-4.69,1.19-10.16-1.55-13.29-1.16,9.38-8.98,16.8-21.1,16.8-5.47,0-8.2-1.56-10.93-3.51l-2.73-8.59,3.92,1.17,1.55-3.13,2.73,3.91c8.59,0,16.4-4.3,16.79-11.72-14.83,4.68-23.42,7.42-31.62,7.42-9.39,0-14.47-4.69-15.63-12.5h0c3.51,3.51,9.75,5.07,16.79,5.07,10.93,0,24.99-3.52,30.07-5.08-1.16-3.51-3.89-5.08-8.98-5.08-5.47,0-7.81,1.57-11.71,3.13l-1.19,4.3-3.51-3.13c-7.81-1.17-12.51-7.42-13.28-20.31,9.36-6.25,20.32-10.55,27.75-10.55,5.85-11.72,18.75-15.63,46.09-15.63,13.67,0,19.55-4.68,19.55-4.68ZM6420.37,252.89l7.4,11.72,5.47-12.5-7.4-6.25-5.47,7.04ZM6448.09,248.98h0s14.06,11.34,14.06,11.34l-2.32-18.37-9.39-2.74-2.35,9.76ZM6543.02,188.06c7.84,0,12.51,4.68,12.51,11.72,0,14.46-18.36,26.96-27.75,53.51,0-25.4,11.35-35.16,11.35-45.71,0-4.3-2.35-7.04-6.27-7.04h0c-1.94.01-4.28,1.18-6.63,4.31,1.55-10.16,7.81-16.8,16.79-16.8ZM6405.9,231.8l6.27,12.5,6.24-12.5-6.24-5.08-6.27,5.08ZM6333.86,188.45h-.02c-.39,0-.75.01-1.11.06-2.35.21-4.33,1.11-6.12,2.45-.12.09-.19.19-.31.27-3.41,2.77-5.23,6.92-5.93,10.1-2.35-1.96-3.89-6.25-3.89-10.16,0-4.68,1.94-10.55,5.47-12.89-4.69,0-8.61,1.96-12.89,6.25-1.16-8.21,1.16-16.8,9.36-22.26-4.69,0-8.2,2.34-10.93,6.25-.94-10.87,5.95-19.44,18.36-22.16.02,0,.07-.02.12-.02l-.07-15.3h.05c-.46,0-.82-.34-.85-.8l-.75-16.17s2.54,1.3,5.88,1.25c3.34-.04,5.69-1.37,5.69-1.37l-.6,16.27c-.02.46-.39.81-.85.81h-.1l-.07,14.48c.24-.01.51-.01.75-.01.7,0,1.43.02,2.13.04,7.91.36,13.67,1.85,16.4,3.05,2.35,25.77,14.85,51.95,29.68,67.19-9.36,12.49-13.67,29.68-7.4,48.82-17.2-10.16-27.31-28.01-27.36-51.17-.02-15.03-4.64-23.13-11.47-24.62-1.11-.26-2.13-.37-3.07-.37v2.14h-.07v.03h.07v2.14h-.02l-.34,46.81c0,1.73-.82,3.11-1.79,3.11h-3.36c-.99,0-1.79-1.39-1.79-3.11l-.29-41.9v-.02l-.02-3.49c.12-.13.24-.26.36-.39l-.36.38v-2.91c.1-.09.19-.19.31-.27,1.77-1.34,3.75-2.24,6.1-2.45.39-.04.75-.06,1.14-.06ZM6472.69,234.93l15.63,5.87-5.08-16.41h-10.55v10.55ZM6427.79,230.23l9.77,10.16h0s2.32-13.69,2.32-13.69l-7.79-3.51-4.31,7.04ZM6448.5,223.98l14.06,7.42-3.92-16.79h-8.59l-1.55,9.37ZM6466.45,200.55v8.59l14.47,5.08-5.88-14.46-8.59.78ZM6476.61,183.35l.77,8.99,16.01,4.3-7.4-14.46-9.39,1.17ZM6327.74,192.81s.1-.09.17-.13h0s-.12.08-.17.13ZM6439.11,145.1l-10.55,6.63,10.55,5.47,15.24-8.2-15.24-3.91h0ZM6327.18,122.3l3.02,3.4,2.83-3.4-2.83-3.78-3.02,3.78ZM6330.3,79.66c.22,0,.29,3.05.73,5.07,1.19,5.47,3.89,9.08,4.98,14.56.8,4.01,1.26,10.86-1.02,13.01-1.48,1.38-9.31,1.18-10.21.16-6.8-7.82-1.86-20.39,2.47-27.54.39-.6,2.85-5.25,3.05-5.25Z"/>
</svg>